/* XPM */
static char *result[] = {
/* columns rows colors chars-per-pixel */
"70 70 214 2 ",
"   c #032D2F",
".  c #023839",
"X  c #024244",
"o  c #04464A",
"O  c #04494F",
"+  c #094749",
"@  c #034D53",
"#  c #0C4E55",
"$  c #035155",
"%  c #04555B",
"&  c #0C545A",
"*  c #06595C",
"=  c #0C585F",
"-  c #125356",
";  c #045C63",
":  c #0D6266",
">  c #09646B",
",  c #0D6A6C",
"<  c #056469",
"1  c #066C73",
"2  c #0A6C72",
"3  c #176C72",
"4  c #0C7476",
"5  c #08767C",
"6  c #13747A",
"7  c #147A7D",
"8  c #19767C",
"9  c #227275",
"0  c #067B83",
"q  c #0B7D84",
"w  c #147D82",
"e  c #1A7C82",
"r  c #247C80",
"t  c #0B858C",
"y  c #0B878E",
"u  c #128086",
"i  c #1C8285",
"p  c #12848B",
"a  c #1E858A",
"s  c #1A898E",
"d  c #0B8B93",
"f  c #148C93",
"g  c #198E92",
"h  c #0B929A",
"j  c #0E989F",
"k  c #149097",
"l  c #1A9297",
"z  c #1A949A",
"x  c #1B9A9E",
"c  c #169098",
"v  c #258A8D",
"b  c #228588",
"n  c #248D91",
"m  c #2A8E97",
"M  c #2A9295",
"N  c #2D959A",
"B  c #249A9E",
"V  c #2F999C",
"C  c #259498",
"Z  c #339B9E",
"A  c #31979B",
"S  c #358A90",
"D  c #0C9BA3",
"F  c #1B9CA3",
"G  c #169DA4",
"H  c #269CA2",
"J  c #2C9CA2",
"K  c #279FA8",
"L  c #369DA2",
"P  c #389FA4",
"I  c #0DA2AA",
"U  c #0FA3A5",
"Y  c #1AA5AA",
"T  c #0EAAB2",
"R  c #11AAB2",
"E  c #13B2BA",
"W  c #1AB3B9",
"Q  c #2DA2A6",
"!  c #24A4AA",
"~  c #2DA5A9",
"^  c #25AAAD",
"/  c #2BAAAE",
"(  c #22A2A7",
")  c #33A1A5",
"_  c #39A1A6",
"`  c #3BA5AA",
"'  c #34A9AD",
"]  c #3DA9AE",
"[  c #36A0A8",
"{  c #2DADB2",
"}  c #24ADB3",
"|  c #3CACB2",
" . c #32ACB1",
".. c #26B2B6",
"X. c #2DB5B9",
"o. c #26B5B9",
"O. c #39B6BA",
"+. c #3EB9BC",
"@. c #34B7BA",
"#. c #41AAAE",
"$. c #4FA5AB",
"%. c #54A9AB",
"&. c #42ADB1",
"*. c #49AEB3",
"=. c #45B1B5",
"-. c #4BB2B4",
";. c #44B5B9",
":. c #4AB5B9",
">. c #4CBABD",
",. c #47B9BC",
"<. c #51BBBE",
"1. c #5DBABD",
"2. c #58B7BB",
"3. c #54AEB3",
"4. c #1ABDC1",
"5. c #16BBC2",
"6. c #27BBC0",
"7. c #34BEC2",
"8. c #3BBEC2",
"9. c #44BEC3",
"0. c #4BBDC2",
"q. c #53BDC2",
"w. c #5ABEC1",
"e. c #64BEC4",
"r. c #28C8CC",
"t. c #3BC3C6",
"y. c #2ECCD0",
"u. c #3FCED0",
"i. c #32CED1",
"p. c #3CD1D4",
"a. c #44C1C5",
"s. c #4EC1C5",
"d. c #44C5C9",
"f. c #4BC7CB",
"g. c #53C2C5",
"h. c #5BC3C6",
"j. c #55C5C9",
"k. c #5CC5C9",
"l. c #55C9CD",
"z. c #5BCACE",
"x. c #4DCDD1",
"c. c #46CFD2",
"v. c #5CCED2",
"b. c #54CFD5",
"n. c #44D2D5",
"m. c #4BD1D4",
"M. c #4ED7D9",
"N. c #4DDADC",
"B. c #52D2D6",
"V. c #5FD1D4",
"C. c #55D6DB",
"Z. c #5DD6DA",
"A. c #54DADD",
"S. c #5CDBDD",
"D. c #63C3C4",
"F. c #66C6CB",
"G. c #62CDD1",
"H. c #62D1D5",
"J. c #69D2D6",
"K. c #64D5D9",
"L. c #6BD6DA",
"P. c #64DADD",
"I. c #6BDADE",
"U. c #72DBDE",
"Y. c #75D6D9",
"T. c #5CDFE1",
"R. c #63DEE1",
"E. c #6CDEE1",
"W. c #75DEE1",
"Q. c #7DDDE0",
"!. c #5DE1E3",
"~. c #64E2E3",
"^. c #6DE2E5",
"/. c #6DE6E8",
"(. c #6BE7E9",
"). c #73E3E6",
"_. c #7BE3E5",
"`. c #73E6E9",
"'. c #73EAEC",
"]. c #7AECED",
"[. c #7AE6E8",
"{. c #7AEDF0",
"}. c #7EF1F2",
"|. c #77F1F1",
" X c #81E7EA",
".X c #82EBEE",
"XX c #88E4E7",
"oX c #90EBED",
"OX c #83EEF2",
"+X c #8BEFF1",
"@X c #85F2F4",
"#X c #8BF5F6",
"$X c #8CF6FA",
"%X c #8DF8F9",
"&X c #92F5F5",
"*X c #93F7F9",
"=X c #94FDFE",
"-X c #9BFEFE",
";X c #9CF4F6",
":X c #97EFF1",
">X c #A3FEFE",
",X c #ACFEFE",
"<X c #A1F4F5",
"1X c #B5FEFE",
"2X c #BBFEFE",
"3X c #C4FEFE",
"4X c #CBFFFF",
"5X c #D3FEFE",
"6X c #DCFFFF",
"7X c #E7FFFF",
"8X c #ECFFFF",
"9X c #F1FFFF",
"0X c #FEFFFF",
"qX c None",
/* pixels */
"qXqXqXqXqXqXqXqXqXqXqXqXqXqXqXqXqXqXqXqXqXqXqXqXqXqXqXqXqXqXqXqXqXqXqXqXqXqXqXqXqXqXqXqXqXqXqXqXqXqXqXqXqXqXqXqXqXqXqXqXqXqXqXqXqXqXqXqXqXqX",
"qXqXqXqXqXqXqXqXqXqXqXqXqXqXqXqXqXqXqXqXqXqXqX7 X qXqXqXqXqXqXqXqXqXqXqXqXqXqXqXqXqXqXqXqXqXqXqXqXqXqXqXqXqXqXqXqXqXqXqXqXqXqXqXqXqXqXqXqXqX",
"qXqXqXqXqXqXqXqXqXqXqXqXqXqXqXqXqXqXqXqXqXqXqXe i + qXqXqXqXqXqXqXqXqXqXqXqXqXqXqXqXqXqXqXqXqXqXqXqXqXqXqXqXqXqXqXqXqXqXqXqXqXqXqXqXqXqXqXqX",
"qXqXqXqXqXqXqXqXqXqXqXqXqXqXqXqXqXqXqXqXqXqX# b i i qXqXqXqXqXqXqXqXqXqXqXqXqXqXqXqXqXqXqXqXqXqXqXqXqXqXqXqXqXqXqXqXqXqXqXqXqXqXqXqXqXqXqXqX",
"qXqXqXqXqXqXqXqXqXqXqXqXqXqXqXqXqXqXqXqXqXqX8 N N v i qXqXqXqXqXqXqXqXqXqXqXqXqXqXqXqXqXqXqXqXqXqXqXqXqXqXqXqXqXqXqXqXqXqXqXqXqXqXqXqXqXqXqX",
"qXqXqXqXqXqXqXqXqXqXqXqXqXqXqXqXqXqXqXqXqXqXi A Z N n > qXqXqXqXqXqXqXqXqXqXqXqXqXqXqXqXqXqXqXqXqXqXqXqXqXqXqXqXqXqXqXqXqXqXqXqXqXqXqXqXqXqX",
"qXqXqXqXqXqXqXqXqXqXqXqXqXqXqXqXqXqXqXqXqXqXM Z Z Z Z m qXqXqXqXqXqXqXqXqXqXqXqXqXqXqXqXqXqXqXqXqXqXqXqXqXqXqXqXqXqXqXqXqXqXqXqXqXqXqXqXqXqX",
"qXqXqXqXqXqXqXqXqXqXqXqXqXqXqXqXqXqXqXqXqX; N Z L L Z V , qXqXqXqXqXqXqXqXqXqXqXqXqXqXqXqXqXqXqXqXqXqXqXqXqXqXqXqXqXqXqXqXqXqXqXqXqXqXqXqXqX",
"qXqXqXqXqXqXqXqXqXqXqXqXqXqXqXqXqXqXqXqXqXe Z Z L Z Z Z H qXqXqXqXqXqXqXqXqXqXqXqXqXqXqXqXqXqXqXqXqXqXqXqXqXqXqXqXqXqXqXqXqXqXqXqXqXqXqXqXqX",
"qXqXqXqXqXqXqXqXqXqXqXqXqXqXqXqXqXqXqXqXqX6 Z Z Z L Z L Z qXqXqXqXqXqXqXqXqXqXqXqXqXqXqXqXqXqXqXqXqXqXqXqXqXqXqXqXqXqXqXqXqXqXqXqXqXqXqXqXqX",
"qXqXqXqXqXqXqXqXqXqXqXqXqXqXqXqXqXqXqXqXqX7 L Z L L Z L _ qXqXqXqXqXqXqXqXqXqXqXqXqXqXqXqXqXqXqXqXqXqXqXqXqXqXqXqXqXqXqXqXqXqXqXqXqXqXqXqXqX",
"qXqXqXqXqXqXqXqXqXqXqXqXqXqXqXqXqXqXqXqXX 7 L Z Z L Z _ Z qX% qXqXqXqXqXqXqXqXqXqXqXqXqXqXqXqXqXqXqXqXqXqXqXqXqXqXqXqXqXqXqXqXqXqXqXqXqXqXqX",
"qXqXqXqXqXqXqXqXqXqXqXqXqXqXqXqXqXqXqXqX* 7 Z P Z Z P Z _ V _ qXqXqXqXqXqXqXqXqXqXqXqXqXqXqXqXqXqXqXqXqXqXqXqXqXqXqXqXqXqXqXqXqXqXqXqXqXqXqX",
"qXqXqXqXqXqXqXqXqXqXqXqXqXqXqXqXqXqXqXqX, i Z P P Z Z _ v L L = qXqXqXqXqXqXqXqXqXqXqXqXqXqXqXqXqXqXqXqXqXqXqXqXqXqXqXqXqXqXqXqXqXqXqXqXqXqX",
"qXqXqXqXqXqXqXqXqXqXqXqXqXqXqXqXqXqXqXqX6 i Z Z P Z _ Z w L L M qXqXqXqXqXqXqXqXqXqXqXqXqXqXqXqXqXqXqXqXqXqXqXqXqXqXqXqXqXqXqXqXqXqXqXqXqXqX",
"qXqXqXqXqXqXqXqXqXqXqXqXqXqXqXqXqXqXqXqXu b Z P P P _ _ N L _ _ qXqXqXqXqXqXqXqXqXqXqXqXqXqXqXqXqXqXqXqXqXqXqXqXqXqXqXqXqXqXqXqXqXqXqXqXqXqX",
"qXqXqXqXqXqXqXqXqXqXqXqXqXqXqXqXqXqXqXqXe n Z L L P _ e _ L L _ qXqXqXqXqXqXqXqXqXqXqXqXqXqXqXqXqXqXqXqXqXqXqXqXqXqXqXqXqXqXqXqXqXqXqXqXqXqX",
"qXqXqXqXqXqXqXqXqXqXqXqXqXqXqXqXqXqXqXqXv N :.P _ _ _ n _ _ _ L qXqXqXqXqXqXqXqXqXqXqXqXqXqXqXqXqXqXqXqXqXqXqXqXqXqXqXqXqXqXqXqXqXqXqXqXqXqX",
"qXqXqXqXqXqXqXqXqXqXqXqXqXqXqXqXqXqXqXqXM &.w.` _ P N ` L _ _ L qXqXqXqXqXqXqXqXqXqXqXqXqXqXqXqXqXqXqXqXqXqXqXqXqXqXqXqXqXqXqXqXqXqXqXqXqXqX",
"qXqXqXqXqXqXqXqXqXqXqXqXqXqXqXqXqXqXqX. Z -.k._ ` _ L _ _ ` ` ` qXqXqXqXqXqXqXqXqXqXqXqXqXqXqX<.A qXqXqXqXqXqXqXqXqXqXqXqXqXqXqXqXqXqXqXqXqX",
"qXqXqXqXqXqXqXqXqXqXqXqXqXqXqXqXqXqXqXv #.G.#.#.` ` ` ` ` ` ` V qXqXqXqXqXqXqXqXqXqXqXqXqXqX_ <.m qXqXqXqXqXqXqXqXqXqXqXqXqXqXqXqXqXqXqXqXqX",
"qXqXqXqXqXqXqXqXqXqXqXqXqXqXqXqXqXqXqXP J.J.L #.&.] ] ] ] ` ] 6 qXqXqXqXqXqXqXqXqXqXqXqXqXqXq._ L qXqXqXqXqXqXqXqXqXqXqXqXqXqXqXqXqXqXqXqXqX",
"qXqXqXqXqXqXqXqXqXqXqXqXqXqXqXqXqXqX3 h.J.L.#.#.&.| &.&.#.] | ] qXqXqXqXqXqXqXqXqXqXqXqXqX1 q.[ [ qXqXqXqXqXqXqXqXqXqXqXqXqXqXqXqXqXqXqXqXqX",
"qXqXqXqXqXqXqXqXqXqXqXqXqXqXqXqXqXqX] L.U.U.-.=.=.&.&.&.&.&.N &.qXqXqXqXqXqXqXqXqXqXqXqXqX-.<.` L e qXqXS qXqXqXqXqXqXqXqXqXqXqXqXqXqXqXqXqX",
"qXqXqXqXqXqXqXqXqXqXqXqXqXqXqXqXqX9 J.U.W.:.:.:.:.;.-.;.;.] ;.&.qXqXqXqXqXqXqXqXqXqXqXqXqXS q.&._ [ qXe Z qXqXqXqXqXqXqXqXqXqXqXqXqXqXqXqXqX",
"qXqXqXqXqXqXqXqXqXqXqXqXqXqXqXqXqX*.U.U.W.:.>.<.>.>.>.>.>.| :.L qXqXqXqXqXqXqXqXqXqXqXqXqXh.w.&.` L L v L qXqXqXqXqXqXqXqXqXqXqXqXqXqXqXqXqX",
"qXqXqXqXqXqXqXqXqXqXqXqXqXqXqXqXX =.W._.W.q.q.q.s.q.0.0.&.0.0.qXqXqXqXqXqXqXqXqXqXqXqXqXqXj.g.<.&.] _ ` J M qXqXqXqXqXqXqXqXqXqXqXqXqXqXqXqX",
"qXqXqXqXqXqXqXqXqXqXqXqXqXqXqXqXZ h._._.z.j.l.j.j.j.l.g.g.l.) qXqXqXqXqXqXqXqXqXqXqXqXqXqX% j.g.q.>.=.] ` ` qXqXqXqXqXqXqXqXqXqXqXqXqXqXqXqX",
"qXqXqXqXqXqXqXqXqXqXqXqXqXqXqXqX#.Y._._.g.G.z.z.v.z.z.s.v.E.qXqXqXqXqXqXqXqXqXqXqXqXqXqXqXqXq.j.z.h.w.0.:.C a qXqXqXqXqXqXqXqXqXqXqXqXqXqXqX",
"qXqXqXqXqXqXqXqXqXqXqXqXqXqXqXqX&.W._..Xq..Xv.v.H.v.v.E.[.<.$.2.-.h.G.Y.Y.h.*.1.qXqXqXqXqXqX9 g.z.v.F.z.<.:.V qXqXqXqXqXqXqXqXqXqXqXqXqXqXqX",
"qXqXqXqXqXqXqXqXqXqXqXqXqXqXqX# =._..XI.L.OXv.K.K.E.`.@X@X%.%.-XJ.j.g.s.l.P.oX1XD.1.qXqXqXqXqXh.v.G.G.v.k.g.&.qXqXqXqXqXqXqXqXqXqXqXqXqXqXqX",
"qXqXqXqXqXqXqXqXqXqXqXqXqXqXqX6 -.[..Xh.@X#Xv.I.E.'.@X#Xq.Q.j.~ H B B B V ) ' >.[.>X-.D.qXqXqX# z.G.K.K.G.j.:.7 qXqXqXqXqXqXqXqXqXqXqXqXqXqX",
"qXqXqXqXqXqXqXqXqXqXqXqXqXqXA 7 :..X@XG.$X$Xv.I.`.@X#XU.j./ x z c c f d f f l C ] s.]._.q.L.e qX:.H.L.H.H.z.>.v qXqXqXqXqXqXqXqXqXqXqXqXqXqX",
"qXqXqXqXqXqXqXqXqXqXqXqXqXe w : :.OX.X[.%X=XV.).].@X_.+.( x x f k d y y t p B f l ;.Q v.E.E.).qXX H.I.L.H.z.:.M qXqXqXqXqXqXqXqXqXqXqXqXqXqX",
"qXqXqXqXqXqXqXqXqXqXqXqXqX$ w 4 <.OXI.$X=X=XZ.^.].v.a./ Y x P.:Xd y y y t t y =Xz l z H E.E.E.E.& H.I.I.H.*.o v qXqXqXqXqXqXqXqXqXqXqXqXqXqX",
"qXqXqXqXqXqXqXqXqXqXqXqXqX@ w u q..Xv.=X-X=XK.).P.^.@.Y G 9.1XX.h d d d d y d -X=Xg z z E.L.E.E.E.l.I.I.K.i @   qXqXqXqXqXqXqXqXqXqXqXqXqXqX",
"qXqXqXqXqXqXqXqXqXqXqXqXqX@ 2 u q.U.H.=X=X-XZ.'.#Xd.o.Y U 1X1XY h h h h h h k -X-X9.H F 9.E.E.^.E.v.E.E.:.n o o qXqXqXqXqXqXqXqXqXqXqXqXqXqX",
"qXqXqXqXqXqXqXqXqXqXqXqXqXO * u J z.K.=X-X-XP.^.'.@.W >XD 1X2X} D D D D j j j ,X-X].v.^ ( E.E.E.E.E.E.E.E.w e o qXqXqXqXqXqXqXqXqXqXqXqXqXqX",
"qXqXqXqXqXqXqXqXqXqXqXqXo O % p q G.I.%X-X-X~.Z.M.o.W >X..2X2X XI I I I I I D ,X-XW.;XP.^ +.^.^.`.`.E.E.I.j.n   qXqXqXqXqXqXqXqXqXqXqXqXqXqX",
"qXqXqXqXqXqXqXqXqXqXqXqXO O $ u p B v.OX-X-X`.].n.6.W >X,X*X3X4XT T T T R T t.1X,Xo.>X&X..X.Z.^./.E.E.).E.K.J n qXqXqXqXqXqXqXqXqXqXqXqXqXqX",
"qXqXqXqXqXqXqXqXqXqXqXqX; O $ ; f p  .'.-X-X].*Xn.u.W >X1XA.4X3Xp.E E E W E 3X1XE.1X1X[.B.X.d.`.`.^.).^.I.K.] b qXqXqXqXqXqXqXqXqXqXqXqXqXqX",
"qXqXqXqXqXqXqXqXqXqXqXqXqXO @ * 1 c z P.-X>X{.-XM..X@X!.1X1X~.;X4X5.5.5.4.oX4Xc.2X3X2Xt.5Xt.x.B.`.`.^.E.l.g J qXqXqXqXqXqXqXqXqXqXqXqXqXqXqX",
"qXqXqXqXqXqXqXqXqXqXqXqXqXu $ ; ; c l.P.%X-XOX-XA.'.>X|.N.3X3X4Xi.S.r.r.&Xr.;X4X4X3Xu.3X1Xc.Z.].`./.`.).' o J qXqXqXqXqXqXqXqXqXqXqXqXqXqXqX",
"qXqXqXqXqXqXqXqXqXqXqXqXqXqX$ * ; t Z.R.OX>X}.$XB.p.,X1X2X!.p.N..X5Xr.r.(.5X~.!.M.&X5X3X2XB.'.@X/.`.`.x * : 6 qXqXqXqXqXqXqXqXqXqXqXqXqXqXqX",
"qXqXqXqXqXqXqXqXqXqXqXqXqXqXa ; 1 1 O.b.E.@X].).!.n.>X2X4X4X5X5X2X).6X^.(.3X5X8X9X8X6X4XS.T.@X'.'.`.).> : M qXqXqXqXqXqXqXqXqXqXqXqXqXqXqXqX",
"qXqXqXqXqXqXqXqXqXqXqXqXqXqX, < 1 < 0 +.t.@X/.C./.n.n..X5X4X~.p.n.S.N.5X5XM.N.M.,X0X5XT.S.'.>Xt.'.`.`.a.s < qXqXqXqXqXqXqXqXqXqXqXqXqXqXqXqX",
"qXqXqXqXqXqXqXqXqXqXqXqXqXqXqXN 1 y 5 d '.{./.#X#X].M.C.N.A.N.N.!.5XT.3X7X XS.!.T.!.T.S.T.{.4XC.'.'.Z.l ~ $ qXqXqXqXqXqXqXqXqXqXqXqXqXqXqXqX",
"qXqXqXqXqXqXqXqXqXqXqXqXqXqXqX& ;.l t 5 X.t.#X@Xc.~.A.A.A.A.A.A.1X;X;X8X!.5X(.~.R.T.T.T.(.*XZ.'.'.B.! / O qXqXqXqXqXqXqXqXqXqXqXqXqXqXqXqXqX",
"qXqXqXqXqXqXqXqXqXqXqXqXqXqXqXqX@ 2 t t 0 7.t.'.#X@XS.R.S.].S.T.7X9X3X'.0X7X.X~.~.T.T.~.'.S.'.'.(.5 d . qXqXqXqXqXqXqXqXqXqXqXqXqXqXqXqXqXqX",
"qXqXqXqXqXqXqXqXqXqXqXqXqXqXqXqX1 0 f ~ / ^ d.f.@XR.].~.~.P.S.S.S.7X6X#X7X+X~.~.!.(.~./.#X'.'.`.u d + qXqXqXqXqXqXqXqXqXqXqXqXqXqXqXqXqXqXqX",
"qXqXqXqXqXqXqXqXqXqXqXqXqXqXqXqXqX& q g { 9.d.x.Z.%X>.%X/.`.~.P.P.P.7X.X3X~.~.~.~.~.(.2X'.'.'.o.$ % t qXqXqXqXqXqXqXqXqXqXqXqXqXqXqXqXqXqXqX",
"qXqXqXqXqXqXqXqXqXqXqXqXqXqXqXqXqXqXqXy z ( d.O.f.Z.0.=.>X].].`.^.~.&X5XR.~.~.~.~.{.4X6.C.m.Y 0 h 2 qXqXqXqXqXqXqXqXqXqXqXqXqXqXqXqXqXqXqXqX",
"qXqXqXqXqXqXqXqXqXqXqXqXqXqXqXqXqXqXqXqX4 f B ! Z.^.Z.qX3. X*X@X].'.`.<X/././.'.1XXXw.m.o.8.} f : qXqXqXqXqXqXqXqXqXqXqXqXqXqXqXqXqXqXqXqXqX",
"qXqXqXqXqXqXqXqXqXqXqXqXqXqXqXqXqXqXqXqXF ~ s.B.a.P.x.^ qX1.1.~.1X>X*X*X>X,X2XA.w.e.@.o.G X.G 1 qXqXqXqXqXqXqXqXqXqXqXqXqXqXqXqXqXqXqXqXqXqX",
"qXqXqXqXqXqXqXqXqXqXqXqXqXqXqXqXqXqXqXqXqX, ~  .f.P.O.OX+.qX1.D.F.F.D.h.w.F.F.D.e.1.Y '.d.{ qXqXqXqXqXqXqXqXqXqXqXqXqXqXqXqXqXqXqXqXqXqXqXqX",
"qXqXqXqXqXqXqXqXqXqXqXqXqXqXqXqXqXqXqXqXqXqXqX3 K Q { H.].;.qXqXD.F.D.D.D.D.D.qXqXqXb.P.{ qXqXqXqXqXqXqXqXqXqXqXqXqXqXqXqXqXqXqXqXqXqXqXqXqX",
"qXqXqXqXqXqXqXqXqXqXqXqXqXqXqXqXqXqXqXqXqXqXqXqXqX| s.K.^.).qXqXqXqXqXqXqXqXqXqXqXqX9.O.qXqXqXqXqXqXqXqXqXqXqXqXqXqXqXqXqXqXqXqXqXqXqXqXqXqX",
"qXqXqXqXqXqXqXqXqXqXqXqXqXqXqXqXqXqXqXqXqXqXqXqXqXqX4 ' ,.I.).qXqXqXqXqXqXqXqXqXqXqXC > qXqXqXqXqXqXqXqXqXqXqXqXqXqXqXqXqXqXqXqXqXqXqXqXqXqX",
"qXqXqXqXqXqXqXqXqXqXqXqXqXqXqXqXqXqXqXqXqXqXqXqXqXqXqXqX) ' L.b qXqXqXqXqXqXqXL.G.qXqXqXqXqXqXqXqXqXqXqXqXqXqXqXqXqXqXqXqXqXqXqXqXqXqXqXqXqX",
"qXqXqXqXqXqXqXqXqXqXqXqXqXqXqXqXqXqXqXqXqXqXqXqXqXqXqXqXqXJ ) Q qXqXqXqXqXOX-X-XqXqXqXqXqXqXqXqXqXqXqXqXqXqXqXqXqXqXqXqXqXqXqXqXqXqXqXqXqXqX",
"qXqXqXqXqXqXqXqXqXqXqXqXqXqXqXqXqXqXqXqXqXqXqXqXqXqXqXqXqXqXJ ) qXqXqXqX[.O.h.O.qXqXqXqXqXqXqXqXqXqXqXqXqXqXqXqXqXqXqXqXqXqXqXqXqXqXqXqXqXqX",
"qXqXqXqXqXqXqXqXqXqXqXqXqXqXqXqXqXqXqXqXqXqXqXqXqXqXqXqXqXqXqX' qXqXqXr j.Q ] <.qXqXqXqXqXqXqXqXqXqXqXqXqXqXqXqXqXqXqXqXqXqXqXqXqXqXqXqXqXqX",
"qXqXqXqXqXqXqXqXqXqXqXqXqXqXqXqXqXqXqXqXqXqXqXqXqXqXqXqXqXqXqX4 qXqXqXqXj.) | *.qXqXqXqXqXqXqXqXqXqXqXqXqXqXqXqXqXqXqXqXqXqXqXqXqXqXqXqXqXqX",
"qXqXqXqXqXqXqXqXqXqXqXqXqXqXqXqXqXqXqXqXqXqXqXqXqXqXqXqXqXqXqXqXqXqXqXqX,.>.qXqXqXqXqXqXqXqXqXqXqXqXqXqXqXqXqXqXqXqXqXqXqXqXqXqXqXqXqXqXqXqX",
"qXqXqXqXqXqXqXqXqXqXqXqXqXqXqXqXqXqXqXqXqXqXqXqXqXqXqXqXqXqXqXqXqXqXqXqXg.qXqXqXqXqXqXqXqXqXqXqXqXqXqXqXqXqXqXqXqXqXqXqXqXqXqXqXqXqXqXqXqXqX",
"qXqXqXqXqXqXqXqXqXqXqXqXqXqXqXqXqXqXqXqXqXqXqXqXqXqXqXqXqXqXqXqXqXqXqXqXqXqXqXqXqXqXqXqXqXqXqXqXqXqXqXqXqXqXqXqXqXqXqXqXqXqXqXqXqXqXqXqXqXqX",
"qXqXqXqXqXqXqXqXqXqXqXqXqXqXqXqXqXqXqXqXqXqXqXqXqXqXqXqXqXqXqXqXqXqXqXqXqXqXqXqXqXqXqXqXqXqXqXqXqXqXqXqXqXqXqXqXqXqXqXqXqXqXqXqXqXqXqXqXqXqX",
"qXqXqXqXqXqXqXqXqXqXqXqXqXqXqXqXqXqXqXqXqXqXqXqXqXqXqXqXqXqXqXqXqXqXqXqXqXqXqXqXqXqXqXqXqXqXqXqXqXqXqXqXqXqXqXqXqXqXqXqXqXqXqXqXqXqXqXqXqXqX",
"qXqXqXqXqXqXqXqXqXqXqXqXqXqXqXqXqXqXqXqXqXqXqXqXqXqXqXqXqXqXqXqXqXqXqXqXqXqXqXqXqXqXqXqXqXqXqXqXqXqXqXqXqXqXqXqXqXqXqXqXqXqXqXqXqXqXqXqXqXqX",
"qXqXqXqXqXqXqXqXqXqXqXqXqXqXqXqXqXqXqXqXqXqXqXqXqXqXqXqXqXqXqXqXqXqXqXqXqXqXqXqXqXqXqXqXqXqXqXqXqXqXqXqXqXqXqXqXqXqXqXqXqXqXqXqXqXqXqXqXqXqX"
};
