/* XPM */
static char *a9c9875cd42a4d4084106b4952dfbb57ia9bYcxzZEhyaErH[] = {
/* columns rows colors chars-per-pixel */
"73 86 192 2 ",
"   c None",
".  c #2D1910",
"X  c #341D12",
"o  c #2F1C0F",
"O  c #3C220F",
"+  c #3E2314",
"@  c #2A2927",
"#  c #2F2E2C",
"$  c #2D3331",
"%  c #313734",
"&  c #363B3A",
"*  c #3A3E3C",
"=  c #412510",
"-  c #442813",
";  c #4D2D13",
":  c #432518",
">  c #4B2B1A",
",  c #472919",
"<  c #532E19",
"1  c #502F12",
"2  c #563316",
"3  c #5A3517",
"4  c #53321B",
"5  c #5C311C",
"6  c #5E3819",
"7  c #5E3917",
"8  c #64341F",
"9  c #643C1C",
"0  c #6A3E1E",
"q  c #403F3D",
"w  c #563021",
"e  c #6B3723",
"r  c #6D3A23",
"t  c #613621",
"y  c #743C25",
"u  c #793F26",
"i  c #773D28",
"p  c #793D29",
"a  c #3D413F",
"s  c #6B411D",
"d  c #71451E",
"f  c #7B4B1E",
"g  c #6E4222",
"h  c #744326",
"j  c #7B4425",
"k  c #7B4B23",
"l  c #764329",
"z  c #7D412A",
"x  c #7E4B2A",
"c  c #774824",
"v  c #7F4630",
"b  c #3D4341",
"n  c #414542",
"m  c #454945",
"M  c #4A4947",
"N  c #464A48",
"B  c #494E49",
"V  c #4E534E",
"C  c #51514C",
"Z  c #4F5350",
"A  c #525752",
"S  c #545954",
"D  c #595D56",
"F  c #595F59",
"G  c #5B605B",
"H  c #62655F",
"J  c #626761",
"K  c #656962",
"L  c #696D65",
"P  c #696E68",
"I  c #6E726A",
"U  c #6C7167",
"Y  c #73766B",
"T  c #75796E",
"R  c #787B6F",
"E  c #747474",
"W  c #767C72",
"Q  c #7B7E73",
"!  c #83442C",
"~  c #89462E",
"^  c #834B2C",
"/  c #8C4B2E",
"(  c #824C24",
")  c #924F2F",
"_  c #835024",
"`  c #865128",
"'  c #8C522B",
"]  c #93532D",
"[  c #935B2A",
"{  c #98552F",
"}  c #8C4730",
"|  c #844C30",
" . c #8E4B31",
".. c #944D32",
"X. c #9B4B3B",
"o. c #954839",
"O. c #865130",
"+. c #955332",
"@. c #9C5433",
"#. c #9D5B33",
"$. c #9B5936",
"%. c #A15635",
"&. c #A35B35",
"*. c #A85E37",
"=. c #A3523D",
"-. c #A45C39",
";. c #AB5D3A",
":. c #A46334",
">. c #A96336",
",. c #A56139",
"<. c #AC633C",
"1. c #AB6938",
"2. c #B2653D",
"3. c #B46B3E",
"4. c #BA6C3E",
"5. c #B4713B",
"6. c #BD723E",
"7. c #BC783E",
"8. c #C0783F",
"9. c #AA5541",
"0. c #B35E44",
"q. c #B36342",
"w. c #B66B41",
"e. c #BB6D41",
"r. c #BC6747",
"t. c #BC7242",
"y. c #C16D44",
"u. c #C1654A",
"i. c #C46A4A",
"p. c #C96E4D",
"a. c #C37544",
"s. c #C97647",
"d. c #C57A44",
"f. c #CA7D46",
"g. c #C5734B",
"h. c #C77A48",
"j. c #CD7E48",
"k. c #CB744E",
"l. c #D17E4B",
"z. c #D0754F",
"x. c #D57D51",
"c. c #CF7B50",
"v. c #7D8176",
"b. c #7D8379",
"n. c #808276",
"m. c #81847A",
"M. c #85887D",
"N. c #888B7F",
"B. c #CC8147",
"V. c #CE8149",
"C. c #D2844B",
"Z. c #D6894C",
"A. c #D98B4E",
"S. c #D38848",
"D. c #D69348",
"F. c #DC924D",
"G. c #DC9A4C",
"H. c #D69147",
"J. c #DB8453",
"K. c #DC8A52",
"L. c #DF9652",
"P. c #E19B4E",
"I. c #E28D56",
"U. c #E38E58",
"Y. c #E39156",
"T. c #E49C51",
"R. c #E59058",
"E. c #E99958",
"W. c #EA9B57",
"Q. c #E4A14F",
"!. c #E6A152",
"~. c #E9A454",
"^. c #EBAA55",
"/. c #EFA65B",
"(. c #EFA95B",
"). c #E6A158",
"_. c #F0A95D",
"`. c #868A81",
"'. c #888E85",
"]. c #8B9186",
"[. c #8D928A",
"{. c #90968C",
"}. c #92998F",
"|. c #959C92",
" X c #989F95",
".X c #99A096",
"XX c #9BA298",
"oX c #A0A0A0",
"OX c #A9AEA5",
"+X c gray81",
"@X c #C3C3C3",
"#X c #EAEAEA",
/* pixels */
"                                                                                                                                                  ",
"                                                            F F F F F F F F F F F F F                                                             ",
"                                                          G .X.X}. X|.|.|. X X X.XXX`.P                                                           ",
"                                                        b {.'.v.b.M.m.m.m.m.W Q W W W m.Z                                                         ",
"                                                        b [.T v.b.'.E b.W m.Q P U P L K n                                                         ",
"                                                        a ].Y v.b.b.W b.m.`.E J J P Y J b                                                         ",
"                                                        a Y v.W W W '.b.W m.Y K K L R F                                                           ",
"                                                          G v.v.b.E ,.Q Q m.Q L L K U N                                                           ",
"                                                          Z v.W I v.v.P Q M.Y Y P J J b                                                           ",
"                                                          b v.T W b.v.P Q b.Y Y P Q E b n                                                         ",
"                                                    m A b m T P v.b.T T v.m.U v.E Y K n G F b                                                     ",
"                            V C                 m '.[.'.U a H P I v.K J W Q m.W v.W H m |.|. X`.S N             K n                               ",
"                          V J b.P         b b `.}.v.b.T I b A b.I P P P v.T Y W v.I F Z }.I W b.[.'.S b       J {.b.n                             ",
"                        n '.].v.K V     b '.}.I Y Y P P I b b P v.v.Y v.W U W Y v.W V I [.Y Y J Y v.}.K N   K N.M.{.}.n                           ",
"                      J [.W W b.b.K J b ].].b.W T I I P W S b Q b.b.v.b.b.b.b.v.W v.n b.b.I I I I L b.[.C K M.{.M.m.N.'.n                         ",
"                    V ].W R W I b.J b.Z b.M.T T v.M.b.v.E J b b.v.b.b.b.b.b.v.Y Y Y N '.W W W I Y I I L q M.{.M.'.M.n.v.b.n                       ",
"                  N `.W Y W Y Y Y Y Y K m T M.`.W W W E P T b I U Y b.b.W b.b.E I P Z [.I I v.I U T T b b }.'.b.`.`.b.b.v.I b                     ",
"                b U '.I Y W b.b.W b.b.b.S S b.W I W I I I b & Z G G G G G G G G G Z b '.P W W v.Y v.G B }.b.'.`.'.b.M.M.v.b.U                     ",
"                  a I W K W Y W Y W I b.b.b P v.I '.I . + g l l $.-.$.t ,.q.$.$.l l g + o W b.P R T a b.'.b.'.q.b.b.b.`.M.I b                     ",
"                    B I W W W Y W Y Y b.b.K b K J + l g +.$.$.$.-.-.$.g q.q.q.-.,.q.q.$.v g + F L V S .Xb.'.b.M.v.v.v.`.U m                       ",
"                      a J '.Y W I I v.b.W b.b + + x ,.$.$.$.q.$.-.,.9.g t.r.w.q.q.,.q.,.q.,.v v . N b.`.M.M.m.Q M.m.N.U a                         ",
"                    a G a G v.W v.T b.I v.b + 4 q.1.,.$.$.,.,.9.q.w.w.c B.g.t.w.w.w.w.q.q.q.w.g O.> F '.Q Y Q `.m.M.G a T a                       ",
"                    G M.I N W Y T K b.T B + l g 1.q.w.$.,.w.w.w.w.w.w.c V.c.h.h.t.t.t.w.w.w.w.g t.O.> n L Y Y Q N.G a [.T G                       ",
"                  b [.M.'.S C W T P I b > l $.g w.w.w.:.w.w.t.t.t.h.h.x L.J.C.V.V.t.B.t.t.B.w.g g.w.| 4 * F P U V n b.N.b.T a                     ",
"                a '.N.W T {.a C v.G b 4 g [ ,.g t.w.w.w.t.t.V.c.B.B.B.x G.K.K.C.V.V.C.t.C.V.t.l h.w.q.x w m Z N n [.m.T m.b.Y a                   ",
"                F `.W W Y W H & a b > x $.$.q.g t.B.B.t.B.t.V.V.B.V.V.x /.K.Z.K.K.V.C.V.C.J.B.x C.t.w.w.^ 4 & b }.m.m.'.'.m.Y G                   ",
"              N N.Y W T W `.m.Y b , l ,.,.:.w.c V.B.B.t.B.V.B.Z.V.C.V.[ _.R.L.C.Z.V.Z.Z.C.K.V.x J.B.t.w.w.O.4 G R R m.b.M.n.m.Y N                 ",
"              G R T Q Q `.W b.G + h $.q.1.1.t.k C.C.B.B.B.C.C.Z.Z.Z.Z.[ _.K.F.K.J.Z.Z.V.K.U.C.x K.V.t.t.w.w.x > G v.R ].m.n.Y Y F                 ",
"            N a U T Y W W W U o l $.,.w.w.5.t.k Z.Z.C.B.V.Z.C.A.Z.F.V.[ _.R.L.K.L.V.Z.B.V.Z.Z.` U.Z.h.t.t.t.w.x O R v.m.T Y m.U a N               ",
"            I G a F U R T {.G : $.:.<.w.t.7.B.c K.Z.Z.C.Z.A.Z.A.Z.A.Z.[ _.R.F.K.K.V.Z.Z.Z.Z.L.[ ).J.B.h.h.t.w.1.c G Y b.Y Y G a F F               ",
"            `.N.m.F C I U Q X g ,.,.w.t.t.7.B.[ L.Z.Z.V.C.L.C.L.K.A.F.[ (.Y.Z.Z.Z.V.Z.Z.V.Z.A.[ E.L.Z.h.h.t.w.3.1., G U G V G n.U F               ",
"          V W T Y M.[.G Y D e [ <.1.t.h.B.B.B.c L.Z.C.V.Z.L.Z.Z.Z.K.C.[ (.L.K.V.Z.B.Z.Z.V.Z.Z.[ Z.Z.Z.B.B.d.t.4.<.x V V G {.m.U R U a             ",
"          N.Y U W Y Y `.G X [ [ q.w.g.V.B.B.V.[ T.Z.Z.C.A.F.Z.C.K.Z.C.[ _.R.Z.C.C.B.Z.C.C.Z.Z.[ D.A.V.B.B.t.t.t.w.O.+ G M.I U v.Y Y D             ",
"          Y Y Q Y U Y I I t [ #.q.t.V.V.V.C.V.[ ^.Z.Z.Z.K.L.C.Z.Z.Z.C.[ _.F.Z.C.Z.B.Z.V.C.Z.Z.[ D.L.C.V.B.B.t.t.w.t.4 I I v.U I R Y Y             ",
"          T Q U Y W U I F r 1.5.t.t.V.B.C.C.V.[ ^.Z.A.A.R.L.C.Z.C.Z.C.[ _.L.C.V.Z.B.C.V.V.Z.A.[ D.F.V.V.B.B.B.t.t.w.O.F I U v.U U Q T             ",
"          U R T U Y U W F +.1.5.t.B.B.B.C.C.V.[ ^.Z.C.K.K.L.Z.Z.C.C.C.[ /.F.C.C.V.V.Z.V.C.C.L.[ D.L.B.B.t.B.B.t.5.t.$.G T I I U T Q U             ",
"        b Y T Q T Q T F : 1.3.5.B.t.C.C.C.Z.Z.[ ).A.C.A.F.Z.V.V.V.V.V.[ _.K.C.Z.V.V.Z.Z.C.F.F.[ G.F.Z.V.V.B.B.t.w.w.h.4 G T v.Y Q T Y n           ",
"        b B * n * q a M 9 3.t.a.B.B.C.Z.Z.A.Z.[ ^.L.A.A.A.Z.Z.B.C.Z.V.[ /.U.C.K.V.V.Z.K.A.F.A.[ G.F.C.V.Z.C.B.B.t.t.V.4 m a a a n * m *           ",
"* F Y [.XXOXOXOXOXOXXXa 3 a.l.Z.V.V.Z.L.Z.K.K.[ (.Y.C.A.Z.C.Z.C.S.Z.Z.` ~.K.A.L.V.K.A.F.Z.F.K.[ G.K.K.Z.Z.V.Z.V.B.B.5.s a '..X.X[.`.XXXXXX'.T U a ",
"a Y J Y W P U I R W I a f a.C.C.V.V.Z.Z.A.A.F.[ _.Y.C.S.D.C.Z.Z.V.Z.Z.:.~.K.A.F.Z.L.Z.F.K.F.F.[ ).L.Z.Z.Z.C.Z.Z.Z.t.5.d a U v.v.R Q `.W R Y v.G a ",
"a `.E W W L K J Y Y Q b f l.V.j.B.V.Z.A.K.A.Z.[ _.Y.C.C.K.V.Z.C.V.Z.Z.:.!.K.A.F.C.F.A.F.A.Y.A.[ ).Y.A.V.A.V.A.C.C.B.B.[ b I W b.W b.M.W I I v.G b ",
"a XXU W b.R Y L L Y Y * f C.B.C.C.V.A.Z.A.K.Z.[ ^.R.C.Z.A.B.Z.C.C.Z.Z.:.!.F.A.F.K.F.C.K.A.J.A.[ ^.Y.Z.V.Z.V.Z.C.C.Z.t.[ b [.Y b.v.b.`.b.b.Y R G a ",
"a XXU W Q `.`.m.Y L T * f C.f.V.C.V.L.C.Z.Z.Z.[ (.Y.Z.C.C.C.C.Z.C.Z.C.[ T.A.A.F.F.F.Z.Z.A.A.K.[ (.Y.Z.V.C.B.Z.C.C.Z.B.[ b [.P W v.v.b.W b.v.v.G a ",
"q XXY W Q m.`.`.Q T Q b f f.f.V.C.C.L.C.C.K.C.[ ^.Y.C.C.C.C.B.Z.B.C.C.[ !.F.C.A.Y.F.Z.C.Z.A.C.[ ^.Y.Z.V.Z.B.Z.V.C.Z.G.[ b XXK T I v.b.v.T W v.G q ",
"& '.E q.Q Q Q Q m.Y L b f V.V.V.V.V.L.C.C.C.Z.[ ^.R.C.V.C.C.B.C.B.C.Z.[ !.L.C.K.K.L.Z.Z.C.C.C.[ ^.R.C.C.C.B.Z.V.C.A.P.[ b .XI W v.v.v.W b.W ,.F b ",
"b b.E R Q Q Q Q Q W Y b f V.f.V.V.j.K.C.C.Z.C.[ ^.U.C.C.V.C.V.Z.C.C.C.[ !.F.C.Z.F.I.A.C.C.C.C.[ ^.R.C.C.C.B.C.V.C.C.T.[ b .XW b.b.b.W v.E E b.F b ",
"b E L K L P K K E W Y a f V.h.j.V.j.K.C.C.Z.C.[ ~.Y.V.V.C.V.f.C.B.C.C.[ ^.F.V.C.F.K.K.C.C.A.l.[ (.U.B.V.C.f.C.f.C.C.^.[ a [.W Y P P b.I P P L A * ",
"b P K H J J K K U Y L b f j.a.j.V.j.K.C.C.J.C.[ (.U.V.V.V.V.f.C.B.B.Z.[ ^.A.V.A.A.A.I.C.C.A.C.[ /.K.V.V.C.f.C.C.f.Z.^.[ a [.R E P P J P J J F A n ",
"b F F F G G G G G G G a f C.f.C.f.f.A.C.C.Z.C.[ /.I.C.f.V.V.f.C.C.j.Z.0 ^.I.l.A.A.S.A.C.C.C.C.[ _.K.V.V.V.f.S.V.f.A.~.s a G G G F F G F S A A N a ",
"b b b b a a a a a a a a f d.l.C.V.l.S.C.C.C.C.[ ~.A.C.f.C.f.B.C.C.f.C.( ^.I.C.V.C.B.A.C.l.Z.l.[ ).A.V.V.B.V.V.C.f.C.^.( a a a a a a q n a a b b a ",
"        a U [.XXXX`.R q f a.V.C.l.C.S.C.l.C.l.k ~.A.C.f.j.f.f.C.j.f.C.( ~.I.j.V.J.f.A.C.C.C.l.k ~.A.f.j.f.f.V.V.j.C.^.k a U [.XXOX[.Y a           ",
"        a `.[.[.`.n.Q a f l.f.l.f.C.A.f.l.C.f.k ~.I.f.d.f.f.f.B.V.j.f.k ~.J.V.j.C.f.S.j.l.l.f.k ).K.f.j.f.f.l.j.f.l.T.( a [.v.v.Y J L b           ",
"        b `.`.[.N.R n.a f C.B.C.C.V.S.C.B.C.C.c W.A.C.f.C.V.f.C.B.C.C.c ~.I.j.j.l.C.V.l.V.C.C.f !.Z.d.f.d.f.j.j.f.f.~.c a XXm.Y Y I K a           ",
"        b E m.[.m.Y v.a f V.B.B.C.f.C.C.C.V.S.[ !.S.C.B.V.V.f.C.C.f.Z.c !.J.j.f.f.B.C.f.f.S.C.[ !.S.8.f.a.f.f.f.f.j.P.c a XXY W W W I b           ",
"        b L W b.m.R Q q f j.B.V.C.C.V.C.C.f.A.] ~.S.B.f.V.f.B.C.C.f.Z.[ !.J.f.f.C.l.S.f.j.f.S.[ ~.C.6.d.a.a.s.d.f.s.T.[ b  XU v.Y R Y b           ",
"        b P U v.,.n.Q a f C.f.C.C.j.S.C.V.f.C.[ ~.J.C.f.C.C.B.C.C.f.C.[ T.x.j.d.V.f.V.f.f.j.f.[ ~.J.d.d.[ &.#.&.&.4.P.[ a [.Y Y L P Y b           ",
"        n H Y n.'.b.I b c B.B.B.C.l.V.C.B.C.C.[ ~.x.S.j.j.V.C.V.C.f.Z.[ !.z.j.j.j.V.f.j.f.j.A._ ~.x.d.] @X+X#X#X#X&.P.[ a N.U K J J P a           ",
"        q L Y R b.I I b f B.d.B.B.B.S.f.f.l.j.[ ~.C.j.8.j.V.l.V.C.C.f.[ P.J.f.j.V.B.f.f.f.j.A._ ~.B.d.6 E E E E E &.!.[ a '.U J F H J a           ",
"        a R U Y P P P b f V.t.V.j.l.C.l.V.C.f.d W.J.l.V.V.V.j.C.l.l.f.( P.J.f.l.l.S.V.f.l.j.A.d ~.V.a.O M q #XM E ' Q.[ b I Y U F H J a           ",
"        a L L L G J G b f V.V.V.f.B.B.f.f.C.j.d ~.Z.l.V.j.S.V.V.C.f.l.d P.I.j.f.f.S.C.C.C.l.F.d ^.V.6.= q @ oXq M f G.d a E I U J J J a           ",
"        a G G G G N N a f V.V.V.V.f.S.j.f.V.C.j ^.S.S.C.B.V.f.V.A.C.C.( Q.I.C.f.C.S.C.f.C.C.C.f ^.A.4.M +XE oX+X#XB d.9 a G F G F F G a           ",
"a a * a & % & & a % % a f V.j.V.j.f.V.f.f.f.C.f ^.A.V.J.f.C.V.V.Z.C.C.[ ~.I.C.f.B.C.C.B.C.A.Z.c ^.S.8 +XoX# E # oX#X#.9 a a & a a a a a b N N N Z ",
"a m.[.XXOXOXOXOXXXXXXXb f V.j.f.f.V.f.f.B.f.C._ ^.I.S.C.f.V.B.l.Z.C.C.[ /.I.C.f.C.V.C.C.C.C.J.0 ^.Z.=  X# @ # # # +Xj s a [.XXXX XXXXX`.`.`.W I b ",
"& `.Q W Y R W v.v.T I a f V.V.f.f.f.d.f.f.l.C.[ W.I.l.C.f.S.C.C.C.l.V.s W.A.C.f.B.C.f.V.f.J.C.( ^.C.= oXM M M M # oX6 0 a XXL U Y K Y Y Q m.Q F * ",
"a N.W W R Q m.Q n.W U q f f.f.j.l.d.d.f.d.f.j.s P.I.f.J.f.C.V.C.l.l.S.0 W.H.S.8.l.l.l.S.8.K.l.( ~.S.= E M E E M # oX6 9 a [.H H L Y I b.`.b.v.G * ",
"& ].Y Q W Q m.Q R W L a f d.f.f.C.f.f.j.d.j.j.s P.J.l.f.B.S.f.j.l.l.8.0 Y.J.l.l.8.A.A.8.l.l.l.( W.l.= T oXM # # oXE 6 9 a [.H H H R b.[.`.b.v.G a ",
"* ].I W m.m.m.Y U Y U a f a.f.d.f.f.f.f.a.f.s.6 P.J.l.l.f.C.f.l.l.H.l.7 I.A.l.8.l.l.8.x.8.l.8.7 ~.S.( @ E +X#X+XE # = 9 a XXT H L b.b.`.N.T W G m ",
"b XXU W N.m.M.Y Y L Y b f f.f.l.s.a.s.e.e.f.a.6 P.J.l.f.f.l.f.f.l.A.8.0 x.A.8.8.8.8.l.8.x.8.l.8 P.l.( = # @ @ # # 6 ) 7 a XXQ T Y ,.b.b.v.T v.G a ",
"b XXv.v.m.b.b.b.U U T q f s.s.s.g.e.a.e.y.4.e.; P.x.z.8.f.l.s.f.8.z.z.0 W.l.8.8.8.l.z.8.8.z.8.8 P.8.( 8 = = = = 6 k V.3 a XXW m.n.v.v.v.Y Y v.G N ",
"a b.U I Q ,.b.b.U T H q _ i.s.s.a.e.a.e.2.4.4.; P.x.s.i.a.s.V.a.8.z.8.u R.x.8.8.8.8.8.8.8.8.8.1 P.s.&.a.8.s.s.s.s.s.P.3 a [.v.m.v.v.n.b.R L v.G N ",
"a ].v.v.b.b.b.P Y U H a _ 4.y.s.y.e.4.2.2.e.2.3 P.z.i.8.8.s.j.8.8.z.8.7 Y.x.8.2.p.8.8.4.p.8.8.3 P.4.&.8.8.y.8.;.d.a.G.2 a [.R b.R Y v.N.b.Y H G a ",
"a v.I v.b.I E P L H G q ( y.8.y.a.q.2.e.2.2.2.; P.z.8.u.8.s.8.4.8.8.i.7 W.8.8.>.8.2.8.2.8.u.u.1 S.y.@.4.8.8.8...:.&.F.2 a Y v.b.m.T Y b.v.Y U N a ",
"b G P J K G G G G G G a ( u.8.y.2.;.2.2.;.2.*.3 H.p.8.2.2.8.p.8.8.8.0.7 K.8.8.&.>.2.8.2.4.2.2.2 V.8...;.:.:.@.@.:.@.A.2 a N G G G G G G G N N N a ",
"a b B b m % a N N N N a e u.4.2.;.%.2.2.*.2.%.3 H.p.4.;.2.8.8.;.;.8.2.7 I.8.2.*.&.;.2.;.2.2.2.1 V.4.~ @.&.@.@.^ ] +.S.1 a & a a a m B m N & $ % * ",
"        a Y ].XX'.b.v.a e %.%.%.%.%.%.%.%.%.%.1 H.p.2.;.;.8.0.;.2.8.*.8 x.8.;.%.{ *.;.*.;.;.;.2 s.2.! ) #.@.^ ( ) { S.1 a Y [.XXXX].Y a           ",
"        a I P I b.T v.a e %.%.%.%.%.%.%.%.%...1 S.u.;.;.%.4.2.;.*.4.*.3 J.8.;.%.{ *.;.*.%.;.%.1 8.2.! ) #./ ~ / / ^ 8.1 a '.R U Y T U a           ",
"        b I U T v.v.v.a 0 @.@.@.@.%.@.@.%...{ 1 8.u.%.%.%.2.%.;.;.4.%.3 l.2.%.&.{ %.%.%.%.;.%.1 8.2.! j ~ ! u u / ( j.1 q XXR Y U Y L b           ",
"        a Y I T T U v.a e { ..@...@...) %.../ 1 8.u.%.%.%.;.%.;.%.2.%.3 l.2.@.%.@.%.@.%...@.{ 1 8.;.u u ! u y y ( ! 8.d q XXI R R W L b           ",
"        a Y v.v.I I v.a 5 ..} ) } ....) } } ! ; 4.0.@.....%...%.%.;.%.3 i.>./ ) / ..) ........; %.%.p u j u ( ! p u *.0 q XXU W W W U b           ",
"        a v.v.I I I v.a 5 } ! ! ! ! } ! ! ! ! ; 0.;.} ..} ..} %...@...8 u.;./ / ! ~ ! ..~ ~ } - %...r y y ! u y i u *.- a N.Y Y I Y W b           ",
"        a v.b.T E E ,.q 5 } p ! ! ! } ! ! u u = ;.=.! ! ! ......~ o.} 2 2.=.z ~ z ! ! ! z ! } = @...r y y u u y u y @.= a '.I W E E m.b           ",
"        a W v.P P P E q 5 ! p p u u ! u u u u O %.=.! ! ! } } ..} ! } 5 0.=.z ! p y z ! ! p z = } } r y y y y u u 0 +.= a Y I W b.'.,.b           ",
"        a I T P P J H q 5 p p y u y p u y e y O %.X.! ! p ! ~ } z ~ ! 3 2.X.p z e y p z z y ~ O z ~ e y 0 i y e y e ) 3 a I I v.b.b.b.*           ",
"        b K P G G J H q 5 p y e y e p u y 8 e O ..X.p p p ! ! } p ! ! 5 0.X.p p e y p p p y p O p ! 0 e e e y y r 8 +.3 b I Y W b.b.m.b           ",
"        b F F F G F b b 5 p p y p e p p e 8 ! O ..o.p p p p p ~ p p p 5 =.o.y p p y e p p e p O p z 8 8 e 8 y e 8 8 u 3 % G G G F F F b           ",
"        b $ % b a $ % b 5 5 5 5 5 5 5 5 5 1 < = 8 e 5 5 5 5 5 8 8 5 8 ; e e 5 5 5 5 5 5 5 5 5 O 5 8 < < < < < < 5 < 5 ; % $ % * b b b b           "
};
