/* XPM */
static char *_23a4e40c1cb49249db8591c7fbd733dzYKuJSX0OZi3RA9Q[] = {
/* columns rows colors chars-per-pixel */
"73 85 162 2 ",
"   c None",
".  c #010100",
"X  c #0B0502",
"o  c #0A0A0A",
"O  c #100702",
"+  c #140A04",
"@  c #190E06",
"#  c #150E08",
"$  c #1A0F08",
"%  c #1F1107",
"&  c #13100E",
"*  c #1C120B",
"=  c #131313",
"-  c #181616",
";  c #1B1815",
":  c #1D1C1B",
">  c #380909",
",  c #201606",
"<  c #25140A",
"1  c #2A160B",
"2  c #2D190C",
"3  c #331C0D",
"4  c #2A1C11",
"5  c #201E1E",
"6  c #331F11",
"7  c #391E11",
"8  c #37200F",
"9  c #3A210F",
"0  c #24221F",
"q  c #362113",
"w  c #3C2312",
"e  c #34251A",
"r  c #252424",
"t  c #292827",
"y  c #2B2A2A",
"u  c #302A26",
"i  c #302D2B",
"p  c #2D3331",
"a  c #313734",
"s  c #363B3A",
"d  c #3A3E3C",
"f  c #422513",
"g  c #492717",
"h  c #442914",
"j  c #4B2C15",
"k  c #4B2619",
"l  c #4C2B19",
"z  c #512C19",
"x  c #5A2D1D",
"c  c #533115",
"v  c #593517",
"b  c #553119",
"n  c #5A351B",
"m  c #5E381A",
"M  c #613B1A",
"N  c #5F3E22",
"B  c #633421",
"V  c #6A3722",
"C  c #643B21",
"Z  c #6B3A23",
"A  c #723C26",
"S  c #783F26",
"D  c #7A3E29",
"F  c #3D413F",
"G  c #70441B",
"H  c #78491F",
"J  c #6C4022",
"K  c #754423",
"L  c #7A4226",
"P  c #774822",
"I  c #7B4A23",
"U  c #7D412A",
"Y  c #7E4A2C",
"T  c #3D4341",
"R  c #414542",
"E  c #454945",
"W  c #464A48",
"Q  c #494E49",
"!  c #4E534E",
"~  c #51514C",
"^  c #4F5350",
"/  c #525752",
"(  c #545954",
")  c #595D56",
"_  c #595F59",
"`  c #5B605B",
"'  c #62655F",
"]  c #626761",
"[  c #656962",
"{  c #696D65",
"}  c #696E68",
"|  c #6C7167",
" . c #6E726A",
".. c #73766B",
"X. c #75796E",
"o. c #787B6F",
"O. c #747770",
"+. c #767C72",
"@. c #7B7E73",
"#. c #85462C",
"$. c #844B2B",
"%. c #8C4C2C",
"&. c #895225",
"*. c #855028",
"=. c #8E552C",
"-. c #8E5828",
";. c #92532E",
":. c #91592D",
">. c #98592F",
",. c #944F32",
"<. c #8D5431",
"1. c #8F5D32",
"2. c #955331",
"3. c #995332",
"4. c #965A32",
"5. c #9B5B33",
"6. c #A25E36",
"7. c #A55F38",
"8. c #A85F39",
"9. c #9F6135",
"0. c #A46336",
"q. c #A96337",
"w. c #A36238",
"e. c #AC653A",
"r. c #AD6A3B",
"t. c #B1653B",
"y. c #B36B3C",
"u. c #B86F3E",
"i. c #B6713D",
"p. c #B9713E",
"a. c #B96D40",
"s. c #BC7541",
"d. c #BD7942",
"f. c #C27643",
"g. c #C47C44",
"h. c #CA7F45",
"j. c #7D8176",
"k. c #7D8379",
"l. c #808276",
"z. c #81847A",
"x. c #85887D",
"c. c #888B7F",
"v. c #C48144",
"b. c #CA8045",
"n. c #D48947",
"m. c #D68A49",
"M. c #D7934B",
"N. c #D9934C",
"B. c #DD9C4F",
"V. c #DF9A51",
"C. c #E09A50",
"Z. c #868A81",
"A. c #888E85",
"S. c #8B9186",
"D. c #8D928A",
"F. c #90968C",
"G. c #92998F",
"H. c #959C92",
"J. c #989F95",
"K. c #99A096",
"L. c #9BA298",
"P. c #A9AEA5",
/* pixels */
"                                                            ` ` _ _ _ _ _ _ _ _ ` _ _                                                             ",
"                                                          ` K.L.D.K.G.H.H.J.J.H.L.L.Z.}                                                           ",
"                                                        T D.A.j.k.x.x.x.z.k.@.+.+.X.+.z.^                                                         ",
"                                                        T S.X.j.k.Z.@.@.@.k.+.O.| | | } R                                                         ",
"                                                        T S.X.j.k.k.+.k.@.Z...] ] }  .` T                                                         ",
"                                                        T  .X.j.+.+.k.k.@.Z.O.] [ } O._                                                           ",
"                                                          ` j.j.+.+.w.Z.@.z.+.[ { [ | W                                                           ",
"                                                          / j.X.O.+.@.O.@.z.O... .[ [ T                                                           ",
"                                                          W j.X.O.k.k.} @.@.O.O.} O.O.T T                                                         ",
"                                                    W / R T .. .+.k.+.+.@.z.} @.O...{ R ` _ E                                                     ",
"                            ! ~                 W Z.D.Z.| F `  .+.O.} ] @.@.z.+.@.@.' R H.G.G.Z.) R             [ R                               ",
"                          ! [ k.|         F Q c.F.j.k.O.X.T ^ @. .} } } @.O...@.@...) / F.O.+.k.D.A.) E       ' G.k.R                             ",
"                        R A.S.@.] !     T A.G. ... . . .| T T { +.+...@.+. .+.X.@.@.Q  .D.O. .] ..@.D.} Q   { x.x.F.F.E                           ",
"                      ] D.@.@.k.k.] [ T A.A.k. .X. . .| +.( T k.A.z.+.Z.x.k.k.j.@.k.W z.k. .O.}  .{ k.D.~ ' x.F.x.l.x.A.R                         ",
"                    ! A.+.X.+. .k._ A.T k.k.j.j.j.Z.k.+.O.] F j.k.k.k.j.@.@.@.O. ...W A.O.+.+. .X. . .{ R x.F.x.A.z.l.j.k.R                       ",
"                  E A.+. .@. ...j. .j.] T k.k.Z.O.O.j.O.{ X.E { }  .j.j.@.k.@.O...{ Q D.O.O.+.X.| +.+.T / S.x.x.x.x.z.@.+. .E                     ",
"                F  .A.....@.k.j.+.k.k.k./ ( k.+. .+. . .| W s ! _ _ ` _ ` ` ` _ _ ! E Z.} @.+.O.X.@.) E H.k.A.k.A.Z.x.x.k.A.]                     ",
"                  F  .@.[ +.| +.X.+.} k.+.T } j.| A. .q < , 1 % X X X . . . . . . . . . .  .+.{ +.X.T x.A.k.Z.k.k.k.x.A.x.| R                     ",
"                    E  .+.+.+. .o.X. .j.k.` T | [ q w q 3 1 3 1 O X X . . . . . . . . . . . . ) | Q ) H.k.k.k.D.j.+.+.D. .R                       ",
"                      F [ A.X.j. . .j.j.j.k.Q l q w h w q 3 3 1 X X X . . . . . . . . . . . . . . W k.c.k.A.k.w.k.k.Z.| F                         ",
"                    F ` F ` j.O.@.O.k.O.j.Q h N c c h w 8 2 3 1 + X X . . . . . . . . . . . . . . . _ A.j.X.@.A.z.x.` F ..F                       ",
"                    ` c. .E +. .O.} +.O.T j Z Y b b l w 8 2 8 1 o X X . . . . . . . . . . . . . . . . T {  .} @.c.` d D...`                       ",
"                  F D.A.Z./ ~ j.O. .} W z K <.<.m n j w 9 2 8 1 X X X . . . . . . . . . . . . . . . . . d _ .. .! R z.c.z...F                     ",
"                F A.x.+.X.F.F ! +._ T N Y 5.<.1.m M j w 9 8 8 1 X X X . . . . . . . . . . . . . . . . . . E ! W F F.z.o.z.z...F                   ",
"                _ c.+.@. .+.' s F T N n w.w.5.5.N m l w w 3 8 1 . X X . . . . . . . . . . . . . . . . . . . s F G.z.z.A.A.z...`                   ",
"              W A...@...+.Z.x.O.F n <.P r.w.w.9.b B z h h 3 8 1 o . X . . . . . . . . . . . . . . . . . . . . _ @.o.z.z.k.z.z...W                 ",
"              ` o.X.+.+.Z.+.j.` l K v.P r.w.w.9.n C b h j 3 3 1 # O X . . . . . . . . . . . . . . . . . . . . . ) j.o.A.l.x....._                 ",
"            W F  .....+.+.+. .g Y a.M.I a.a.w.w.n K b z j 3 q 1 + O X . . . . . . . . . . . . . . . . . . . . . . o.j.l.....l. .F W               ",
"             .` F ` | ....F.` b a.r.B.-.a.r.e.5.n J b l h q 3 1 + X X . . . . . . . . . . . . . . . . . . . . . . ` X.z... .` F ) _               ",
"            c.c.z.` ! .. .o.N Y w.a.M.-.d.a.w.9.b J b h h 4 3 1 + X X . . . . . . . . . . . . . . . . . . . . . . . ` | ` ~ ` z...)               ",
"          ! @... .c.F.`  ._ 4.e.a.r.B.-.d.r.w.5.n J c g f 3 3 1 + X X . . . . . . . . . . . . . . . . . . . . . . . ! ! ` F.k.| .. .F             ",
"          Z... .o. ...c.) k v.r.a.r.V.-.d.a.9.5.n J c h f 2 3 1 + X X . . . . . . . . . . . . . . . . . . . . . . . . ` k...| j....._             ",
"          | ..j...| ..|  .j v.r.p.u.C.9.f.i.e.:.b B j h f < 2 < + X X . . . . . . . . . . . . . . . . . . . . . . . .  . .......@... .            ",
"          ..j.|  .j. .| ` h v.y.f.p.C.-.s.p.e.;.c m j h f 1 3 < + X X . . . . . . . . . . . . . . . . . . . . . . . . _ |  .@.|  .+...            ",
"           .j. . . .| ..` m v.a.g.y.B.-.s.u.0.4.b v h h f 2 3 1 + X X . . . . . . . . . . . . . . . . . . . . . . . . _ ....| ....@. .            ",
"        F ....j...j...` 8 M v.a.t.6.V.I u.u.e.9.m B j h h 3 8 2 X X X . . . . . . . . . . . . . . . . . . . . . . . . . ) ..o...@.O.+.F           ",
"        F W F F F F F E j m v.a.w.7.B.I a.u.t.w.n Z b h w w e i r % % . . . . . . . . . . . . . . . . . . . . . . . . . W F F F F F W F           ",
"F ` ..D.K.P.P.P.P.P.L.F j M v.0.r.e.M.I s.u.r.w.n J b z h e i i : # * . . . . . . . . . . . . . . . . . . . . . . . . . F D.L.L.D.Z.L.L.L.A.k.O.F ",
"F | [  .@.} } ....j...F M M g.7.r.r.B.-.s.p.r.9.n Z b l h q r y : ; * . . . . . . . . . . . . . . . . . . . . . . . . . T  .o.@.O.@.Z.k.+.O.A.` F ",
"F Z.X.+.j.{ [ [  .o.o.F M M g.r.y.r.M.-.s.s.r.4.n J b h w < : y y r * . . . . . . . . . . . . . . . . . . . . . . . . . d ..+.j.k.k.Z.+.O. .w.` F ",
"F L. .+.@.X...{ } } O.T b N v.r.a.r.V.-.d.p.q.5.n J b h w * : t r r * . . . . . . . . . . . . . . . . . . . . . . . . . F D...@.k.k.Z.+.k.O.@.` T ",
"F L. .+.@.Z.Z.z.O.} +.T m N v.r.a.y.V.-.f.r.w.5.m Z b h w * y : - : * . . . . . . . . . . . . . . . . . . . . . . . . . F D.} +.O.k.k.k.k.+.@.` F ",
"F L...+.k.k.Z.Z.w.k.+.F N M v.r.a.a.V.-.f.y.w.-.b B j g w r t = o : * . . . . . . . . . . . . . . . . . . . . . . . . . T L.{ ..+.+.k.k.O.k.+.` F ",
"F Z. .j.k.k.k.w.z...{ F m M v.r.s.a.V.-.s.y.0.=.b M j h e y : = - - # . . . . . . . . . . . . . . . . . . . . . . . . . T L...@.+.+.k.+.k.O.@.` F ",
"T k.} +.k.k.+.k.@.@.X.F M M v.p.g.p.C.-.p.t.5.5.j n j f 4 y - - : & @ . . . . . . . . . . . . . . . . . . . . . . . . . d L.@.@.w.Z.k.k.+....._ F ",
"T +.} ] ] } ] ] ..+...F M M d.p.f.p.N.-.a.t.>.:.j c h f * t : : : # # . . . . . . . . . . . . . . . . . . . . . . . . . T D.O.O.{ { +.+.{ { { ( F ",
"T } } ] ] ] } ]  .X.{ F M M p.p.g.p.C.-.t.e.>.=.j n g f * r r r & # @ . . . . . . . . . . . . . . . . . . . . . . . . . F F.+.X. .{ { { ' ' _ ( T ",
"T ` ` ` _ _ _ _ ` _ _ F M M d.u.g.p.N.-.r.q.w.:.c x f w * r 5 - $ < * . . . . . . . . . . . . . . . . . . . . . . . . . F _ _ _ ` _ _ _ / / ( W d ",
"T T T T T T s T T T T T n M s.s.g.u.m.P t.y.e.6.c z f f % = & & < 1 @ . . . . . . . . . . . . . . . . . . . . . . . . . F d F F d F F F F F R F F ",
"        N ..D.L.K.Z.O.T b M s.u.g.y.m.H y.y.t.2.z j f w < # * 2 4 < @ . . . . . . . . . . . . . . . . . . . . . . . . . F ..D.L.P.D...d           ",
"        F Z.D.D.Z.k.@.T v M s.i.f.u.m.I t.y.t.:.j z 9 f 2 1 6 6 2 % @ . . . . . . . . . . . . . . . . . . . . . . . . . F D.j.@.O.[ { T           ",
"        d z.c.D.Z.O.@.T c m s.y.g.p.N.H y.y.e.>.j k f w 2 6 7 4 < % + . . . . . . . . . . . . . . . . . . . . . . . . . F K.z. .....[ T           ",
"        T ..z.D.l...l.F c M p.i.f.u.m.P u.y.t.>.f z f w q w 6 2 < * # . . . . . . . . . . . . . . . . . . . . . . . . . F L...@.+.+. .d           ",
"        T } o.z.l.o.j.F v m d.i.f.u.n.H y.y.e.>.j b f w q w 6 < < $ # . . . . . . . . . . . . . . . . . . . . . . . . . F L. .@...X...T           ",
"        F {  .+.l.l.j.F v M p.i.g.u.N.H t.y.q.:.c j f f w 3 3 1 O X X . . . . . . . . . . . . . . . . . . . . . . . . . d D. .X.{ | ..F           ",
"        F { ..@.l.l. .F c M d.i.p.p.C.-.f.p.r.q.m n j f f 2 3 1 + X X . . . . . . . . . . . . . . . . . . . . . . . . . F Z. .} ' { { F           ",
"        F | ..j.l.| ..F M M g.u.f.p.N.-.f.p.y.9.x M c f f 1 3 < + X X . . . . . . . . . . . . . . . . . . . . . . . . . F Z. .] ` ' ' F           ",
"        F ..| | | ' ' F M M p.p.g.u.m.H f.u.e.;.c c f g f 1 3 < + X X . . . . . . . . . . . . . . . . . . . . . . . . . F  . . .` ` ' F           ",
"        F { [ { ' ' ' F v m d.p.g.y.n.P p.y.>.5.z v f f f 1 3 < + X X . . . . . . . . . . . . . . . . . . . . . . . . . T .. .| ` { ' F           ",
"        F ` ` ) ' E E F v G p.i.f.r.B.I u.t.5.:.h z f f f 3 3 < + X X . . . . . . . . . . . . . . . . . . . . . . . . . d ` ` _ ` ` ' F           ",
"F F F F F p a F F a a F c m p.i.f.u.m.H t.e.;.:.h x g f f 3 3 < O X X . . . . . . . . . . . . . . . . . . . . . . . . . R F s d F F F F F W W E W ",
"F z.D.K.P.P.P.P.L.L.L.F c m p.r.u.p.C.-.e.6.;.:.c c f f h 2 3 < O X . . . . . . . . . . . . . . . . . . . . . . . . . . d D.L.L.L.L.L.c.Z.Z.X. .F ",
"s x.j.X.....j.j.j... .F m m v.i.g.y.N.-.q.>.;.2.c z f f f 7 3 < O X . . . . . . . . . . . . . . . . . . . . . . . . . . F J.{ .. .'  ...j.z.j.` d ",
"F x.j.o...j.j.j.j.j.{ F m G p.i.g.t.m.P q.;.%.U z k w f f 7 3 < O . . . . . . . . . . . . . . . . . . . . . . . . . . . F D.' ] { ....z.z.z.@.` F ",
"s D.| j.j.j.k.X.X.j.{ F v G p.i.v.r.n.H 6.;.#.L j z 7 f w 7 2 % O . . . . . . . . . . . . . . . . . . . . . . . . . . . F D.' ' ' ..k.D.A.+.k.` F ",
"F D.| +.k.k.z.o... .{ F c v p.r.y.e.N.I 3.%.#.&.j z f w 7 3 2 1 X . . . . . . . . . . . . . . . . . . . . . . . . . . . F L...{ { ..+.Z.A.+.+.` W ",
"F K.| +.c.l.z.....| ..F c G i.r.t.e.N.H 3.%.#.*.f k 9 7 3 3 > < . . . . . . . . . . . . . . . . . . . . . . . . . . . . F L.@.X...w.A.k.j.X.j.` F ",
"F K.X.j.z.j.j.o.|  . .F c m i.r.>.q.M.G 3.#.S *.f g w 3 3 3 2 . . . . . . . . . . . . . . . . . . . . . . . . . . . . . F L.@.z.l.l.k.k... .j.` W ",
"F c.o.o.j.l.l.j... .' F M m g.>.>.8.h.j ;.S A L h g 7 3 9 3 . . . . . . . . . . . . . . . . . . . . . . . . . . . . . . d D.@.z.@.@.z.z.+.| j.` W ",
"F D.o.X.j.l.l.| | ..{ F m J p.>.&.3.h.j %.A V H 9 f 3 7 3 . . . . . . . . . . . . . . . . . . . . . . . . . . . . . . . T D.+.z.@...@.Z.k. .{ ` d ",
"F j.o.j.j.....' ' [ ` F v m i.&.&.3.g.c #.V V A f g 7 3 . . . . . . . . . . . . . . . . . . . . . . . . . . . . . . . . d ..@.x.l.X.X.k.@...| E F ",
"F ` | ' ' ` ` ` ` ` ` F v M i.%.&.3.t.f U M B A f k 3 . . . . . . . . . X . . . . X . . . X o . X . . . o . X . . o . . T W ` _ ` ` ` ` ` W W W F ",
"F W W W W a F W W W W F c M i.*.#.#.8.f D V x B h f . . . . . . . . o o o o o o o o o o o o o o o o o . o . o o . o o . F d T d F E W W W s p a F ",
"        F ..S.L.Z.Z.X.F c M i.*.%.D 8.f A V V A 9 . . . . o o o o o o o o o o o o o o o o o . o o o o o o o o o o o o o F ..D.L.L.D...F           ",
"        F  .|  .j.o.j.F c m i.#.U A 7.w A V V N . . X o o o o o o o o o o o o o o o o o o . o o o o o . o . . o . o o o F Z.o.} ..X. .F           ",
"        F } { X.@.o.j.F c M v.S #.Z 3.f A V x o X o o o o o o o o o o o o o . o . o o o . o . o . . o . o . o . o o o o F L.o...|  .| F           ",
"        F  ...+.+.X.@.F c M r.K #.V 3.7 Z x o o o o o o o o o o o o . o o o X . o . o . o . o X . o X o . o X o . o o o F L. .+.o.+.{ T           ",
"        F ..@.+. . .j.F c M r.A S M 3.7 x o o o o o o o o o X o o o o o o . o o . o o . . X                           o F L. .+.+.+. .F           ",
"        F j.@.X. . .@.F c M r.M D V ,.V o o o o o o o o o . o . o . X o o . o                                         & F Z.} ......+.T           ",
"        F j.j... .@.@.F j M r.M A ,.A O o o o o o o o o . o o o . o o                                                   T Z...+...+.x.d           ",
"        T @.+. .| { | F c m r.Z A #.o o o o o o o o o o o o o                                                           F X. .+.@.k.j.F           ",
"        d ....{ { ' ' F c m r.Z B o o o o o o o o o o o o                                                               F .. .+.j.z.j.F           ",
"        T { { ' ' ' ' F j M r.n o & o o o o o o o o =                                                                   F ..X.+.@.z.z.F           ",
"        T _ ` ` ` ` W W , , * = & o o o o o & = = =                                                                     a _ ` ` ` ` ` F           ",
"        F p a d a a a a o ; = = - > > o o & =                                                                           a p a s s F R F           "
};
