/* XPM */
static char *result[] = {
/* columns rows colors chars-per-pixel */
"100 100 73 1 ",
"  c #1C6B12",
". c #1C6C12",
"X c #1D6E12",
"o c #1D7012",
"O c #1D7112",
"+ c #1D7113",
"@ c #1D7212",
"# c #1D7312",
"$ c #1D7313",
"% c #1E7413",
"& c #1E7513",
"* c #1E7613",
"= c #1E7713",
"- c #1E7813",
"; c #1E7913",
": c #1E7A13",
"> c #1F7D13",
", c #1F7814",
"< c #207E14",
"1 c #208015",
"2 c #208913",
"3 c #218D13",
"4 c #229014",
"5 c #229214",
"6 c #229314",
"7 c #229414",
"8 c #239515",
"9 c #239615",
"0 c #239715",
"q c #249A15",
"w c #249B15",
"e c #259F16",
"r c #24A115",
"t c #24A314",
"y c #25A016",
"u c #25A116",
"i c #25A216",
"p c #25A815",
"a c #25A915",
"s c #25AB15",
"d c #26AC15",
"f c #26AD15",
"g c #26AE15",
"h c #26AF15",
"j c #26AC16",
"k c #26AE16",
"l c #27AE16",
"z c #26B015",
"x c #27B215",
"c c #27B216",
"v c #27B616",
"b c #28B516",
"n c #28B917",
"m c #29BC17",
"M c #29BD17",
"N c #29BE17",
"B c #2AC017",
"V c #2AC018",
"C c #2AC118",
"Z c #2BC218",
"A c #2AC418",
"S c #2BC518",
"D c #2BC819",
"F c #2CCA19",
"G c #2CCB19",
"H c #2CCC19",
"J c #2DCC1A",
"K c #2DCE1A",
"L c #2DD21A",
"P c #2ED51A",
"I c #2ED61B",
"U c #2FD81B",
"Y c #2FD91B",
/* pixels */
"hhhhhhhhhhh     hhhh  hhh @hhhhhhhhhhhhhhhhhh  G& hhh  hMM   hvMGG hhh  hDG @hhhhhhhhhhhhhhhhhhhhhhh",
"hhhhhhhhhhh@@@@@hhhh@@pgh@-hhhhhhhhhhhhhhhhhh  D>&pah  hmm @@pkbCC@hhh@@pSD&:phhhhhhhhhhhhhhhhhhhhhh",
"hhhhhhhhhhhhhhhhhhhhhh phhhhhhhhhhhhhhhhhhhhh  hDG @h  hhh hh     hhhhhh phGC hhhhhhhhhhhhhhhhhhhhhh",
"hhhhh hhhhh 3hhhhhhh  G& hhhhhhhhhhhhhhhhhhh hh phGC hhh     hhh  hhhhhh phhhhhhhhhh  hhhhhhhhhhhhhh",
"hhhhh hhhhh 3hhhhhhh  G& hhhhhhhhhhhhhhhhhhh hh phGC hhh     hhh  hhhhhh phhhhhhhhhh  hhhhhhhhhhhhhh",
"hhh  G  h     hhhhhh  Y* hp    hh hhhhhhhh  G,,hhhhp hh hhhhhh3 GG,hhh   phhhhhhhhhh   3hhhhhhhhhhhh",
"hhh  Y   GG wG  hhh hhM$  @hMMG   GG 3hhhh  Y  h@ YK hhh  hhhh3 YY hh YY phhhhhhhhhh  Gw hhhhhh  hhh",
"hhh  Y   GG wG  hhh hhM$  @hMMG   GG 3hhhh  Y  h@ YK hhh  hhhh3 YY hh YY phhhhhhhhhh  Gw hhhhhh  hhh",
"hp hhM  hMM 3hGG hh hhh@ hp    hh hhGw hhhhhM   phGC hhhGG hhhhhMM   hGG phhhhhhhhhh  hMG  hhhh   ph",
"hp hh hhh  h3 hhG  hhh ph @hhhhhhh  hMG   hh   hhh @hhh hhG   3h   hhh  hhhhhh  hhhhhh   GG hhh  G& ",
"hp hh hhh  h3 hhG  hhh ph @hhhhhhh  hMG   hh   hhh @hhh hhG   3h   hhh  hhhhhh  hhhhhh   GG hhh  G& ",
" @hhh hh hhhhhhhhhhhhhhhh   hhhhhhhhhhh  hhh hhhhhhhhhhhhhh  hhh  hhhhhhhhhhhh   hhhhhh3 YY hh    CG",
"wq3hh3333hhhhhhhhhhhhhhhh ow33hhh3hhvxh333hh3hhhhh35M33hhhh33hhh33hhhhhhhhhhhh  w33hhh333GG 33377www",
"GC hhh  hhhhhhhhhhhhhhhhh &G  hhh hhMvhhh hhhhhhhh &G  hhhhhhhhhhhhhhhhhhhhhhh  G  hhh 3hMM   hMMG& ",
"hhhhhhhhhhhhhhhhhhhhhhhhh @hGG hh hhh3 hh   hhhhhh *Y  h     hhhhhhhhhhh phhhh   hh hh 3hhh hh    ph",
"hhhhhhhhhhhhhhhhhhhhhhhhh @hGG hh hhh3 hh   hhhhhh *Y  h     hhhhhhhhhhh phhhh   hh hh 3hhh hh    ph",
"hhhhhhhhhhhh3 hhhhhhhhh@ hp hh   hhh   hh GG hhh@ hzM   hhMGG 3hhhhhhh  G1,hhhhh hhG  hhh     hhhhhh",
"hhhhhhhhhhhh3   hhhhhh CG,<hhh GG hhhhhhh hhG  h@ hhh  h      wG  hhhh  Y* hp YY hhhhhhhhhhhhhhhhhhh",
"hhhhhhhhhhhh3   hhhhhh CG,<hhh GG hhhhhhh hhG  h@ hhh  h      wG  hhhh  Y* hp YY hhhhhhhhhhhhhhhhhhh",
"hhhhh    hhh3 GG hhhhh KY @hhhhhhG  hhhhhh  hGG phhp    hhhhh 3hGG hhhhhM$  @hGG hhhhhhhhhhhhhhhhhhh",
"hhh  hhhh     hhG  h  hmM @hhhh   GG 3hhh hhhhhhhhhhhhhhhhhhhh3 hhG   hh   hhh  hhhhhhh3 hhhhhh  hhh",
"hhh  hhhh     hhG  h  hmM @hhhh   GG 3hhh hhhhhhhhhhhhhhhhhhhh3 hhG   hh   hhh  hhhhhhh3 hhhhhh  hhh",
"hhhhh    hhMMM  hGG   h@ GC hh hh YY 3h  G  hhhhhhhhhhhhhhhhhhhhhhh  hhh phhp hhhhhhhh wG,,hhhh  hhh",
"hhhhhpppp@@$$$pp@xx pph@ UJ @@ @@pBB 3h  U  h@@@@@hhhhhhhhhhhhhhhhhpphhhpghhp DD@hhhhh uU..h@@P  hhh",
"hhhhhhhhh     hh hh hhh@ YK      hMM 3h  Y  h     hhhhhhhhhhhhhhhhhhhhhhhhhhp GG hhhhh iY  h  Y  hhh",
"hhhhhhhhhhhhhhhh   hhh phMb hh GG hh   hhM   hhMFG @hhhhhhh  hhhhhh  hhhhhh   hhG  hhhhvM   hhG  hhh",
"hhhhhphhhhhhhhhh &&phh phbl@hh DD&pp@X hhm  @ppbVC @hhhhhhp&&adhhhp  hhhhhh .*ppD&&ppphcb  @hhC@@hhh",
"hhhhh hhhhhhhhhh GG hh ph @hhh hhG  h3 hhh  h      @hhhhhh GG,6hhh   hhhhhh *Y  hGG   h3   hhh hhhhh",
"hhh  h  hhhhhh   hhG  hhh @h  h  hGG 3hhh    hhhhhhp hhhhh YY 3h  Y   hhh@ hzMhhhhh hhh3 hhhhhhhhhhh",
"hhh  h  hhhhhh   hhG  hhh @h  h  hGG 3hhh    hhhhhhp hhhhh YY 3h  Y   hhh@ hzMhhhhh hhh3 hhhhhhhhhhh",
"hhh  h  hhhh3   h  hGG phhp hhhhhhhhhhhhhhhhhhhhhhhxG  hhhhMM   hhG  G  h@ hp hhh  hhhhhhhhhhhhhhhhh",
"hhh  hhh hh iY  hhhhhhhhhhhhhhhhhhhhhhhhh hhhhhh@  @hGG   h   3hhh hhhGG phhp hh hhhhhhhhhhhhhhhhhhh",
"hhh  hhh hh iY  hhhhhhhhhhhhhhhhhhhhhhhhh hhhhhh@  @hGG   h   3hhh hhhGG phhp hh hhhhhhhhhhhhhhhhhhh",
"hhhhh MM   hMG  hhhhhhhhhhhhhhhhhhhhhhh  h  hhhh@ YPhhh hhh  hhhhhhhh hhG& hhh  hhhhhhh3 hhhhhhhhhhh",
"hhhhh MMY  h3 hhhhhhhhhhhhhhhhhhhh  hhh  h  hhh phMb hhhhhhhhhhhhhhhhhhhhhhhp hhhhhhhh wG  hhhhhhhhh",
"hhhhh MMY  h3 hhhhhhhhhhhhhhhhhhhh  hhh  h  hhh phMb hhhhhhhhhhhhhhhhhhhhhhhp hhhhhhhh wG  hhhhhhhhh",
"hhhhhhhhhhhh3 hhhhhhhhhhh @hhhhhh GG 3h  hhh hh ph @hhhhhhhhhhhhhhhhhhhhhhhhp   hhhhhh iY  h     hhh",
"hhhhhhhhhhh37w33h33333hhh X3hhhhh LL 3h333vv 333sh @hhhh33333hhhhh3hhhhh33332 ww3hhh333jG  3337ww3sh",
"hhhhhhhhhhh wG  h     hhh   hhhhh YY 3hhh MM   hhh @hhhh     hhhhh hhhhh      GG hhh  hvM   hhMGG ph",
"hhh  hhhhhh iY   GG hh    &G  h  hMM 3hhh MMY  hhhhhhhh hhhhh     G     hmMGC hhG  h  hhh  h     hhh",
"hhh  hhhhhh iY   GG hh    &G  h  hMM 3hhh MMY  hhhhhhhh hhhhh     G     hmMGC hhG  h  hhh  h     hhh",
"hhh   hhh  hvM  hMM   hmM @hGG   h  hhhhhhhhh  hhhhhh  h     hvM  Y   GG    @h  hGG hhh3    hhhhhhhh",
"hhh  G  h  h3 hhh  hhh      hh hhh   3hhhhhh GG,ahhp   h   hh   hhM  hMM phhhhhhhhhhhhhhhhhhhhhhhhhh",
"hhh  G  h  h3 hhh  hhh      hh hhh   3hhhhhh GG,ahhp   h   hh   hhM  hMM phhhhhhhhhhhhhhhhhhhhhhhhhh",
"hhh  hGG hhh3 hh hhhhh CG @hhhhhhhhhh3 hhhhh YY ph *Y  h  G  h3 hh hhh  hhhhhhhhhhhhhhhhhhhhhhhhhhhh",
"hhhhh hhG  h3   hhhhhh KY @h     hhhhMG  hhhhMM   hxG  h  hGG 3hhh hh hhhhhhhhhhhhhh  hhhhhhhhh  hhh",
"hhhhh hhG  h3   hhhhhh KY @h     hhhhMG  hhhhMM   hxG  h  hGG 3hhh hh hhhhhhhhhhhhhh  hhhhhhhhh  hhh",
"hhhhhh  hhhh3 GG hhh  hmM   hhMGG hh 3hGG   h   phhp hhhhh hhGw hhh  hhhhhhhhhhhhhhh   3hhhhhh GG ph",
"hhhhh@CC@hhh3 xxC@@h  hzz Op@@$&&phhpshxx pph  pghhgphhhhhphhxfphhhpphhhhhhhhhhhhhhh  Cq@hhhhh UU ph",
"hhhhh GG hhh3 hhG  h  hhh @h     hhhhhhhh hhh  hhhhhhhhhhhhhhhhhhhhhhhhhhhhhhhhhhhhh  Gw hhhhh YY ph",
"hhhhh YY hh     hGG hhh@    hhhhhhhh wG  hhhh  G& hp hhhhhhhhhhhhh hhhhhhhhhhhhh hhh  hMG  h      ph",
"hhhpp@II pp@#$&&pDD@hhp=@ .@hhhhhhhh 9C  hhhh  H& pt&ppphhhhhhhhpp&pphhhhhhhhhpp@ppp@@anD&&p   && ph",
"hhh  hMM   hvMGG hhhhh ph @hhhhhhhhh     hhhh  Y*  &G   hhhhhhhh  G  hhhhhhhhh  h   hh,6hGG    GG ph",
" @h  hhh hh     hhhhhh phhp hhhhhh  h3   hhh hhM$ hzM     hhhhhh  Y  hhhhhh @hhh hhhhhMvhhh hh hhGxh",
" @h  hhh hh     hhhhhh phhp hhhhhh  h3   hhh hhM$ hzM     hhhhhh  Y  hhhhhh @hhh hhhhhMvhhh hh hhGxh",
"GC hhh     Gw hhhhhhhhh@ Mb hhhhhh  h3 GG hh hh phhp hh GG hhh3   M  hhhh@ GC hhh        hh hhh  hDG",
"hhhhhhhhhhhhhhhhhhhhhhh@ MBY  hhh hhh3 hhG  hhh ph @hhh hh   h3    hhhhhh@ YK hh    hhhhhhhhhhhhhhhh",
"hhhhhhhhhhhhhhhhhhhhhhh@ MBY  hhh hhh3 hhG  hhh ph @hhh hh   h3    hhhhhh@ YK hh    hhhhhhhhhhhhhhhh",
"hhhhhhhhhhhhhh  hhhhhhhhh @hhhhhhhhhhhh  hGG hhh@ hhhhhh  G       G  hhh phMb   hMMG  hhhhhhhhhhhhhh",
"hhhhhhhhhhhhhh   hhhhhh@ GZ,hhhhhhhhh3 hhhhhhhhh@ hhhhhh  Y   wG  hGG hh phhp hh    hhhhhhhhhhhhhhhh",
"hhhhhhhhhhhhhh   hhhhhh@ GZ,hhhhhhhhh3 hhhhhhhhh@ hhhhhh  Y   wG  hGG hh phhp hh    hhhhhhhhhhhhhhhh",
"hhhhhh     hhh  G  hhhh@ YK hhhhhhhh wG  hhhhhhh@  @hhh hhM  hvM   hhG  hhh     h   hhh3 hhhhhhhhhhh",
"hhhhh333333333  Mww3hh333GC 33hhhhhh 0A  hhhhhhh@ wq3hh hh733hr7333hhM33hhh32   3ii hh37w66hhhhhhhhh",
"hhhhh hhhhh     hGG hh phMb   hhhhhh 7M  hhhhhhh@ GC hh hh hhh3 hhhhhhhhhhhhp    YY hh wG,,hhhhhhhhh",
"hhhhhh     hvMMM hhG   ph @h   hhhhh 3h  hhhhhhh@ hxG  hhh hh 3hhhhhh    phhp GG GG hh iY  hhhhhhhhh",
"hhhhhh     hvMMM hhG   ph @h   hhhhh 3h  hhhhhhh@ hxG  hhh hh 3hhhhhh    phhp GG GG hh iY  hhhhhhhhh",
"hhhhhhhhhhh     hhhh  hhh @h  G  h  hhh         ph @hGG   G  hhhhhh  hhhh@    hhG  h  hvM  hhhhhhhhh",
"hhh  hhhhhhh3 GG hhhhhh@ hhh  hGG   h3 hhhhhM,,   hhhhhh  Y  h3    hh    phMMM  hGG   h3 hhhhhhhhhhh",
"hhh  hhhhhhh3 GG hhhhhh@ hhh  hGG   h3 hhhhhM,,   hhhhhh  Y  h3    hh    phMMM  hGG   h3 hhhhhhhhhhh",
"hhh   hhhhhh3 YY hhhhhh@  @hhh hh GG,+       hh CG @hhhhhhM   3hMMG  hhhh@    GG hh hhh3 hhhhhhhhhhh",
"hhh  G  hhh 3h      hhh@ GC hhhhh YY 3hhhhhhhhh phGDhhhhhhh  h3   hhhhhhhhhhp YY   G  hhhhhhhhhhhhhh",
"hhh  G  hhh 3h      hhh@ GC hhhhh YY 3hhhhhhhhh phGDhhhhhhh  h3   hhhhhhhhhhp YY   G  hhhhhhhhhhhhhh",
"hhh  hGG hh   GG hh      hxG  h  hMM 3hhhhhh hhh@ hhhhhhhh hh 3hhhhhhh  hhh @hMM hhM   3hhhhhh hhhhh",
"hhhpp@xxC@@p2 UU @@C  bbb@-xCC@  @$$pshhhh@@C@@haphhhhhhhhphhpshhhD@@hCC@ah @h$$phh$  Ce<hhhhh hhhhh",
"hhhhh hhG  h3 YY   G  MMM @hGG      hhhhhh  G  hhhhhhhhhhhhhhhhhhhG  hGG ph @h  hhh   Gu,hhhhh hhhhh",
"hhhhh   hhh 3hMM hhM     hp hh hh   hhhhhh  Y  h@    hh   hhhhhhhhhGGhhhG&  &G  h  h  Yi hh YY hhhhh",
"hhhhh &&phh 3hbb hhb@@@@@pt&pp@hh &&pshhhp@@I  p=@$$&pp*  hhhhhhhhpDDhppD>& %D&&p@@h@@Iy pp@UU hhhhh",
"hhhhh GG hh 3h   hh hhhhh &G  hhh GG 3hhh hhM   phMNG  Y  hhhhhhhh hhh  hDG @hGG hhhhhM7   hGG hhhhh",
"hhhhh hhG  hhh     hhhhhh *Y  h     Gw hh hhh  h@         h  Gw hhhhh YY phhp hhG   hh   hhh  hhhhhh",
"hhhhh hhG  hhh     hhhhhh *Y  h     Gw hh hhh  h@         h  Gw hhhhh YY phhp hhG   hh   hhh  hhhhhh",
"hhhhhh  hGG 3hhh GG hhh@ hzM   hhMGG wG  hhh    ph @hhhh     hMG  h  hMM phhhhhhh  hhh 3hhhhhhhhhhhh",
"hhhhhhhhhhhh3 hh hhG  h@ hhh  h     hhhhhhhhhhhhhhhp    hhMMM 3hGG   h  hhhhhhhhhhhhhhhhhhhhhhhhhhhh",
"hhhhhhhhhhhh3 hh hhG  h@ hhh  h     hhhhhhhhhhhhhhhp    hhMMM 3hGG   h  hhhhhhhhhhhhhhhhhhhhhhhhhhhh",
"hp hhhhhhhh wG  h  hGG phhp    hhhhhh3 hhhhhhhhhhhhhhhhh     hhhhh hhh   phhhhhhhhh hhhhhhh hhhhhhhh",
"hp   hhhhhh iY  h     hhhhhhhhhhhhhhh3   hhhhhhh@      hhhhhhhhh  hhhhhh   hhhhhh  G,,hhh   hhhhhhhh",
"hp   hhhhhh iY  h     hhhhhhhhhhhhhhh3   hhhhhhh@      hhhhhhhhh  hhhhhh   hhhhhh  G,,hhh   hhhhhhhh",
"hp GG hhh  hvM   hhMGG phhhh  hhh hhh3 GG hh    phMNG   hhhhhh3 GG,  hhh CG @hhhh  Y  h3 YY hhhhhhhh",
"hp MMw33h  hxv  3337ww3shhs3  hhh 33h3 MMw333   2378w  w33hhhh3 LL+33333 bMwq3hh333G  333LL hhhhh3sh",
"hp hhG  h  hhh  h     hhhhp   hhh   h3 hhG  h          G  hhhh3 YY hh    phGC hh hhM   3hGG hhhhh ph",
"hhh  hGG hhh3    hhh  hhh *Y  hhh GG 3h  hGG hhhhh     hGG hh 3hMM   hMMM$ hxG   hh   h3 hhhhhh  h@ ",
"hhh  hGG hhh3    hhh  hhh *Y  hhh GG 3h  hGG hhhhh     hGG hh 3hMM   hMMM$ hxG   hh   h3 hhhhhh  h@ ",
" @hhhhhhhhhhhhhhh  M  h@ hxG  hhh hhGw hhhhh      hzMMM hhG   3h  hhh    phhp   hhh hh wG,,hhhh  hDG",
"GC hhhhhhhhhhh  h  MYY ph   hhhhhh   wG  hhh GG ph     hhhh  hhh  hhhhhhhhhhp GG hhhhh iY  h  Y   ph",
"GC hhhhhhhhhhh  h  MYY ph   hhhhhh   wG  hhh GG ph     hhhh  hhh  hhhhhhhhhhp GG hhhhh iY  h  Y   ph",
"hxG  hhhhhhhhh   hhhhhh@ GC   hhhhhh iY  hhh   Gxhhhhhhhhhhhhhhhhhhhhhhhhhhhp hhG  hhhhvM   hhG  h@ ",
"hhhhhh     hhh  G  hhhh@ YK GG hhh  hvM   hhMGG phhhhhhh  hhhhhhhhhhhh  hhhhhh  hGG   h3   hhh hhhhh",
"hhhhhh     hhh  G  hhhh@ YK GG hhh  hvM   hhMGG phhhhhhh  hhhhhhhhhhhh  hhhhhh  hGG   h3   hhh hhhhh",
"hhhhh hhhhh     hGG hh phMb hhG  h  hhh  h     hhhhhhhh GG hh 3hhhhhhh   phhhhhhhhh hhh3 hhhhhhhhhhh",
"hhhhhp@@@@@pkbbb@xxC@@ ph$;p@@xCC@pph4@  @ppppphhhhhhhh UU @@Cq@hhhhhh  C:@hhhhhhhhphhhsphhhhhhhhhhh",
"hhhhhh     hvMMM hhG   ph @h  hGG hhh3    hhhhhhhhhhhhh YY   Gw hhhhhh  G& hhhhhhhhhhhhhhhhhhhhhhhhh"
};
