/* XPM */
static char *eca06a292a5f4cfab8e700ef22daef41FHYynADl80ka4vn4[] = {
/* columns rows colors chars-per-pixel */
"250 70 14 1 ",
"  c None",
". c #FF93B3",
"X c #FF94B4",
"o c #FF96B6",
"O c #FF9FBC",
"+ c #FFA6C0",
"@ c #FFA9C2",
"# c #FFABC4",
"$ c #FFAFC7",
"% c #FFC9D9",
"& c #FFCFDD",
"* c #FFF4F7",
"= c #FFFAFB",
"- c white",
/* pixels */
"                                                                                                                                                                                                                                                          ",
"                                                                                                                                                                                                                                                          ",
"                                                                                                                                                                                                                                                          ",
"                                                                                                                                                                                                                                                          ",
"                                                                                                                                                                                                                                                          ",
"                                                                                                                                                                                                                                                          ",
"                                                                                                                                                                                                                                                          ",
"                                                                                                                                                                                                                                                          ",
"                                                                                                                                                                                                                                                          ",
"                                                                                                                                                                                                                                                          ",
"                                                                                                                                                                                                                                                          ",
"                                                                                                                                                                                                                                                          ",
"        XXXXXXXXX        XXXXXXXX           XXXXXXXXXXXXXXXXXXXXX          XXXXXXXXXX         XXXXXX                                     .XXXXXXXXXX          XXXXXXX        XXXXXXXXXX         XXXXXXXXXX        XXXXXXX        XXXXXXXXXX               ",
"        XXXXXXXXX        XXXXXXXX           XXXXXXXXXXXXXXXXXXXXX          XXXXXXXXXX         XXXXXX                                     .XXXXXXXXXX          XXXXXXX        XXXXXXXXXX         XXXXXXXXXX        XXXXXXX        XXXXXXXXXX               ",
"        ####OXXXX        XXXXXXXX           ##XXXXXXXXXXXXXXXXXXX          ####XXXXXX         XXXXXX                                     +####XXXXXX          XXXXXXX        ####XXXXXX         ####XXXXXX        XXXXXXX        ####XXXXXX               ",
"      XX----%XXXXXX    XXXXXXXXXXXX       ----XXXXXXXXXXXXXXXXXXXXX      XX----XXXXXXXX.    XXXXXXXXXX                                 XX%----XXXXXXXX      XXXXXXXXXXX    XX----XXXXXXXX     XX----XXXXXXXX    XXXXXXXXXXX    XX----XXXXXXXX.            ",
"      XX----%XXXXXX    XXXXXXXXXXXX       ----XXXXXXXXXXXXXXXXXXXXX      XX----XXXXXXXX.    XXXXXXXXXX                                 XX%----XXXXXXXX      XXXXXXXXXXX    XX----XXXXXXXX     XX----XXXXXXXX    XXXXXXXXXXX    XX----XXXXXXXX.            ",
"      XX--&%$XXXXXX....XXXXXXXXXXXX     ..--%%XXXXXXXXXXXXXXXXXXXXX..    XX--%%XXXXXXXX.    XXXXXXXXXX                                 XX%-=%%XXXXXXXX      XXXXXXXXXXX    XX--%%XXXXXXXX     XX--%%XXXXXXXX    XXXXXXXXXXX    XX--%%XXXXXXXX.            ",
"      XX--OXXXXXXXXXXXXXXXXXXXXXXXX     XX--XXXXXXXXXXXXXXXXXXXXXXXXX    XX--XXXXXXXXXX.    XXXXXXXXXX                                 XX%-*XXXXXXXXXX      XXXXXXXXXXX    XX--XXXXXXXXXX     XX--XXXXXXXXXX    XXXXXXXXXXX    XX--XXXXXXXXXX.            ",
"      XX--OXXXXXXXXXXXXXXXXXXXXXXXX     XX--XXXXXXXXXXXXXXXXXXXXXXXXX    XX--XXXXXXXXXX.    XXXXXXXXXX                                 XX%-*XXXXXXXXXX      XXXXXXXXXXX    XX--XXXXXXXXXX     XX--XXXXXXXXXX    XXXXXXXXXXX    XX--XXXXXXXXXX.            ",
"      XX##XXXXXXXXXXXXXXXXXXXXXXXXX     XX##XXXXXXXXXX      XXXXXXXXX    XX##XXXXXXXXXX.    XXXXXXXXXX                                 XXO#@XXXXXXXXXX      XXXXXXXXXXX    XX##XXXXXXXXXX     XX##XXXXXXXXXX    XXXXXXXXXXX    XX##XXXXXXXXXX.            ",
"      XXXXXXXXXXXXXXXXXXXXXXXXXXXXX     XXXXXXXXXXXXXX      XXXXXXXXX    XXXXXXXXXXXXXX.    XXXXXXXXXX                                 XXXXXXXXXXXXXXX      XXXXXXXXXXX    XXXXXXXXXXXXXX     XXXXXXXXXXXXXX    XXXXXXXXXXX    XXXXXXXXXXXXXX.            ",
"      XXXXXXXXXXXXXXXXXXXXXXXXXXXXX     XXXXXXXXXXXXXX      XXXXXXXXX    XXXXXXXXXXXXXX.    XXXXXXXXXX                                 XXXXXXXXXXXXXXX      XXXXXXXXXXX    XXXXXXXXXXXXXX     XXXXXXXXXXXXXX    XXXXXXXXXXX    XXXXXXXXXXXXXX.            ",
"        XXXXXXXXXXXXXXXXXXXXXXXXX       XXXXXXXXXXXXXX      XXXXXXXXX    XXXXXXXXXXXXXX.    XXXXXXXXXX                                 XXXXXXXXXXXXXXX      XXXXXXXXXXX    XXXXXXXXXXXXXX     XXXXXXXXXXXXXX    XXXXXXXXXXX    XXXXXXXXXXXXXX.            ",
"        XXXXXXXXXXXXXXXXXXXXXXXXX       XXXXXXXXXXXXXX      XXXXXXXXX    XXXXXXXXXXXXXX.    XXXXXXXXXX                                 XXXXXXXXXXXXXXX      XXXXXXXXXXX    XXXXXXXXXXXXXX     XXXXXXXXXXXXXX    XXXXXXXXXXX    XXXXXXXXXXXXXX.            ",
"        XXXXXXXXXXXXXXXXXXXXXXXXX       XXXXXXXXXXXXXX      XXXXXXXXX    XXXXXXXXXXXXXX.    XXXXXXXXXX                                 XXXXXXXXXXXXXXX      XXXXXXXXXXX    XXXXXXXXXXXXXX     XXXXXXXXXXXXXX    XXXXXXXXXXX    XXXXXXXXXXXXXX.            ",
"          XXXXXXXXXXXXXXXXXXXXX         XXXXXXXXXXXXXX      XXXXXXXXX    XXXXXXXXXXXXXX.    XXXXXXXXXX                                 XXXXXXXXXXXXXXX      XXXXXXXXXXX    XXXXXXXXXXXXXX     XXXXXXXXXXXXXXXX  XXXXXXXXXXX    XXXXXXXXXXXXXX.            ",
"          XXXXXXXXXXXXXXXXXXXXX         XXXXXXXXXXXXXX      XXXXXXXXX    XXXXXXXXXXXXXX.    XXXXXXXXXX                                 XXXXXXXXXXXXXXX      XXXXXXXXXXX    XXXXXXXXXXXXXX     XXXXXXXXXXXXXXXX  XXXXXXXXXXX    XXXXXXXXXXXXXX.            ",
"          XXXXXXXXXXXXXXXXXXXXX         XXXXXXXXXXXXXX      XXXXXXXXX    XXXXXXXXXXXXXX.    XXXXXXXXXX                                 XXXXXXXXXXXXXXX      XXXXXXXXXXX    XXXXXXXXXXXXXX     XXXXXXXXXXXXXXXX  XXXXXXXXXXX    XXXXXXXXXXXXXX.            ",
"            .XXXXXXXXXXXXXXXX           XXXXXXXXXXXXXX      XXXXXXXXX    XXXXXXXXXXXXXX.    XXXXXXXXXX                                 XXXXXXXXXXXXXXX  XX  XXXXXXXXXXX    XXXXXXXXXXXXXX     XXXXXXXXXXXXXXXXXXXXXXXXXXXXX      XXXXXXXXXX               ",
"            .XXXXXXXXXXXXXXXX           XXXXXXXXXXXXXX      XXXXXXXXX    XXXXXXXXXXXXXX.    XXXXXXXXXX                                 XXXXXXXXXXXXXXX  XX  XXXXXXXXXXX    XXXXXXXXXXXXXX     XXXXXXXXXXXXXXXXXXXXXXXXXXXXX      XXXXXXXXXX               ",
"            .XXXXXXXXXXXXXXXX           XXXXXXXXXXXXXX      XXXXXXXXX    XXXXXXXXXXXXXX.    XXXXXXXXXX                                 XXXXXXXXXXXXXXX  XX  XXXXXXXXXXX    XXXXXXXXXXXXXX     XXXXXXXXXXXXXXXXXXXXXXXXXXXXX      XXXXXXXXXX               ",
"               XXXXXXXXXXXX             XXXXXXXXXXXXXX      XXXXXXXXX    XXXXXXXXXXXXXX.    XXXXXXXXXX                                 XXXXXXXXXXXXXXXXXXXXXXXXXXXXXXXX    XXXXXXXXXXXXXX     XXXXXXXXXXXXXXXXXXXXXXXXXXXXX      XXXXXXXXXX               ",
"               XXXXXXXXXXXX             XXXXXXXXXXXXXX      XXXXXXXXX    XXXXXXXXXXXXXX.    XXXXXXXXXX                                 XXXXXXXXXXXXXXXXXXXXXXXXXXXXXXXX    XXXXXXXXXXXXXX     XXXXXXXXXXXXXXXXXXXXXXXXXXXXX      XXXXXXXXXX               ",
"               XXXXXXXXXXXX             XXXXXXXXXXXXXX      XXXXXXXXX    XXXXXXXXXXXXXX.    XXXXXXXXXX                                 XXXXXXXXXXXXXXXXXXXXXXXXXXXXXXXX    XXXXXXXXXXXXXX     XXXXXXXXXXXXXXXXXXXXXXXXXXXXX      XXXXXXXXXX               ",
"               XXXXXXXXXXXX             XXXXXXXXXXXXXX      XXXXXXXXX    XXXXXXXXXXXXXX.    XXXXXXXXXX                                 XXXXXXXXXXXXXXXXXXXXXXXXXXXXXXXX    XXXXXXXXXXXXXX     XXXXXXXXXXXXXXXXXXXXXXXXXXXXX        XXXXXX                 ",
"               XXXXXXXXXXXX             XXXXXXXXXXXXXX      XXXXXXXXX    XXXXXXXXXXXXXX.    XXXXXXXXXX                                 XXXXXXXXXXXXXXXXXXXXXXXXXXXXXXXX    XXXXXXXXXXXXXX     XXXXXXXXXXXXXXXXXXXXXXXXXXXXX        XXXXXX                 ",
"               XXXXXXXXXXXX             XXXXXXXXXXXXXX      XXXXXXXXX    XXXXXXXXXXXXXX.    XXXXXXXXXX                                 XXXXXXXXXXXXXXXXXXXXXXXXXXXXXXXX    XXXXXXXXXXXXXX     XXXXXXXXXXXXXXXXXXXXXXXXXXXXX        XXXXXX                 ",
"               XXXXXXXXXXXX             XXXXXXXXXXXXXX      XXXXXXXXX    XXXXXXXXXXXXXX.    XXXXXXXXXX                                 XXXXXXXXXXXXXXXXXXXXXXXXXXXXXXXX    XXXXXXXXXXXXXX     XXXXXXXXXXXXXXXXXXXXXXXXXXXXX                               ",
"               XXXXXXXXXXXX             XXXXXXXXXXXXXX      XXXXXXXXX    XXXXXXXXXXXXXX.    XXXXXXXXXX                                 XXXXXXXXXXXXXXXXXXXXXXXXXXXXXXXX    XXXXXXXXXXXXXX     XXXXXXXXXXXXXXXXXXXXXXXXXXXXX                               ",
"               XXXXXXXXXXXX             XXXXXXXXXXXXXX      XXXXXXXXX    XXXXXXXXXXXXXX.    XXXXXXXXXX                                 XXXXXXXXXXXXXXXXXXXXXXXXXXXXXXXX    XXXXXXXXXXXXXX     XXXXXXXXXXXXXXXXXXXXXXXXXXXXX                               ",
"               XXXXXXXXXXXX             XXXXXXXXXXXXXX      XXXXXXXXX    XXXXXXXXXXXXXX.    XXXXXXXXXX                                 XXXXXXXXXXXXXXXXXXXXXXXXXXXXXXXX    XXXXXXXXXXXXXX     XXXXXXXXXXXXXX  XXXXXXXXXXXXX        XXXXXX                 ",
"               XXXXXXXXXXXX             XXXXXXXXXXXXXX      XXXXXXXXX    XXXXXXXXXXXXXX.    XXXXXXXXXX                                 XXXXXXXXXXXXXXXXXXXXXXXXXXXXXXXX    XXXXXXXXXXXXXX     XXXXXXXXXXXXXX  XXXXXXXXXXXXX        XXXXXX                 ",
"               XXXXXXXXXXXX             XXXXXXXXXXXXXX      XXXXXXXXX    XXXXXXXXXXXXXX.    XXXXXXXXXX                                 XXXXXXXXXXXXXXXXXXXXXXXXXXXXXXXX    XXXXXXXXXXXXXX     XXXXXXXXXXXXXX  XXXXXXXXXXXXX        XXXXXX                 ",
"               XXXXXXXXXXXX             XXXXXXXXXXXXXXXXXXXXXXXXXXXXX    XXXXXXXXXXXXXXXXXXXXXXXXXXXXX                                 XXXXXXXXXXXXXXXXXXXXXXXXXXXXXXXX    XXXXXXXXXXXXXX     XXXXXXXXXXXXXX    XXXXXXXXXXX      XXXXXXXXXX               ",
"               XXXXXXXXXXXX             XXXXXXXXXXXXXXXXXXXXXXXXXXXXX    XXXXXXXXXXXXXXXXXXXXXXXXXXXXX                                 XXXXXXXXXXXXXXXXXXXXXXXXXXXXXXXX    XXXXXXXXXXXXXX     XXXXXXXXXXXXXX    XXXXXXXXXXX      XXXXXXXXXX               ",
"               XXXXXXXXXXXX             XXXXXXXXXXXXXXXXXXXXXXXXXXXXX    XXXXXXXXXXXXXXXXXXXXXXXXXXXXX                                 XXXXXXXXXXXXXXXXXXXXXXXXXXXXXXXX    XXXXXXXXXXXXXX     XXXXXXXXXXXXXX    XXXXXXXXXXX      XXXXXXXXXX               ",
"               XXXXXXXXXXXX             XXXXXXXXXXXXXXXXXXXXXXXXXXXXX    XXXXXXXXXXXXXXXXXXXXXXXXXXXXX                                 XXXXXXXXXXXXXXXXX  XXXXXXXXXXXXX    XXXXXXXXXXXXXX     XXXXXXXXXXXXXX    XXXXXXXXXXX      XXXXXXXXXX               ",
"               XXXXXXXXXXXX             XXXXXXXXXXXXXXXXXXXXXXXXXXXXX    XXXXXXXXXXXXXXXXXXXXXXXXXXXXX                                 XXXXXXXXXXXXXXXXX  XXXXXXXXXXXXX    XXXXXXXXXXXXXX     XXXXXXXXXXXXXX    XXXXXXXXXXX      XXXXXXXXXX               ",
"               XXXXXXXXXXXX             XXXXXXXXXXXXXXXXXXXXXXXXXXXXX    XXXXXXXXXXXXXXXXXXXXXXXXXXXXX                                 XXXXXXXXXXXXXXXXX  XXXXXXXXXXXXX    XXXXXXXXXXXXXX     XXXXXXXXXXXXXX    XXXXXXXXXXX      XXXXXXXXXX               ",
"               XXXXXXXXXXXX               XXXXXXXXXXXXXXXXXXXXXXXXX        XXXXXXXXXXXXXXXXXXXXXXXXX                                   XXXXXXXXXXXXXXX      XXXXXXXXXXX    XXXXXXXXXXXXXX     XXXXXXXXXXXXXX    XXXXXXXXXXX      XXXXXXXXXX               ",
"               XXXXXXXXXXXX               XXXXXXXXXXXXXXXXXXXXXXXXX        XXXXXXXXXXXXXXXXXXXXXXXXX                                   XXXXXXXXXXXXXXX      XXXXXXXXXXX    XXXXXXXXXXXXXX     XXXXXXXXXXXXXX    XXXXXXXXXXX      XXXXXXXXXX               ",
"               XXXXXXXXXX..               ..XXXXXXXXXXXXXXXXXXXXX..        ..XXXXXXXXXXXXXXXXXXXXX..                                    .XXXXXXXXXXX..      ..XXXXXXX..    ..XXXXXXXXXX..     ..XXXXXXXXXX..    ..XXXXXXX..      ..XXXXXX..               ",
"                 XXXXXXXX                   XXXXXXXXXXXXXXXXXXXXX            XXXXXXXXXXXXXXXXXXXXX                                       .XXXXXXXXXX          XXXXXXX        XXXXXXXXXX         XXXXXXXXXX        XXXXXXX          XXXXXX                 ",
"                 XXXXXXXX                   XXXXXXXXXXXXXXXXXXXXX            XXXXXXXXXXXXXXXXXXXXX                                       .XXXXXXXXXX          XXXXXXX        XXXXXXXXXX         XXXXXXXXXX        XXXXXXX          XXXXXX                 ",
"                                                                                                                                                                                                                                                          ",
"                                                                                                                                                                                                                                                          ",
"                                                                                                                                                                                                                                                          ",
"                                                                                                                                                                                                                                                          ",
"                                                                                                                                                                                                                                                          ",
"                                                                                                                                                                                                                                                          ",
"                                                                                                                                                                                                                                                          ",
"                                                                                                                                                                                                                                                          ",
"                                                                                                                                                                                                                                                          ",
"                                                                                                                                                                                                                                                          ",
"                                                                                                                                                                                                                                                          ",
"                                                                                                                                                                                                                                                          ",
"                                                                                                                                                                                                                                                          ",
"                                                                                                                                                                                                                                                          ",
"                                                                                                                                                                                                                                                          "
};
