/* XPM */
static char *result[] = {
/* columns rows colors chars-per-pixel */
"34 50 108 2 ",
"   c #03494F",
".  c #054D53",
"X  c #0B4F54",
"o  c #075157",
"O  c #05545A",
"+  c #0C565D",
"@  c #0C5A60",
"#  c #1C676C",
"$  c #0F6C73",
"%  c #09737B",
"&  c #14767D",
"*  c #1E757A",
"=  c #1F787D",
"-  c #25777D",
";  c #26787E",
":  c #0C7C84",
">  c #1C7D85",
",  c #0C868E",
"<  c #1D898F",
"1  c #158D95",
"2  c #1D939A",
"3  c #2E9194",
"4  c #22979E",
"5  c #22989F",
"6  c #2D989D",
"7  c #319599",
"8  c #349B9F",
"9  c #269CA3",
"0  c #369EA2",
"q  c #389FA3",
"w  c #2DA2A9",
"e  c #37A1A5",
"r  c #39A1A5",
"t  c #33A4AA",
"y  c #3EA5A9",
"u  c #33A8AD",
"i  c #3EA9AF",
"p  c #36AAB0",
"a  c #3DAEB4",
"s  c #3EB1B6",
"d  c #439EA2",
"f  c #40A7AB",
"g  c #42AAAD",
"h  c #46ADB1",
"j  c #48AFB3",
"k  c #43B0B7",
"l  c #4AB2B5",
"z  c #42B4BA",
"x  c #4EB5B9",
"c  c #50B7BB",
"v  c #52BABD",
"b  c #4BBCC1",
"n  c #56BDC1",
"m  c #58BFC3",
"M  c #5BC2C5",
"N  c #54C3C8",
"B  c #5EC6C9",
"V  c #5AC9CD",
"C  c #5DCCD0",
"Z  c #61C7CB",
"A  c #69C7CC",
"S  c #63CACD",
"D  c #66CED1",
"F  c #68CFD2",
"G  c #7CCED2",
"H  c #65D2D6",
"J  c #6BD2D5",
"K  c #67D4D8",
"L  c #6DD5D9",
"P  c #6FDBDF",
"I  c #71D7DA",
"U  c #79D4D8",
"Y  c #73DADD",
"T  c #75DDE1",
"R  c #78DFE1",
"E  c #75E0E3",
"W  c #7AE2E5",
"Q  c #7DE6E9",
"!  c #7FE8EB",
"~  c #8AD6DA",
"^  c #9DD9DC",
"/  c #80E5E7",
"(  c #80E7E9",
")  c #89E6E9",
"_  c #82EAED",
"`  c #9AE4E7",
"'  c #87EFF2",
"]  c #89EFF2",
"[  c #8CF3F5",
"{  c #8FF5F8",
"}  c #90F6F6",
"|  c #91F7F8",
" . c #94FAFC",
".. c #AAE9EB",
"X. c #AFF0F2",
"o. c #B3F1F2",
"O. c #C4F1F2",
"+. c #C5FEFF",
"@. c #CCFEFF",
"#. c #D7F3F4",
"$. c #D4FEFF",
"%. c #DCFEFF",
"&. c #E4F6F6",
"*. c #E5FFFF",
"=. c #EBFFFF",
"-. c #F3FEFE",
";. c #FBFFFF",
":. c None",
/* pixels */
":.:.:.:.:.:.:.:.I :.:.:.:.:.:.:.:.:.:.:.:.:.:.:.:.:.:.:.:.:.:.:.:.:.",
":.:.:.:.:.:.:.:.Z n :.:.:.:.:.:.:.:.:.:.:.:.:.:.:.:.:.:.:.:.:.:.:.:.",
":.:.:.:.:.:.:.:.v l h :.:.:.:.:.:.:.:.:.:.:.:.:.:.:.:.:.:.:.:.:.:.:.",
":.:.:.:.:.:.:.x h g y h :.:.:.:.:.:.:.:.:.:.:.:.:.:.:.:.:.:.:.:.:.:.",
":.:.:.:.:.:.:.g g y r r :.:.:.:.:.:.:.:.:.:.:.:.:.:.:.:.:.:.:.:.:.:.",
":.:.:.:.:.:.:.y r r r 0 k :.:.:.:.:.:.:.:.:.:.:.:.:.:.:.:.:.:.:.:.:.",
":.:.:.:.:.:.:.r r 0 0 0 0 :.:.:.:.:.:.:.:.:.:.:.:.:.:.:.:.:.:.:.:.:.",
":.:.:.:.:.:.x r 0 0 0 0 0 :.:.:.:.:.:.:.:.:.:.:.:.:.:.:.:.:.:.:.:.:.",
":.:.:.:.:.:.0 0 0 0 0 0 r r :.:.:.:.:.:.:.:.:.:.:.:.:.:.:.:.:.:.:.:.",
":.:.:.:.:.:.0 0 0 0 0 r r f g :.:.:.:.:.:.:.:.:.:.:.:.:.:.:.:.:.:.:.",
":.:.:.:.:.:.0 0 0 r y y y h j :.:.:.:.:.:.:.:.:.:.:.:.:.:.:.:.:.:.:.",
":.:.:.:.:.:.0 r r y g g h l x :.:.:.:.:.:.:.:.:.:.:.:.:.:.:.:.:.:.:.",
":.:.:.:.:.:.r y g g h l l x v :.:.:.:.:.:.:.:.:.:.:.:.:.:.:.:.:.:.:.",
":.:.:.:.:.:.f g h l x x v v n :.:.:.:.:.:.:.:.:.:.:.:.:.:.:.:.:.:.:.",
":.:.:.:.:.:.B r l x c v n m M :.:.:.:.:.:.:.:.:.:.:.:.L :.:.:.:.:.:.",
":.:.:.:.:.v f 0 x v n n M M Z :.:.:.:.:.:.:.:.:.:.:.x M :.:.:.:.:.:.",
":.:.:.:.:.v 0 0 v m M M Z Z Z :.:.:.:.:.:.:.:.:.:.:.y h :.:.:.:.:.:.",
":.:.:.:.W r 0 x m M Z Z S D F :.:.:.:.:.:.:.:.:.:.4 r r g :.:.:.:.:.",
":.:.:.:.j 0 0 M Z Z Z S D l J :.:.:.:.:.:.:.:.:.:.4 f r r :.g :.:.:.",
":.:.:.D r 0 g Z Z S F F J J I :.:.:.:.:.:.:.:.:.:.l g g y r 0 e :.:.",
":.:.:.g 0 r Z S F F J J L I :.:.:.:.:.:.:.:.:.:.:.x l h g g y r :.:.",
":.:.:.r 0 g S Z F J I I Y Y :.:.:.:.:.:.:.:.:.:.:.:.v x l j g y y :.",
":.:.f 6 r l m M I I I Y R :.:.p s s s s u :.:.:.:.:.n v x x l h g :.",
":.:.0 0 g v B F I Y Y Y L 1 1 1 1 1 1 2 1 1 1 :.:.:.:.M n v c l l :.",
":.:.0 y l M S J Y R R a , , , , , , , , , , , , :.S :.:.M m v v x :.",
":.  - h v v H L R R a , , , , , , , , , , , , , S F S :.Z B B v v x ",
";   O t M S L Y W J 1 1 1 a @.1 2 1 1 1 @.+.1 1 L L J D S Z Z M * n ",
"- X O n B F I W W 9 9 2 9 @.%.4 9 4 9 4 9 $.h 4 z I L J L D S 7 * + ",
"-   O M S L Y Q Y w w +.w %.*.w w w w 9 w %.$.+.w Y Y I L J D 3 * + ",
"-   O Z J r W ( z p u @.s *.=.p u p p p ^ =.*.$.u s T Y I I J J * . ",
"-   O & , R / ( z z s $.%.=.-.s z s z z -.=.G $.z z N R Y Y I I L D ",
"-   O < 1 Q ( ( b b +...*.=.-.;.b c b -.-.A =.$.` v v W W R Y I I :.",
":.  O % 1 9 B ' N N +.%.%.=.-.~ &.N ;.B ;.-.=.B @.N N H W W 8 * I :.",
":.  O % 1 4 _ { C V +.$.*.=.-.U ;.C ;.F #.-.*.%.@.C C V Q Q - o :.:.",
":.. O % 1 2 [ { P K K $.*.=.O.H ;.;.I K K =.*.%.K K K _ ) _ L : :.:.",
":.:.O % 1 2 Q | [ P P P P P P Y ;.-.;.P P P Y P Y P P ] ] _ , @ :.:.",
":.:.# % 1 2 u | { W W W E W W ) W -.o.X.W W W W W W [ [ ' 2 $ :.:.:.",
":.:.:.% 1 9 w s ' { ! ! ! ! _ _ *.*.*.*.! ! ! ! ! { { [ w : :.:.:.:.",
":.:.:.:.1 9 w s b  .Q ' ' ' ' ' %.' $.' ' ' ' ' ! { { | 1 :.:.:.:.:.",
":.:.:.:.:.2 w s C K  .:.{ { { { { @.{ { { | { { [  .b 9 > :.:.:.:.:.",
":.:.:.:.:.:.w a b V H :.:. . . . . . . . . .|  .W V u 1 :.:.:.:.:.:.",
":.:.:.:.:.:.t k b V P P :.:.:.:. . . . .:.:.:.{ K b d :.:.:.:.:.:.:.",
":.:.:.:.:.:.:.:.:.V K T Q :.:.:.:.:.:.:.:.:.:.W N :.:.:.:.:.:.:.:.:.",
":.:.:.:.:.:.:.:.:.:.K T Q [ :.:.:.:.:.:.:.:.:.K :.:.:.:.:.:.:.:.:.:.",
":.:.:.:.:.:.:.:.:.:.:.I ! ' { :.:.:.:.:.:.:.:.N :.:.:.:.:.:.:.:.:.:.",
":.:.:.:.:.:.:.:.:.:.:.:.:.[ | :.:.:.:.' ' _ :.:.:.:.:.:.:.:.:.:.:.:.",
":.:.:.:.:.:.:.:.:.:.:.:.:.:.| :.:.:.K K _ :.:.:.:.:.:.:.:.:.:.:.:.:.",
":.:.:.:.:.:.:.:.:.:.:.:.:.:.| :.:.:.z z z :.:.:.:.:.:.:.:.:.:.:.:.:.",
":.:.:.:.:.:.:.:.:.:.:.:.:.:.:.:.:.:.2 4 :.:.:.:.:.:.:.:.:.:.:.:.:.:.",
":.:.:.:.:.:.:.:.:.:.:.:.:.:.:.:.:.:.1 :.:.:.:.:.:.:.:.:.:.:.:.:.:.:."
};
