/* XPM */
static char *result[] = {
/* columns rows colors chars-per-pixel */
"50 50 196 2 ",
"   c #010101",
".  c #060A0A",
"X  c #0A0C0C",
"o  c #080604",
"O  c #130D0D",
"+  c #0A0E10",
"@  c #070D10",
"#  c #0D1212",
"$  c #0D181A",
"%  c #091415",
"&  c #121415",
"*  c #131B1C",
"=  c #1D1A18",
"-  c #221A1A",
";  c #24231F",
":  c #0E1F24",
">  c #111E23",
",  c #1C2223",
"<  c #1E2A2B",
"1  c #1A202C",
"2  c #172D39",
"3  c #1B3637",
"4  c #242326",
"5  c #22292A",
"6  c #2A2C2B",
"7  c #342D29",
"8  c #333029",
"9  c #252E31",
"0  c #332D35",
"q  c #2C3334",
"w  c #2C3738",
"e  c #2D383A",
"r  c #243738",
"t  c #323535",
"y  c #313738",
"u  c #313B3B",
"i  c #3E3531",
"p  c #511F1F",
"a  c #423737",
"s  c #4A423E",
"d  c #233342",
"f  c #383B43",
"g  c #203F55",
"h  c #1B4141",
"j  c #1A5C5C",
"k  c #23464D",
"l  c #364244",
"z  c #3A4646",
"x  c #3A474A",
"c  c #3E4C4E",
"v  c #3F4E50",
"b  c #2F4C4F",
"n  c #31556D",
"m  c #355B72",
"M  c #1E6966",
"N  c #206763",
"B  c #3E6365",
"V  c #3B6668",
"C  c #39686B",
"Z  c #376A6E",
"A  c #3B6D70",
"S  c #376977",
"D  c #2F767A",
"F  c #2C797D",
"G  c #337174",
"H  c #3A777A",
"J  c #404D4E",
"K  c #4C4C4A",
"L  c #4D4845",
"P  c #524A45",
"I  c #5A4742",
"U  c #414E51",
"Y  c #4E4A52",
"T  c #445355",
"R  c #475658",
"E  c #48575A",
"W  c #445A5C",
"Q  c #4B5B5D",
"!  c #4B5351",
"~  c #7D5D4C",
"^  c #625B53",
"/  c #4E6552",
"(  c #405F61",
")  c #4E5E61",
"_  c #585275",
"`  c #4D6062",
"'  c #456164",
"]  c #516263",
"[  c #576A6B",
"{  c #5A6C6E",
"}  c #496B76",
"|  c #5B6E70",
" . c #5D7172",
".. c #527E7E",
"X. c #6F6B64",
"o. c #7D7C77",
"O. c #924545",
"+. c #9B694F",
"@. c #9C6D55",
"#. c #857C70",
"$. c #C95959",
"%. c #C28303",
"&. c #C98702",
"*. c #CA8901",
"=. c #D08E03",
"-. c #89827A",
";. c #988B7F",
":. c #AD8F7B",
">. c #B78270",
",. c #A58A6D",
"<. c #D48F73",
"1. c #D1967D",
"2. c #2E6D83",
"3. c #2B7D81",
"4. c #377992",
"5. c #357087",
"6. c #625B82",
"7. c #4B6C80",
"8. c #5A7E8F",
"9. c #4C738A",
"0. c #696687",
"q. c #777694",
"w. c #2C8687",
"e. c #348D8D",
"r. c #31A29E",
"t. c #4E8197",
"y. c #5B879A",
"u. c #488485",
"i. c #4F9DA3",
"p. c #458DA5",
"a. c #668EA0",
"s. c #789AAC",
"d. c #7F9FB0",
"f. c #6E94A5",
"g. c #58A6AB",
"h. c #60B0B4",
"j. c #63BCC1",
"k. c #69CBCE",
"l. c #65C4C8",
"z. c #6ACCD0",
"x. c #8C8581",
"c. c #9A8987",
"v. c #9E9F98",
"b. c #A08C81",
"n. c #A6988B",
"m. c #A69B92",
"M. c #8EA98C",
"N. c #92B698",
"B. c #8492A0",
"V. c #82A1B1",
"C. c #8AA6B7",
"Z. c #9DBCA6",
"A. c #A1A3A3",
"S. c #B7B2B0",
"D. c #CA9A86",
"F. c #CDA084",
"G. c #C9B196",
"H. c #E4A382",
"J. c #C3B5A9",
"K. c #ADD8B6",
"L. c #D4CABC",
"P. c #A3BBC6",
"I. c #93D8DA",
"U. c #ADC1CB",
"Y. c #B7F3C7",
"T. c #A2EDEF",
"R. c #D2D1CC",
"E. c #E5DDCD",
"W. c #E3D7C1",
"Q. c #E4D6D5",
"!. c #F2D6C8",
"~. c #FCE4CE",
"^. c #E2E0D5",
"/. c #FBE6D1",
"(. c #FCEAD5",
"). c #FCEEDB",
"_. c #F4ECDB",
"`. c #FCF2DE",
"'. c #F4F0DD",
"]. c #C0D1E7",
"[. c #D5DEE6",
"{. c #DBDEE0",
"}. c #EAEDE8",
"|. c #F5EFE1",
" X c #FDEFE1",
".X c #F3EFEB",
"XX c #FEF5E5",
"oX c #F3F1ED",
"OX c #FCF6EB",
"+X c #FEFAEB",
"@X c #F5F3E4",
"#X c #ECF0F3",
"$X c #FFFCF3",
"%X c #FEFEFD",
"&X c #F7F5F2",
"*X c None",
/* pixels */
"*X*X*X*X*X*X*X*X*X*X*X*X*X*X*X*X*X*X*X*X*X*X*X*X      *X*X*X*X*X*X*X*X*X*X*X*X*X*X*X*X*X*X*X*X*X*X*X",
"*X*X*X*X*X*X*X*X*X*X*X*X*X*X*X*X*X*X*X*X*X*X*X  v x x w   *X*X*X*X*X*X*X*X*X*X*X*X*X*X*X*X*X*X*X*X*X",
"*X*X*X*X*X*X*X*X*X*X*X*X*X*X*X*X*X*X*X*X*X*X*X*X  . z x x   *X*X*X*X*X*X*X*X*X*X*X*X*X*X*X*X*X*X*X*X",
"*X*X*X*X*X*X*X*X*X*X*X*X*X*X*X*X*X*X*X*X*X*X*X*X*X*X  x x x   *X*X*X*X*X*X*X*X*X*X*X*X*X*X*X*X*X*X*X",
"*X*X*X*X*X*X*X*X*X*X*X*X*X*X*X*X*X*X*X*X*X*X*X*X*X*X*X  c c # *X*X*X*X*X*X*X*X*X*X*X*X*X*X*X*X*X*X*X",
"*X*X*X*X*X*X*X*X*X*X*X*X*X*X*X*X*X*X*X*X*X*X*X*X*X*X*X*XT x z *X*X*X*X*X*X*X*X*X*X*X*X*X*X*X*X*X*X*X",
"*X*X*X*X*X*X*X*X*X*X*X*X*X    *X*X*X*X*X*X*X  & U U v T   c # *X*X*X*X*X*X*X*X*X*X*X*X*X*X*X*X*X*X*X",
"*X*X*X*X*X*X*X*X*X*X*X*X*X  U l * + # # z v c c c c c c * c 4   *X*X*X*X*X*X*X*X*X*X*X*X*X*X*X*X*X*X",
"*X*X*X*X*X*X*X*X*X*X*X*X*X  R c c v v T c c c v c v c c . X . T U T c     *X*X*X*X*X*X*X*X*X*X*X*X*X",
"*X*X*X*X*X*X*X*X*X*X*X*X*X*X  @ l R R R 9 l v v U U T z c v c c v U c v U   *X*X*X*X*X*X*X*X*X*X*X*X",
"*X*X*X*X*X*X*X*X*X*X*X*X*X  o U U v v T v v f v * T T T v T T c U U v v U U w *X*X*X*X*X*X*X*X*X*X*X",
"*X*X*X*X*X*X*X*X*X*X*X*X  T v J  .[ v T T v T # 9 T T T 9 u c T U U T T T U T X *X*X*X*X*X*X*X*X*X*X",
"*X*X*X*X*X*X*X*X*X*X*X  R U T | [ U T v v T v v T v v v  .c o T U T v v T v T U   *X*X*X*X*X*X*X*X*X",
"*X*X*X*X*X*X      5 R T U T  .| T T T T U T T T T T T T  .| v @ T T T T T T T U T *X*X*X*X*X*X*X*X*X",
"*X*X*X*X*X*X  T T T T T T Q  . .U T T U T U T T T U T [  . .{ T R T T U T U U T T   *X*X*X*X*X*X*X*X",
"*X*X*X*X*X*X*X    U E z T |  . .T   T T T T T T T T  . . .{ T T   T T T T T T T T T *X*X*X*X*X*X*X*X",
"*X*X*X*X*X*X*X*X*X*X  T T T [ T $ g.+ T T w [ T v  .T |  .T T T T Q T T R T R T T T   *X*X*X*X*X*X*X",
"*X*X*X*X*X*X*X*X*X  Q T T T T T l.h.k Q j.3 v  . . .T T T T R T T ) ) T T T T T T R T 5     *X*X*X*X",
"*X*X*X*X*X*X*X*X*X  R R Q T T z +X; i h.i.g.T T R R T R T R T R R T )   Q E R R R T R R R T   *X*X*X",
"*X*X*X*X*X*X*X*X*X  T R 5 T T ; ).`.`.XX#.u.T R R R R T R R T R R T R T R R X R R T T w Q   *X*X*X*X",
"*X*X*X*X*X*X*X*X*Xe T T . T T oX).).).).).+XR R ] T T R T T R R / ` R R ) . R R R R R o *X*X*X*X*X*X",
"*X*X*X*X*X*X*X*X*Xz E T * R ` XX).).).).).$XR R / R E T w T R R R W ' c ) R R R R R R   *X*X*X*X*X*X",
"*X*X*X*X*X*X*X*X  ) T z # R l ).).).Q.`.).+XR R e E R W q W W ' / m W m 3 U E R R R R   *X*X*X*X*X*X",
"*X*X*X*X*X*X*X*X, R ) R   R . ).).`.Q.(.).v.R R   E R T ~ ' ( B B B B C C G = R R R R *X*X*X*X*X*X*X",
"*X*X*X*X*X*X  T R R   R w T o ).)._.).).(.. E T L.R R W L < B V Z Z Z G D F e.T R R R *X*X*X*X*X*X*X",
"*X*X*X*X*X) R R R Q Q T - ` . X.).).).).(.] R X &XR R W . XX$ A A G G F F 3.3.Q R R R   *X*X*X*X*X*X",
"*X*X*X*X*X  c Q R 5 R E +X7 > (.).).).).-.R ] %XXXQ R W ' ).^ k.k.k.# c # w.3.E R R R Q   *X*X*X*X*X",
"*X*X*X*X*X*X*X*X  R R   O.!.u @X).).).OX[ / .X`.$Xo R R R Q.$Xk.j.j.k.W T ] w.Q R R R T )   *X*X*X*X",
"*X*X*X*X*X*X*X  T T * 5 L P $.(.(.).).@ = +X).(.(.oXT T R   $Xc l.j.j.h R R j R R Q ) R R T , *X*X*X",
"*X*X*X*X*X  T R Q   y t A.=.f i ).).).).).XXW.G.~./.o R R ` 8 R W H l.h.l.J R R R R         *X*X*X*X",
"*X*X*X*X*X*X      *Xq ] %X%.%.%XOX).).).).O a X o p $.l R R   R T T Q z l R E R R R R   *X*X*X*X*X*X",
"*X*X*X*X*X*X*X*X*X*Xf e ~.&.&.%X).).).).)..X&.&.&.a P s r T R z # ;.;., R R T o R R R R ,   *X*X*X*X",
"*X*X*X*X*X*X*X*X*X*X) @ ~.}.d %X).).).).).{.%.%.%.  %X  XXX ] R oX`.).XXE T E T   c ` Q   *X*X*X*X*X",
"*X*X*X*X*X*X*X*X*X  R * /./.(.(.).).).).). X=.%.%.#X%X`.).(.`.E.L.oXL ).q q q Q J *X*X*X*X*X*X*X*X*X",
"*X*X*X*X*X*X*X*X*X# Q ] XX(.(.`.+X`.(.).).(.(./.OX X~./.(.(.).J.D.).`.XX  *       *X*X*X*X*X*X*X*X*X",
"*X*X*X*X*X*X*X*X  Q   v w }.(.`.(.).`.).).(.(././././.~.(.(.(.E.+X).).. R f   *X*X*X*X*X*X*X*X*X*X*X",
"*X*X*X*X*X*X*X*X*X*X*X  l q @ ^.).).).).(.(.(.(./.~.~.~.(.#.XXXX+Xn...I.&   *X*X*X*X*X*X*X*X*X*X*X*X",
"*X*X*X*X*X*X*X*X*X*X*X*X  6 6 h 6 o v.'.+XOXXXXX+XE.-.  t q t y X   > I.T.    *X*X*X*X*X*X*X*X*X*X*X",
"*X*X*X*X*X*X*X*X*X*X*X*X*X  q N w & c F.K ,.O - o y c T ! Q X q y *X*X  } ..  *X*X*X*X*X*X*X*X*X*X*X",
"*X*X*X*X*X*X*X*X*X*X*X*X*X*Xt N   M.:.    Y o 1 ) ] x M J U     y X *X*X*X*X*X*X*X*X*X*X*X*X*X*X*X*X",
"*X*X*X*X*X*X*X*X*X*X*X*X*X*X& y K._.@.m.b.Y + x.  w.r.U ] %X  *X*X  *X*X*X*X*X*X*X*X*X*X*X*X*X*X*X*X",
"*X*X*X*X*X*X*X*X*X*X*X*X*X*X  X |.4 f I R.f & Y T R Q   & Y.> *X*X*X*X*X*X*X*X*X*X*X*X*X*X*X*X*X*X*X",
"*X*X*X*X*X*X*X*X*X*X*X*X*X*X& ).oXi 0 H.9 S.n 5.2 o . = K Z.].B.  *X*X*X*X*X*X*X*X*X*X*X*X*X*X*X*X*X",
"*X*X*X*X*X*X*X*X*X*X*X*X*X*XR.+X} 9.@.V.C.C.g g > :./ K.N.o   q.0.*X*X*X*X*X*X*X*X*X*X*X*X*X*X*X*X*X",
"*X*X*X*X*X*X*X*X*X*X*X*X*X*X8 y.7.m 1.f.s.d.P.[..XK o       0.0.q.*X*X*X*X*X*X*X*X*X*X*X*X*X*X*X*X*X",
"*X*X*X*X*X*X*X*X*X*X*X*X*X*X*Xo 2 n <.a.a.f.V.U.[.#XS.m.  0.6._   *X*X*X*X*X*X*X*X*X*X*X*X*X*X*X*X*X",
"*X*X*X*X*X*X*X*X*X*X*X*X*X*X*X*X*X*Xo 4.t.t.y.s.P.#Xb.  *X*X  *X*X*X*X*X*X*X*X*X*X*X*X*X*X*X*X*X*X*X",
"*X*X*X*X*X*X*X*X*X*X*X*X*X*X*X*X*X*X*X@.5.k @ :   *X*X*X*X*X*X*X*X*X*X*X*X*X*X*X*X*X*X*X*X*X*X*X*X*X",
"*X*X*X*X*X*X*X*X*X*X*X*X*X*X*X*X*X*X*X*X  4.2.p.*X*X*X*X*X*X*X*X*X*X*X*X*X*X*X*X*X*X*X*X*X*X*X*X*X*X",
"*X*X*X*X*X*X*X*X*X*X*X*X*X*X*X*X*X*X*X*X*X*X  *X*X*X*X*X*X*X*X*X*X*X*X*X*X*X*X*X*X*X*X*X*X*X*X*X*X*X"
};
