/* XPM */
static char *result[] = {
/* columns rows colors chars-per-pixel */
"100 100 74 1 ",
"  c #363737",
". c #3D3D3D",
"X c #40403E",
"o c #3F3F40",
"O c #3F4040",
"+ c #444444",
"@ c #484746",
"# c #4B4946",
"$ c #474748",
"% c #484748",
"& c #4C4B4B",
"* c #504E4C",
"= c #53514E",
"- c #58544F",
"; c #4F4F50",
": c #4F5050",
"> c #545453",
", c #585654",
"< c #5B5956",
"1 c #585758",
"2 c #5C5C5B",
"3 c #635E57",
"4 c #615E5B",
"5 c #63615E",
"6 c #69645D",
"7 c #646463",
"8 c #696663",
"9 c #676867",
"0 c #6B6966",
"q c #676768",
"w c #686768",
"e c #6C6C6B",
"r c #736D66",
"t c #786F66",
"y c #716E6B",
"u c #797066",
"i c #74716E",
"p c #7A746D",
"a c #6F6F70",
"s c #6F7070",
"d c #747473",
"f c #797672",
"g c #777877",
"h c #7C7975",
"j c #777778",
"k c #787778",
"l c #777878",
"z c #7C7B7A",
"x c #80776F",
"c c #80786F",
"v c #807770",
"b c #827C75",
"n c #817E7A",
"m c #878077",
"M c #888177",
"N c #84817D",
"B c #89837B",
"V c #848383",
"C c #898682",
"Z c #8B8986",
"A c #878788",
"S c #8C8B8B",
"D c #908C87",
"F c #918E8B",
"G c #92918E",
"H c #949493",
"J c #999693",
"K c #9A9997",
"L c #9C9B9B",
"P c #A09E9B",
"I c #A1A09E",
"U c #9F9FA0",
"Y c #A3A3A3",
"T c #A9A9A9",
/* pixels */
"........+&:>>>>>>11>::&&O.O2dgVSSHKKHHAdzzzVVVVa21$&$;27adnVZASGHHHHHKHHGSZCnhdd052>O+&$$;:;::;&$++o",
">277>.+>279egzNVVVzs9212:O$1SHHJHHGFSFZdizCZAGAVz9> $7zHHKKLKKLKJHGGGSFSGSSSSSAzzsa7+$29dzNVVzls92&O",
"eHKLe+&9gezHKLULUULLHSzs5.&20eiidiryyuiyyyy09e0eVa1O:2zzsggdhhzbhffdisieeeyiddzzglze$$7dSLUYYUUHz7:$",
"iFNA7.>7VzNNzjjjlllzVAVl9.:9iiuiihhhhhhppfiiiyiel7>O12e9asdfhhhhffiiiidiiuiuuyehgdze$+qsfgsdjjjd07>+",
"fy8u7O&7dCdfgddddddllzgge.:siiiddhNNBNNBnbfiuihzs51O:qaeihhhhhppfpdphpxppuxuxtphddzq&+0lNh857222a5>+",
"ipfi7+=8eddhglzllllzzzVGsO&sd0esznzzzNNNNnbieiNze7>o>sjdhhhhpiifpfffxppuuxuxxxMCzjNa&OaNGCy77575e7&$",
"fvpf8+:0edfhjjjzzzlzzzVVsO&9e755522<<<227886880075:.1dlliiiipiiipfpxpuuuuccbMMFJVfVe;O9NZCi9270895&+",
"bfih0+&eiideeaddllzNzNVz9O&572111>>>>>>,<468665572:.1sdVseeeiipiuuxxccvbMBDDDBGGhzVq&OqzZCis779777:@",
"hiiii&&sdyy770eaddznNNZN9+@::&$+++$+$$$$::>>>::>>&+.1jsVd9eesssydhbbnNCSGJKHHFAzjzg7>.7zBZpi975772>&",
"huepi&&0e077909qydhnnAFne$.+&&:>22552:&O.OO++O$OO...:ssNgsssdddifznnnnzVCAVzzdedjgq51.7zhNNiy97702>+",
"hyepi>$7e087q7q9eygNZFFni$$ezAGGHHHHAs71+:gzaasld1+.:asjdeesdgdsssssideee000eesda72q1.7dipZGGCzzla>$",
"fpiii>$2709907qq79fBFFDni#&dVHPUUUUHAe7q+:VGVNzzz7$ $7aee9997q7999qq999q999775522270>.5giepzzzznze<+",
"fhyii>+208yye00778yhBBBhi@>efGHJHAVNzd72$:05776777$$+>77752222277272222<>1>>:&&&;>>&+.1iidi09789e91$",
"iiyyi1+5eefhhde777ehzzNhi+>y9Cnfdisies72$:880reis2$2s&>211111>:;::;$$++++++OO.+..o.. ..+&,2755221:+>",
"fe9se<+4ddhNzge7779ffhhhi@,0iipbzpi99952$:688uuh9<&;s7o$$O$+O$++OO$$;;+O..+>8uieeee7722<1-:&$&&&&..7",
"i09y0<+2ifzbzge7789ypfhfi+2iiimmhpy87972$>e88uzz51&<2$&:27qajNVVVNzzNz7>+.8zFGGSSSHHHHJJHGCNzdse0&Os",
"e69e92+1iihhgd09899eiidye+2hdhhhdee77772+&ezihZC52&O$2sVVHUUUYYTYYULKGN7:O7dNGGGGGSSGHHHHJHSAlse7;+g",
"959y82+>ehfgfddiyeeysif00+5Nhhhi09q77722@&20e52921$.1aAHSHYYTTTYUKHAlada2$29iNZNnzzhfdgzzzzzhsae5+&d",
"079s72@:ezggggggdsssghh67&5Ahhhpe0q77277@+>:&=:&&&.O77eSUHLHGAVzhzze7qdj2+298fnee0eeeyeeeseee9e72$:d",
"97ee52@*0zhghhhzzdsigzf59&1zbhpi0w77777q+.O+++$O$++o2s7eSAldssddddshaaVj2+:0edieiddddgdadsssse952$:l",
"99es72$&9lVgzgzzgdsyygd70;;ehde977777qae&..&;127752$>jslSNhdddffueedzzAq2;&0egedddfdddydsisdse057+>j",
"s9yi82&$9sSAVzgzfgdadhd87;$5ee77q7qeaas9&.+>qzASGVs1$aszHnggdyuyrer0gAz25&&7diidiippiyriiddesse92+2z",
"eydde5:+7qAKHGSAzddeee877>+<577ajzzzzls9&.+<qAUUUUl2$7slVNdiye0eerre0ea7q;$qdiiddfiiiuiupiiises97+2j",
"ighde71O2esse72:&++&&&&;>$.&>>15esddds7<$.+17sGHSAl2O2dszzdey0rye0y0eredd;$7eeeeiippuiupdupiieee2O2g",
"zNhfd72+&>+++$&:>>>>::::;++++OOOooOO$$++OoO2qqAAjzl2+>ajdzdir0yrr0yr0yeda&$5eeqeiippuppppppiiyei2O7j",
"mNhfd02+o+;29lVzzjjdlsddsaqe9975211::>:>>&O1jszVVVV7+&ejdlfi0yrey0yyy00e5;$29eqesddpiippppppi0es2+7g",
"cchhge7+;azAGLPLHHLKKKJKKHGHHGGSSAVzzzjs7>O1ljzVzzz7&&ezjgdyerereyyyyy0a7:$17eqeediippphfhipi0yi2+7f",
"mmhffd7O>VSGGGHSGKUUYTYYYYYUYLHJKHHGHGGSs>O1zzVlVzNq&&7fdgp0reyyyiuyry0eq1$>7e9qeediiifpppyyi09i7&2z",
"Mmbhhzq+2AGAAKHhdsiddddddzzzzhddjlllzVASz1O2VzNjzzVq&+7dpfyyeyyiiiiiiree91$&7eqqeeadiiuyyr0eyeyi7$2d",
"NmcchN0+qSJSYLfiidpiiiyiyere0008qqqqqazVz2O1VzVjVzz7&%7iddirraayuieiutre92+&7qa7qqaaiy008ruysydd7&1d",
"dCfffM0&qAHLGsipfzbhppppiiiiye0899qqq7dzl7o1zVVjzVzq&&7affiryaiiiidiiiiee2+&7eeqqqeeee888iifiize7&<d",
"zSMcbC0+aVAGiidhzmbbffpppppiiyee00qeqqaVl2o1zAVjzzze%&4invdyiiidfidiiiiy05++2qaddaeee00yfhzNnVi97;2l",
"lSSAAz<&szCNihbNmmMcccpfdfpiyyyee000e0elz2o:lVVdzzze&+2shhiidddfhdgfpiii94$O29slzzzzssssdhiii9582&2g",
"777511:&ezzNhNbMmmMbccfpfppiiayyeeeeisdlz7o;llzdzfza&$<0ddsiddghhzffffhi95$O::227722211>,<<125052&>9",
"22<211&%ednNbmNMMmbbbcffpdfiiiaysyiedddlN7.;jdjgfgzs&$<0yyiddghhzhhhffii95&..oOOOOOO+$&&&>>1541=:OO1",
"&&&&&&X+9dzNbMMMMmmmbbfhfpddpiiiiedfdgglzq.&aaagkgzj&$<7eeedghggzzhzfigds5$X121211212=*$&+++X+++$>>&",
"q2<><;++7shNbbMMMbmbbbhpffpdpiipydffddggzqo&we0dhdjj>+17eiidgfzzzzhhgddde2$+szNzNNVnNge872:O+qslAVzd",
"ggfd07+%7sgNhhvbmnNNbzhhfffpfppyyfzfddddd7o&ee8df0dz>+<70eedgkjghzzzzfdfs5+$sASHLLLHGAeeq72O>dAGgdgg",
"bfdd07+&7egzhfhhbnNmnbhhfffdddiidvzd0ddadq+&eq2ry8az1+200eidjjzfzzzzzfdds2O$9gVSHHKKHg9iaq2++ezzdnNz",
"dfdp07+&7egbiifbbhbznbNnvffppfdddzd0ddddjq+;q740y8ez1o2eeeedgzljhznzhgdds2+$5sgse9eiAgizl51;O5llVVhg",
"fdiy08+&7adgiffhzhhzbnnbhfffpdiydfwijsdsNa+&q7<00qej1O2eeeeddlhhzznzzhfds5+&7eseeseeeNzAl:2;O2lzzgdf",
"fryrie++7esdidfhhhhnznbzhfidfddydy0gddadza+$8220079j2+<yeessdlllzzzzzzgzd2O&7esessdseeaA7:2$O2sgisdf",
"pihhhe++7aseeddfhhhnnnnhffdgzzfdddgddsssza+$4<20079d1+<gyeesglzzzVVNNzgzj2o&7sgsissssaede12$O1ezgeih",
"fnCNVe++7eeeyidgznnnnnnhnnNNNNnbgdjdssdjze$$4<207qqa2O>dyeysdlzzNNVVVzzzl5o:qszlsssssqasd25&O1esVzif",
"NBhvnd+%7qaayddghzhzznhnAZZCVzjjddjddsjzVa+@24q07q9a<+>ds0esdzNzVAAAAVzVz7o:9dzzzzllsssss77;o:7eiAgh",
"Svrpbe+%27eadiddfdddddfnVliieaeajzjjdjzVVa&+<5q0790d>+>ds9esjzVVAAAAVAVVz2o>9sgzVzzzllssaea2o:5e9zNh",
"ZtpbNe&+17eaddddddaaeaddq9qeasjlNzljszVAVs$+<8097qqd>X>id9qszzVVASSAAAAVV2o:0ydhVzzzlzljadlqO;2a9lAN",
"itbMCe&+127edsdddeaeeaewasjzzNVVzzzjjVAVVs+$<8e077ed&+2dseqazzVVAASSAAAVV7o>yesgVVzzzzzjszzz$$7e9sAn",
"rvnDZd&+>27qsssssseeeqealzVVVzzzlzzNAAVNV7$+,ede7eds++5pye0egNVAAASSAAAAV5.>s0efVnzzzzzljzNz=+7ee9fs",
"fbBDC7++1<77eaeeqq7777eszVVzzljjzVzVHHSAg2&O=sNzjlVqo#5ie0eedzVVAASAAAAAA7.:y98fzzzzNVVVzVld>+2ee00y",
"pBCDd7&+>1<277777775777szzjsaaaaaseassda52$+:1ssaaq>+*4dee0edzzVVASSAAAVVeO:d07fghzfVznzzze5:+178978",
"60ii77&+:>12222727777777q72222211::;::::::++:&::&;:$X-<fiyeeedglNVAAAAAnzeX:ie5iidfgzlfide72:O:754<<",
">>>>>>++$;;;;$;$$$$$$&$+O$O$O$OOOOO$+OOOO+.oO++++;&&+>-0gdiiidgddhnzzzhgzyO:0s6iiyiipuir0447;O&<2>>1",
"+O.++..+O.O$$;;;::>>>:$.oO;::122777qeeee97572:&$.o2l>>,>eNNNNzzhgiiuyyyizi+&8y80uiiiir07<252:O:>>&$@",
"570w42<>&o>ajlNAASSSVgq+O7sVSSHHHHHHGSSAAVVGHVs1;ose>>6,-6zSKKHGACNfuieig9+$289433<363--<<*+O.+@@$&,",
"KKJFNNk7:O7zVSHLLLLHSzq$1azHHUHSzjjlzghgglzGJAAe7;1q+&86<--48ee09izCzi72:$..O$&&@X@XX##*&+o+>59dzVSS",
"PKHDCCVf1O7lSHLUUKGVNlq+1sAGGVe72275727770qNKSGle7&11&278855542225777:$O+&:&&&+&&=::&+o...;7dNSHKPPU",
"VzzZNBCb>+qdNHLHAde9ss2+>sHUd2727q7777977770SKSVl9:Vl:>1<227660ye92>$+:2qeessdee977722>&$O7sVSLULKGZ",
"578gCCCz1+9slVaq0ee0ae1+>eGS77557qqqeee99778qSKHzq&97:. ...OOO++++@&:7ejzzNzVVAVzlgsq75&$OeVlGAzde87",
"88wwfZCh>+7elVqdhhfisa1O:qAl7779qqeaesee00987eJSze&;$$;>1<<2222557silzVVAASAASSFGANljq2&$OsGAs090009",
"e08w0zCh:+27zzdzNzhdse2+;7zs2599eeeeeese0ee970AGza$OqAGLLHKLUJGGSZCCCCFGKJJJJGGGFACzda2&&+dGzsdsisiy",
"yyr00ynd>+25jlznbhpiss2$;7de589e0eessyese0e000VHzq$:VSHLUUUKHHSSGFSGJJKPLPJJGSZCZCVhae7&$OsAddddgdii",
"aye07yfg:+22dhzzfhddls2$&7se590eesssiessiss000zHN9O1VAGAzlzzgdzzNAZFDCCNzfpiieyidffdge7:$OaAddlllgdd",
"aaye00fd>$27ezhfhzddll2&$2se8eeesssdssssidseeezHz9$2VSAlsjzVedhhhhfdiuiiiuyyiiiiiuiyds7>$.eVddzzlgdd",
"daee00fd:$57shhhfhpdjj2&$2ee0eeidididaddffdeeigSz9+2lVlsdlSzqddffdpydfvhffphfpffiiiiii9,&.5Asszzzlzg",
"fdyyayzi>@29shhhvhhddd7;$2e00iigdggdddzzhffyeedZN7$2jNjjlVAa0dpddppffxffhphpffpppfpihie2&O2Vdslznnzz",
"jgdydkhr>@19yzfchhdddd7;O2eeeidgjzzzkzzzbhpieidAl7+1sAsdVVeqeiiyppfvffpfphhhhhhffffipy04:+:nssdzgzzz",
"ggdgzNyy,+17eipfhhfddd7;$2eeyiffzNNzzjjzhffiiigzs7$1aAjlAs7qaedidfffiupffhhhhbhbchffis02=$$gdsslgzgz",
"gddjNfey>+>5yppfphdddg7>+2eerfffbnnNzglhhhhpfifd92$>eAzVl79eesifpiiiuiphhhbznznhbhhffy02>&$sgsdggghg",
"dseadwe71+:7rdphphggggq>X4eripphznzzjzjzhbhvhiza72$19Azd79qaeeiiiipiidihhhhbnnnbhhbhhie2>:+edydgigss",
"saawweq75@@<euuuphhzzz7>+2yeuidhzzzzzjjhhhvvhfne22+>ezq9qeeeessesiiifphhhhhhbnnzbhhbhde21:+7isidsiss",
"aaaeaeae7:+,eiyupfhzzl7>+4yeippfzzzzjzjhhbbhbhh812$>qzeaq0eeeeseysiiiiiphhbnzvbbhbhzhie41>+5ieiursyy",
"eyaeedzs5;o>8uutpihhzl7>X2eyuifhhzzzzjjzzzbchhh911O1eNaaqqeeqaaasyidippdfvbnznbnhbbzhde51>@2yyiyyees",
"deeaegzd5;O>8riyupdfdg9>O4euppphhzzjzjgzznbhhhh721$1ezsaqeeq9aesssidfdpifdhhbbhhzbzhhfe71>+190yyr0rs",
"deeiegzd7:+18rurifphfde,.2euppffzzzllzjfmzbbzhg511O1qlsaqeqeeesssidddhfdffffnfnbzmhhffs72>$100yy0ryy",
"00e09dzze:O>0yyyuihhpds<.<8pppphzzjzjljzzzzbhhd511O17jsaeeqe0edsssddhhbhfhfffdpfbhhhffd92>$16y00y60y",
"00ee68izd:+>8ertuuphhid1.<0ippphhzjlgggghzhbzhi51:+>5sdsqeqeaeedddddhzhnnbkfffifhhhfdzd95>$>7e000000",
"8088057zd:+>6r6rrriuuhi>.>8uppffghlgdddghphfphp5>:O:5essqq9e9asddggghhzhnnbknffffhhbzVz97>$=9ey06060",
"8e0re85li>+10irrrtruude&.,euhpfdghljjdggfhpphii2::O:2elsq99q9esddgdggzzznnnnvnpfhznhVAV971$&7ie06800",
"8660888he<O>0uytuupihi,@.>efppdhgzljdddgfhpfpdi1::O&2qzssq799esddgllzhhhknnnnkkdgzzNSSVe72+:5hiy0866",
"880ry0yzf1+:8pihzBZZN5,&.,efpfhfdfjddddjgdfppii1:$o;17zzlss909esiidddglzznznzzfggghnSSzsq2O:2dndi066",
"ryfhbhfdz5+:5ihCCCCh7<<@.>0hfpfdgjjdddjjgdfpduy<:&O&17lVdlzldsideeeeeaddzzzzzfzfghgVAAVeq1O:15Nzhiiy",
"8yifhy56h9@&>><<,:@+&&&O.>0fffdfddddjdjjgfffiya1::O;:7s7>19sdgznzzhdgdsjhhzzffggggzAGAseq:O&2,8fzpyy",
"<233<<33y9$O+@$&:><2;o>q+>ehfhfggjddjjjjlhpieea1::O&:22:12122579sdeadgjzVzzzzjdaiglnzse71:O&252<<<<<",
",,<<255552O:szzAASGGs7:2@:yhfffhjggddgzjhdi080a>:>O&:212757775225252577qe0qeae7752522221&+..@:,,,,-,",
"@&#*&;&=*@.2lLYUJGAzss1 +=rhhphdjjdgdggjdie080e1:1+.$&&&&&&&::::&:::&&;:::&$+$%$$&&&:&$O++$:&&&+@++#",
"lddyeesds:.9ezz9779ejs5.+&efhhhpdddjjjggi00008e>:1$.O$$$&&;$$O.@&&:>>:$...&20aa0ees9977sznzzzzzdyees",
"YLHJHSGHV5O7ss28essslq>o+:0phpffadaddddde00ey0e>&1$.1ezVVVNAA5:NGLLLHAaO.+0zZFDFAAAGHHHHLLPLUUUUUUUU",
"LKFASHLLz1O7esiieq0ele>oX&8ihihidsssssae00yddse>:1&O7NHHGGHLS9=zJLGZBVd@ &NSh6800ryyifhhVAGLLLLKKJLL",
"AVNnfgHz92O28giieeasje1.+#5uhufissdssddedriddes2:1++7NLHSNLLh7>NBdzBCCi& &qVirrtdhfffhffifhpphgnZSSZ",
"SAhii0yz95.14izidiidds2oX@5yhphhdzzljjjggddiee0>:>+&5qGGe8gAh8*dCbBCCZh,.&18prpxbbBBBBCNNbzhbhNCGZZZ",
"zd00800zy5.:40fiieyddd7.+@5epbzdjzNzzlzzfye0806*:>.@7slzii0hC0&ynhnNBZBy++7erttxbbMMBNBBNNbhhhhNCCCC",
"ey0r88ris5+$56u0ryeyin9 +#<eiznzzzVVzNze4<<259>&>>O+7jzNhpidZ8$dgedhNCZh1$7eyrttxxbbbnbmNnnbhhfhhhhi",
"fuy086r686#+<5668ry08i5.X#<90idfldds905,1<2708&=>&.+2sVAziiiNe$ssesghzzd2%7ayrrttxxbbbbzvbvhppppuiii",
"iur0636335=X<6i6366666=..+-657752<>,>=><2570s<&>:&.+2dzGNiiizu@eeiihhieh7%7f00088888eipfhfhdiiyuuiyi",
"iyrr6653551+-6iur66665#&=@@27552<<>,,>12799e0-->&+ O<zAACCNzhd&7iphhhfshk%2i88543433580eeeeyiyyeiyyi",
"00086555302+<>,60err63*,>++&42<<,=-=,>,-::=&**-=+16.>gV979880s$50909979eN;295952225577eddisyye0e0eer",
"yee008680i>O>>=&=-,<<5&>Z>X@&,<<>>=>=-&@@####=:.1hN4O522578775@se552527<7$1::edeesssdsy85259eisis0ei",
"<<<<<2424<&.&,><-==&##X<zz=+@*=-=-=:###@##*&&&.5zy6e>O:>11>>:+.::>>>>>>:$.$:@:25555<1>&*#*&=--<3,,,,",
"&&===&&&&++.O++++++.....&<&.+X+X+X+++@@##&@+OO.251<25O.OO+++++@&&&&&&;&&$+$++++++OOO+@###@@@#X@X#&&#"
};
