/* XPM */
static char *result[] = {
/* columns rows colors chars-per-pixel */
"60 93 237 2 ",
"   c #030403",
".  c #0D1816",
"X  c #1B1719",
"o  c #130605",
"O  c #09241C",
"+  c #12241C",
"@  c #0D2925",
"#  c #1B2B2C",
"$  c #172927",
"%  c #18332A",
"&  c #1D2935",
"*  c #1C3C3A",
"=  c #183937",
"-  c #073529",
";  c #262825",
":  c #27342D",
">  c #252B36",
",  c #362E3B",
"<  c #223335",
"1  c #2D3B35",
"2  c #243B3C",
"3  c #283639",
"4  c #32313C",
"5  c #353A38",
"6  c #352A2B",
"7  c #2E1C16",
"8  c #61241C",
"9  c #1A423D",
"0  c #0A4A3A",
"q  c #2B433A",
"w  c #36443C",
"e  c #046A3C",
"r  c #504B3C",
"t  c #774D28",
"y  c #193E45",
"u  c #262843",
"i  c #293944",
"p  c #373849",
"a  c #323454",
"s  c #343A5C",
"d  c #383A5E",
"f  c #363A57",
"g  c #2F3857",
"h  c #3A3B60",
"j  c #363D60",
"k  c #443E4A",
"l  c #653449",
"z  c #1D4342",
"x  c #1A4B45",
"c  c #105446",
"v  c #214445",
"b  c #2B4146",
"n  c #28484B",
"m  c #33444C",
"M  c #374946",
"N  c #264351",
"B  c #2B4453",
"V  c #2C4C54",
"C  c #2D4C59",
"Z  c #324B54",
"A  c #394B54",
"S  c #334C5B",
"D  c #3A4956",
"F  c #2D545B",
"G  c #2A5355",
"H  c #34545D",
"J  c #3B525E",
"K  c #375658",
"L  c #315249",
"P  c #106857",
"I  c #3B5563",
"U  c #355B63",
"Y  c #3B5A65",
"T  c #3D5C69",
"R  c #365562",
"E  c #2C5961",
"W  c #13786C",
"Q  c #3C636C",
"!  c #376067",
"~  c #3E6B73",
"^  c #3F6670",
"/  c #23776D",
"(  c #434947",
")  c #46534A",
"_  c #55564D",
"`  c #484854",
"'  c #544B5A",
"]  c #495755",
"[  c #525B54",
"{  c #534F4B",
"}  c #635C58",
"|  c #65584A",
" . c #5A655B",
".. c #4E755B",
"X. c #6F665B",
"o. c #415B66",
"O. c #435D6B",
"+. c #475568",
"@. c #56597A",
"#. c #514E64",
"$. c #625968",
"%. c #675B72",
"&. c #44626E",
"*. c #4C636E",
"=. c #596863",
"-. c #446572",
";. c #4A6573",
":. c #436A75",
">. c #486875",
",. c #4D6B7A",
"<. c #456E78",
"1. c #4E7179",
"2. c #656967",
"3. c #736865",
"4. c #697369",
"5. c #787668",
"6. c #6A7672",
"7. c #767B76",
"8. c #74657E",
"9. c #A37A38",
"0. c #8D5F2F",
"q. c #C27A39",
"w. c #813B59",
"e. c #94704C",
"r. c #867871",
"t. c #AE4674",
"y. c #17897B",
"u. c #268178",
"i. c #75827B",
"p. c #498061",
"a. c #AC853A",
"s. c #C48D3D",
"d. c #8B877E",
"f. c #9D8773",
"g. c #A6947A",
"h. c #CD9941",
"j. c #D2AF4C",
"k. c #F5BA4F",
"l. c #E9AF4A",
"z. c #CFAC69",
"x. c #F5D852",
"c. c #FBE776",
"v. c #E9CA71",
"b. c #655F89",
"n. c #625D85",
"m. c #5D6289",
"M. c #547384",
"N. c #5B7C8C",
"B. c #547B86",
"V. c #507B85",
"C. c #626189",
"Z. c #6B628C",
"A. c #716F8F",
"S. c #797CB4",
"D. c #7877AF",
"F. c #5D5C82",
"G. c #9B7C88",
"H. c #977E88",
"J. c #8B7594",
"K. c #A17988",
"L. c #957EA3",
"P. c #1A9283",
"I. c #29968B",
"U. c #2E8C85",
"Y. c #2AA598",
"T. c #32A69B",
"R. c #31A89C",
"E. c #5E8391",
"W. c #7A8684",
"Q. c #638394",
"!. c #6C8D9D",
"~. c #658897",
"^. c #7293A3",
"/. c #6E90A1",
"(. c #888887",
"). c #96838C",
"_. c #988888",
"`. c #968990",
"'. c #8B9696",
"]. c #919893",
"[. c #AF988A",
"{. c #BAA99D",
"}. c #B2AA94",
"|. c #989EA6",
" X c #A785AC",
".X c #AB8AB3",
"XX c #B88DB9",
"oX c #B48DB7",
"OX c #AE94BA",
"+X c #B192BA",
"@X c #9DA6A5",
"#X c #9EA5BC",
"$X c #A6ACAA",
"%X c #B5B8B6",
"&X c #B0B4AE",
"*X c #99A29D",
"=X c #C7AA94",
"-X c #CCB4AA",
";X c #B9C0BF",
":X c #CCC4B5",
">X c #D4D0B6",
",X c #FFEFB9",
"<X c #E8D698",
"1X c #AFAEC4",
"2X c #E191CC",
"3X c #E49ACE",
"4X c #EBB4D3",
"5X c #BCC2C3",
"6X c #C7CAC8",
"7X c #DCDDDD",
"8X c #D5D5D4",
"9X c #D5D1CB",
"0X c #EDCBC2",
"qX c #E5CEC4",
"wX c #E6DBCB",
"eX c #F6DDD2",
"rX c #F4D3D8",
"tX c #E5D2D5",
"yX c #ECE4D6",
"uX c #F5E3D5",
"iX c #F8E7D8",
"pX c #F6ECDB",
"aX c #F9EBDB",
"sX c #F7E6D7",
"dX c #FEFDCB",
"fX c #D8DDE5",
"gX c #DEE1E1",
"hX c #E3E5E4",
"jX c #EBEBEB",
"kX c #E8E9E8",
"lX c #F4EBE5",
"zX c #F4F4F5",
"xX c #FFFEFE",
"cX c #FEFCF7",
"vX c #F3F1F0",
"bX c #DEE0DF",
"nX c None",
/* pixels */
"nXnXnXnXnXnXnXnXnXnXnXnXnXnXnXnXnXnXnXnXnXnXnXnXnXnXnXnXnXnXnXnXnXnXnXnXnXnXnXnXnXnXnXnXnXnXnXnXnXnXnXnXnXnXnXnXnXnXnXnX",
"nXnXnXnXnXnXnXnXnXnXnXnXnXnXnXnXnXnXnXnXnXnXnXnXnXnXnXnXnXnXnXnXnXnXnXnXnXnXnXnXnXnXnXnXnXnXnXnXnXnXnXnXnXnXnXnXnXnXnXnX",
"nXnXnXnXnXnXnXnXnXnXnXnXnXnXnXnXnXnXnXnXnXnXnXnXnXnXnXnXnXnXnXnXnXnXnXnXnXnXnXnXnXnXnXnXnXnXnXnXnXnXnXnXnXnXnXnXnXnXnXnX",
"nXnXnXnXnXnXnXnXnXnXnXnXnXnXnXnXnXnXnXnXnXnXnXnXnXnXnXxXxXxXxXxXnXnXnXnXnXnXnXnXnXnXnXnXnXnXnXnXnXnXnXnXnXnXnXnXnXnXnXnX",
"nXnXnXnXnXnXnXnXnXnXnXnXnXnXnXnXnXnXnXnXnXnXnXxXxXxX7X*XW.6.W.$XjXxXxXnXnXnXnXnXnXnXnXnXnXnXnXnXnXnXnXnXnXnXnXnXnXnXnXnX",
"nXnXnXnXnXnXnXnXnXnXnXnXnXnXnXnXnXnXnXnXnXnXxX%X% F Q <.~ ~ ~ ~ Q * =.xXnXnXnXnXnXnXnXnXnXnXnXnXnXnXnXnXnXnXnXnXnXnXnXnX",
"nXnXnXnXnXnXnXnXnXnXnXnXnXnXnXnXnXnXnXnXxXjX- :.~ <.<.V.E.E.<.<.~ <.:.@ xXnXnXnXnXnXnXnXnXnXnXnXnXnXnXnXnXnXnXnXnXnXnXnX",
"nXnXnXnXnXnXnXnXnXnXnXnXnXnXnXnXnXnXnXxX6XG ~ V.! w ..i...M K E.V.<.~ <.% xXnXnXnXnXnXnXnXnXnXnXnXnXnXnXnXnXnXnXnXnXnXnX",
"nXnXnXnXnXnXnXnXnXnXnXnXnXnXnXnXnXnXnXcXG V.< 6XxXxXxXxXxXxXxXi.E.E.~ ~ :.i.xXnXnXnXnXnXnXnXnXnXnXnXnXnXnXnXnXnXnXnXnXnX",
"nXnXnXnXnXnXnXnXnXnXnXnXnXnXnXnXnXnXxXM K 8XxXxXnXnXnXnXnXnXnXxX@XE.1.:.>.% xXnXnXnXnXnXnXnXnXnXnXnXnXnXnXnXnXnXnXnXnXnX",
"nXnXnXnXnXnXnXnXnXnXnXnXnXnXnXnXnXnXcXq xXxXnXnXnXnXnXnXnXnXnXnXxX% 1.<.:.v xXnXnXnXnXnXnXnXnXnXnXnXnXnXnXnXnXnXnXnXnXnX",
"nXnXnXnXnXnXnXnXnXnXnXnXnXnXnXnXnXnXcXxXnXnXnXnXnXnXnXnXnXnXnXnXxX'.<.Q Q * xXnXnXnXnXnXnXnXnXnXnXnXnXnXnXnXnXnXnXnXnXnX",
"nXnXnXnXnXnXnXnXnXnXnXnXnXnXnXnXnXnXxXnXnXnXnXnXnXnXnXnXxXxXxXxXxX9XR R U @ xXnXnXnXnXnXnXnXnXnXnXnXnXnXnXnXnXnXnXnXnXnX",
"nXnXnXnXnXnXnXnXnXnXnXnXnXnXnXnXnXnXnXnXnXnXnXnXxXxXxXhX].b $ = = v C C C # W.hXxXxXnXnXnXnXnXnXnXnXnXnXnXnXnXnXnXnXnXnX",
"nXnXnXnXnXnXnXnXnXnXnXnXnXnXnXnXnXnXnXnXnXxXxXxX%Xq @ i N N B B B N C B B B C N % &XxXnXnXnXnXnXnXnXnXnXnXnXnXnXnXnXnXnX",
"nXnXnXnXnXnXnXnXnXnXnXnXnXnXnXnXnXnXnXxXxX6XO = N N N N N N N y * = z z z y = C S S . xXnXnXnXnXnXnXnXnXnXnXnXnXnXnXnXnX",
"nXnXnXnXnXnXnXxXnXnXnXnXnXnXnXnXxXxX7Xw = C B N N N g N N N y g g N B B B B B S N z R * 7XxXxXnXnXnXnXnXnXnXnXnXnXnXnXnX",
"nXnXnXnXnXnXxX%XxXnXnXnXnXnXxXxX$X$ H I R C C B N B N N n C R B B B Z N z S R S z R n = = q 5XxXnXnXnXnXnXnXnXnXnXnXnXnX",
"nXnXnXnXnXnXxXL $XxXxXxXxXxX7.@ Q T Y R S S C B B N B B :.-.T R Z S v S R R I I R I R R I U U + xXnXnXnXnXnXnXnXnXnXnXnX",
"nXnXnXnXnXnXxX9 ~ @ =. .% K :.-.O.T Y R R Z S S C S S -.M.,.&.T J N J I I +.I T Y Y Y I Y R T Q % xXnXnXnXnXnXnXnXnXnXnX",
"nXnXnXnXnXnXxXi.<.~ ~ :.:.:.:.&.O.T T I B R J S S J z Q.Q.M.;.;.Y V o.+.I O.O.O.O.O.T T Y T n ^ ^ w xXnXnXnXnXnXnXnXnXnX",
"nXnXnXnXnXnXnXxX- ~ :.~ >.:.-.-.O.O.I z I I I J J R N./.!.N.N.M.V M.>.O.O.O.O.O.O.O.O.O.&.Q Q F ^ ^ gXxXnXnXnXnXnXnXnXnX",
"nXnXnXnXnXnXnXnXxX% :.:.>.-.-.;.&.O.z I I I I I I N M.^.~.!.~.~.n Q.B.,.>.O.U c P F c Y Q &.:.F ^ ~ $ xXnXnXnXnXnXnXnXnX",
"nXnXnXnXnXxXcXnXnXxX] G -.:.>.-.>.R O.O.O.o.O.+.I N ;.~.^.N./.^.B./.Q.B.M.-.2.@ - - P c -.&.&.&.x :.U xXnXnXnXnXnXnXnXnX",
"nXnXnXnXnXxX% xXxXnXxXxX$X$ 9 = y V &.&.O.O.O.O.&.S ;.,.M.N.~.^.!.^.^.Q.B.3 aXaXaXyX:X4.L -.-.>.H :.<.%XxXnXnXnXnXnXnXnX",
"nXnXnXnXxXjX:.9 $XvXzX7XM i N B y *.*.&.&.O.;.+.O.O.;.;.1.M.M.N.!.^.^.^.~.7.aXaXaXaXaXpXw -.-.:.:.! <.w xXnXnXnXnXnXnXnX",
"nXnXnXnXxX7X~ ~ :.U H U R C B B G -.&.*.&.;.*.;.S ;.&.;.;.,.M.M.>.Q.!.^.N.uXaXaXaXrXpXpXsX>.:.>.:.G :.< xXnXnXnXnXnXnXnX",
"nXnXnXnXnXxX<.<.~ ~ Q Y R S B y ;.;.-.;.*.*.*.O.y O.;.;.;.;.,.,.H ;.N.N.] aXaXaX4X2XpXpXpXv >.>.<.x :.9 xXnXnXnXnXnXnXnX",
"nXnXnXnXxXcXz <.:.Q T T R S C n ;.;.;.;.O.;.O.;.9 ;.;.*.;.;.;.;.i ;.;.,.$ aXaXaX2X2X4XpXaX+ >.>.:.x :.G xXnXnXnXnXnXnXnX",
"nXnXnXnXxXF O :.~ -.^ T Y R z >.;.;.;.*.;.;.;.;.S ;.;.;.;.;.;.*.; ;.;.;.: aXiX4X2X2X2XsXaXw >.>.:.x >.! xXnXnXnXnXnXnXnX",
"nXnXnXnXjXQ <.~ :.^ Q T Y U U >.;.;.-.;.;.;.;.;.*.;.;.;.;.;.;.m }.;.;.;.r aXaX2X2X2X2X0XaXi.>.>.:.G :.Q xXnXnXnXnXnXnXnX",
"nXnXnXnXxX! ~ <.:.:.-.Q T n >.>.;.;.;.;.;.O.;.v ;.;.;.;.;.;.;._ aXJ ;.;.w aXaXrX2X2X2XpXpX4.>.:.-.! :.&.xXnXnXnXnXnXnXnX",
"nXnXnXxXxXq G :.:.:.~ G G -.>.;.>.;.;.;.;.*.;.K ,.*.*.*.;.*.o.wXaX1 ;.;.5 aXaXaX3X2X4XaXaX% >.-.< <.:.Q cXnXnXnXnXnXnXnX",
"nXnXxX8X% w O F x n U >.>.>.;.>.;.;.;.;.;.;.V ;.;.*.,.,.;.;.: iXiXwX*.;.6 aXaXaXpX3XlXaXaXq -.T }.<.:.^ kXnXnXnXnXnXnXnX",
"nXnXxXw # < < = H -.&.>.-.>.>.;.;.;.;.;.;.O.o.;.*.,.,.*.;.A uXuXiXpXw ;.< aXaXaXaXaXpXpX7.>.K }.wX&.:.~ 6XxXnXnXnXnXnXnX",
"nXnXxX+ 2 < 3 3 2 9 * G o.&.*.n 1 w * ;.&.K ,.;.,.*.;.;.O.7 o         . b uXaXaXaXpXpXpX5.X 7 8 8 G :.:.*XxXnXnXnXnXnXnX",
"nXnXxX% b 2 2 i i m m m m i + pXaXaXb G o.;.;.;.*.,.*.;     t 9.%X%X%X%X&X5 iXaXaXaX>Xo   a.h.r 6   <.~ [ xXnXnXnXnXnXnX",
"nXnXxX$XV b b b b b m m A : {.wXqX) < ;.;.>.;.;.;.;.X 7 q.t k.k.yXjXjXjXjXpXaXaXaXaX_ l.0.l.x.0.jXL :.~ * xXnXnXnXnXnXnX",
"nXnXnXcX= V B b m m m m m  .i.b o.O.*.*.*.*.O.O.S _ =XdX,X0.k.x.lXxXxXxXxXaXaXaXaXaXzXdX0.s.x.a.xXn G ~ ~ i.xXxXnXnXnXnX",
"nXnXnXxXi.Z Z Z m m A m A }.aXpX:X7.% 9 9 9 v Z J (.iXx.s.0.k.x.yXxXxXxXxXaXaXaXaXpXpXh.0.h.x.a.xXn Q i.Q Q q =.xXnXnXnX",
"nXnXnXnXxX1 C Z Z m Z M m :XpXaXaXaX. W W U I I o.3 iXl.c.q.<Xc.vXxXxXxXlXaXaXaXaXaXaXe.c.dX,Xe.cXn Q xXxX[ q jXxXnXnXnX",
"nXnXnXnXnXxXi.b Z Z A A D }.aXaXaXaX+ E y.u.I O.v O.# e.c.c.,X<XxXxXxXlXaXaXaXaXaXaXaXaXe.v.j.kXyXV Q xXxXxXxXxXnXnXnXnX",
"nXnXnXnXnXnXxXvX=.$ Z A D ( aXaXaXaX+ J I.I.~ O.2  .[.eX9.j.<XiXcXcXiXiXaXaXaXaXaXaXaXaXpXuXuXuXwXF U xXnXnXnXnXnXnXnXnX",
"nXnXnXnXnXnXxX].Z K S A J i wXaXaXaX1 ] I.I.I.&.T wXuXeXeXeXeXeXeXuXiXiXaXaXaXaXaXaXiXiXuXuXuXuX9XF U xXnXnXnXnXnXnXnXnX",
"nXnXnXnXnXnXnXxX[ 2 i A A J : yXpXpXd.Y U.Y.T.>.;.w eXeXeXeXeXeXeXuXiXiXiXaXaXaXaXiXsXuXuXuXeXyX%XG K ].xXnXnXnXnXnXnXnX",
"nXnXnXnXnXnXnXnXxXxX6.K ] J J q :XpX9XY O.R.T.T.;.o.0XeXeXeXeXeXeXeXeXiXiXaXaXaXaXiXsXuXuXeXuXuX4.v F q xXnXnXnXnXnXnXnX",
"nXnXnXnXnXnXnXxXxX+ H H R R K Y U + 4.2 &.R.Y.T.G ;.$ eXrXeXeXeXeXuXeXiXiXaXeXf.f.-XiXuXeXeXyXyX@ y G ! ] xXxXxXxXnXnXnX",
"nXnXnXnXnXnXnXvXL H U H U U Y Y ! &.O.z -.Q R.T.T.o.*.$ 0XeXeXeXeXeXiXiXiXaXaXaXaXaXiXsXuXuXuXyXO y x Q <.z % $XxXnXnXnX",
"nXnXnXnXnXnXnXxXn H H ! Y Y Y ! &.! &.&.! -.u.Y.R.0 : 3 d.eXeXeXeXuXiXiXaXaXaXaXaXpXpXuXpXyXyX=.P y 2 % n = @XxXnXnXnXnX",
"nXnXnXnXnXnXnXxX$XG U ! ! ! ! &.Q G &.&.v >.! R.R.R.r.uXeXeXeXuXuXsXiXaXaXaXaXaXpXpXpXpXpXpXq W W G * xXxXxXxXnXnXnXnXnX",
"nXnXnXnXnXnXnXnXxXzX) n H U H q w -.$ >.:.$ -.9 R.R.u._ qXeXiXeXuXiXiXaXaXaXlXaXpXaXpXyXi.0 y.y.P F E M xXnXnXnXnXnXnXnX",
"nXnXnXnXnXnXnXnXnXnXxXxXcXkXzXxX%Xq xX6.) xX% >./ R.R.% 9X(.-XiXiXaXsXaXaXaXyX-Xd.[ [ 6Xi P P.P.c E ! ! hXnXnXnXnXnXnXnX",
"nXnXnXnXnXnXnXnXnXnXnXnXnXnXnXnXxXxXnXxXxXnXxX= &.I.T.T.1 iX6X} 5.r.-X2.l 3.5.xXxXxXxXxX% F P.P.P.U ~ ~ q xXnXnXnXnXnXnX",
"nXnXnXnXnXnXnXnXnXnXnXnXnXnXnXnXnXnXnXnXnXnXnXxXb I U.R.I.7.3.lX:Xt.%.fXw.| kXnXnXnXnXxX'.! Y I.Y.W ~ ~ F xXnXnXnXnXnXnX",
"nXnXnXnXnXnXnXnXnXnXnXnXnXnXnXnXnXnXnXnXnXnXnXnX7XJ &.v T.u.&X&X7X6 q ` O c hXxXnXnXnXnXxX7.! &.I.Y.- ~ E xXnXnXnXnXnXnX",
"nXnXnXnXnXnXnXnXnXnXnXnXnXnXnXnXnXnXnXnXnXnXnXnXxX4.;.1 _ / I.M zXP c A.@Xc q xXnXnXnXnXnXxX&X! ~ Y.- ~ 9 cXnXnXnXnXnXnX",
"nXnXnXnXnXnXnXnXnXnXnXnXnXnXnXnXnXnXnXnXnXnXnXnXcX4.b _ >X6.(.gX2.{.1 w $ 0X{ kXxXnXnXnXnXxXxXq <.Y.6.G zXnXnXnXnXnXnXnX",
"nXnXnXnXnXnXnXnXnXnXnXnXnXnXnXnXnXnXnXnXnXnXnXnXhX<Xq i.qX4 zXvX-X0X2.) @.5 0X-X .xXnXnXxXM L &.U.c 8XzXnXnXnXnXnXnXnXnX",
"nXnXnXnXnXnXnXnXnXnXnXnXnXnXnXnXnXnXnXnXnXnXnXxX1 wX:XaXaXi.zX%X0X0Xr 1 A.|.-X0X-XzXnXnXnXxX6X'.8XxXnXnXnXnXnXnXnXnXnXnX",
"nXnXnXnXnXnXnXnXnXnXnXnXnXnXnXnXnXnXnXnXnXnXxX# : >X) E.2._ vXjX-X0X0X+ @.Z w 0XqXjXnXnXnXnXxXxXxXnXnXnXnXnXnXnXnXnXnXnX",
"nXnXnXnXnXnXnXnXnXnXnXnXnXnXnXnXnXnXnXnXnXxX1 C.w ] L | _ 8X7XlXk 0X0X5.] 3 i.=. .xXnXnXnXnXnXnXnXnXnXnXnXnXnXnXnXnXnXnX",
"nXnXnXnXnXnXnXnXnXnXnXnXnXnXnXnXnXnXnXnXxX% n.C. .E.; *.M.M 5 zXlX0X{.W.zXzXzX2.xXxXnXnXnXnXnXnXnXnXnXnXnXnXnXnXnXnXnXnX",
"nXnXnXnXnXnXnXnXnXnXnXnXnXnXnXnXnXnXnXxX) m.C.C.w ] X E.> k : kXzX8XvXqXzXzXzXkXi 7XnXnXnXnXnXnXnXnXnXnXnXnXnXnXnXnXnXnX",
"nXnXnXnXnXnXnXnXnXnXnXnXnXnXnXnXnXnXnX6XJ.C.C.C.$ _ *.. X 6 e.5XtXvXbXjXkX:X6.i s m.xXnXnXnXnXnXnXnXnXnXnXnXnXnXnXnXnXnX",
"nXnXnXnXnXnXnXnXnXnXnXnXnXnXnXnXnXnXxX` J.m.n.b.# e.&.6 r X , 5 k %.H.tX%Xd j s F.S.W.xXnXnXnXnXnXnXnXnXnXnXnXnXnXnXnXnX",
"nXnXnXnXnXnXnXnXnXnXnXnXnXnXnXnXnXxX8XOXD.m.m.n.zXfX: $.X X X 4 L.XXXX' 7.h u S.S.C $ xXnXnXnXnXnXnXnXnXnXnXnXnXnXnXnXnX",
"nXnXnXnXnXnXnXnXnXnXnXnXnXnXnXnXnXxXi OXL.m.b.2 xXxXxX7X, ; X 3 S.@.#.$.u @.D.m.u g & hXnXnXnXnXnXnXnXnXnXnXnXnXnXnXnXnX",
"nXnXnXnXnXnXnXnXnXnXnXnXnXnXnXnXnXxX8.OX.Xm.F.kXnXnXnXxX6 O.A ; Z.D.D.Z.i a a j g i p.5.xXnXnXnXnXnXnXnXnXnXnXnXnXnXnXnX",
"nXnXnXnXnXnXnXnXnXnXnXnXnXnXnXnXnXxXOX+X+XC.p xXnXnXnXxXZ E.Z oXL.XX%.| X.s f f s q w g.vXnXnXnXnXnXnXnXnXnXnXnXnXnXnXnX",
"nXnXnXnXnXnXnXnXnXnXnXnXnXnXnXnXxXjXOX+XOXZ.) xXnXnXnXxX$X' r.J.XX#.XX' i d [  . ...5.}.5.cXnXnXnXnXnXnXnXnXnXnXnXnXnXnX",
"nXnXnXnXnXnXnXnXnXnXnXnXnXnXnXnXxX1XOX+X+X.X=.xXnXnXnXxXl L.XXXXk XXXXp d h | g.[.g.[.X.f.$XxXnXnXnXnXnXnXnXnXnXnXnXnXnX",
"nXnXnXnXnXnXnXnXnXnXnXnXnXnXnXnXxX5XOX+X+X+XA xXnXnXxXA.%.XXL.#.XXoX> h h h g.g.X.( =X| g.hXxXnXnXnXnXnXnXnXnXnXnXnXnXnX",
"nXnXnXnXnXnXnXnXnXnXnXnXnXnXnXnXxXzXOX+X+X+XA.zXnXnXxX( J.%.XXL.' a h h h > 3.=X| K.} } 3 xXnXnXnXnXnXnXnXnXnXnXnXnXnXnX",
"nXnXnXnXnXnXnXnXnXnXnXnXnXnXnXnXnXxX#XOX+X1X+X#.kXxXcX.XL.a k h h h h h $ h f r.[.K.K.).] xXnXnXnXnXnXnXnXnXnXnXnXnXnXnX",
"nXnXnXnXnXnXnXnXnXnXnXnXnXnXnXnXnXxXm OX+X+XoX1X XxXb XXZ.h h h h h h d A.d d , =XK.K.G.K.3 zXxXxXnXnXnXnXnXnXnXnXnXnXnX",
"nXnXnXnXnXnXnXnXnXnXnXnXnXnXnXnXnXxX$XOX+X+X1XoXm (.XX Xl h h h h h h p $Xd d ; -XK.K.G.G.).H.M %XxXnXnXnXnXnXnXnXnXnXnX",
"nXnXnXnXnXnXnXnXnXnXnXnXnXnXnXnXnXnXxXm OXOX+X] 4XL.J.XX& h h a h h h p |.h h a {.[.K.K.G.G.G.G.H.M cXnXnXnXnXnXnXnXnXnX",
"nXnXnXnXnXnXnXnXnXnXnXnXnXnXnXnXnXnXnXxX1 %.@XzXL.XXL.u d d u 3.a d h 7X> h h h u [.K.K.K.G.H.G.G.H.m xXnXnXnXnXnXnXnXnX",
"nXnXnXnXnXnXnXnXnXnXnXnXnXnXnXnXnXnXnXnXcXjX`.L.XX8.XXh a u %.r.a d d bXd d h s d j & %.` G.G.H.H.H.H.J xXnXnXnXnXnXnXnX",
"nXnXnXnXnXnXnXnXnXnXnXnXnXnXnXnXnXxXxXxXA.@.oX1Xp XXZ.k a k } X.a h f 4 j h a 5.5.S i xXxXM G.H.H.G.H.r.cXnXnXnXnXnXnXnX",
"nXnXnXnXnXnXnXnXnXnXnXnXnXnXnXnXnXxX2  XOX+X.Xi +XZ.b.> ' u X.} ` a a u h d u r.3.u M xXxXbX}.`.`.`.).).@XxXnXnXnXnXnXnX",
"nXnXnXnXnXnXnXnXnXnXnXnXnXnXnXnXnXxXW..XoX`  X.XZ.b.b.@.6 & u u k d u @Xf f D ` 3.p A xXnXxX_.).H.).`.'.W.xXnXnXnXnXnXnX",
"nXnXnXnXnXnXnXnXnXnXnXnXnXnXnXnXnXnXxX2 Z.+XJ.b.C.b.b.u w e 0 , > 4 cXxX> # k = & @ xXnXnXxX_.G.H.H.).'.@XxXnXnXnXnXnXnX",
"nXnXnXnXnXnXnXnXnXnXnXnXnXnXnXnXnXxX] OXA.m.m.C.C.b.b.; L e e , p 2.xXxX, , 4 c e $ xXnXxXkX=X`.|.'.(.H.zXnXnXnXnXnXnXnX",
"nXnXnXnXnXnXnXnXnXnXnXnXnXnXnXnXnXxX1XC.m.C.C.C.b.b.n.> q e M 4 , zXxX6X4 4 4 L e # xXnXxXM {.).'.).H.A xXnXnXnXnXnXnXnX",
"nXnXnXnXnXnXnXnXnXnXnXnXnXnXnXnXnXnXxX+.m.C.C.C.b.b.] , 4 L , 4 > xXxX$X4 4 4 4 i @ xXnXxX].{.H.H.).(.W.xXnXnXnXnXnXnXnX",
"nXnXnXnXnXnXnXnXnXnXnXnXnXnXnXnXnXnXxXW.C.m.m.m.b.i $ 2.H.r.# , < xXxXW.4 4 4 > 2.% xXnXxXjX] = 2 W.zXxXnXnXnXnXnXnXnXnX",
"nXnXnXnXnXnXnXnXnXnXnXnXnXnXnXnXnXnXnXxXq m.m.+.i.& 4 ) # [ 4 4 hXxXxXW.3 4 4 2.r.& A xXnXnXxXxXxXxXnXnXnXnXnXnXnXnXnXnX",
"nXnXnXnXnXnXnXnXnXnXnXnXnXnXnXnXnXnXnXnXxX'.8XxXxX%X& 3 3 < # ` xXnXnXxX[ & < 3 # 2 bXnXnXnXnXnXnXnXnXnXnXnXnXnXnXnXnXnX",
"nXnXnXnXnXnXnXnXnXnXnXnXnXnXnXnXnXnXnXnXnXxXxXnXnXxXxXxXxXxXxXxXnXnXnXnXxXxXxXxXxXxXnXnXnXnXnXnXnXnXnXnXnXnXnXnXnXnXnXnX",
"nXnXnXnXnXnXnXnXnXnXnXnXnXnXnXnXnXnXnXnXnXnXnXnXnXnXnXnXnXnXnXnXnXnXnXnXnXnXnXnXnXnXnXnXnXnXnXnXnXnXnXnXnXnXnXnXnXnXnXnX",
"nXnXnXnXnXnXnXnXnXnXnXnXnXnXnXnXnXnXnXnXnXnXnXnXnXnXnXnXnXnXnXnXnXnXnXnXnXnXnXnXnXnXnXnXnXnXnXnXnXnXnXnXnXnXnXnXnXnXnXnX",
"nXnXnXnXnXnXnXnXnXnXnXnXnXnXnXnXnXnXnXnXnXnXnXnXnXnXnXnXnXnXnXnXnXnXnXnXnXnXnXnXnXnXnXnXnXnXnXnXnXnXnXnXnXnXnXnXnXnXnXnX"
};
