/* XPM */
static char *_1aef63c6523477da9e587c88f390361q38a08BWzj3eOdMy[] = {
/* columns rows colors chars-per-pixel */
"60 93 238 2 ",
"   c None",
".  c #030403",
"X  c #0D1816",
"o  c #1B1719",
"O  c #130605",
"+  c #09241C",
"@  c #12241C",
"#  c #0D2925",
"$  c #1B2B2C",
"%  c #172927",
"&  c #18332A",
"*  c #1D2935",
"=  c #1C3C3A",
"-  c #183937",
";  c #073529",
":  c #262825",
">  c #27342D",
",  c #252B36",
"<  c #362E3B",
"1  c #223335",
"2  c #2D3B35",
"3  c #243B3C",
"4  c #283639",
"5  c #32313C",
"6  c #353A38",
"7  c #352A2B",
"8  c #2E1C16",
"9  c #61241C",
"0  c #1A423D",
"q  c #0A4A3A",
"w  c #2B433A",
"e  c #36443C",
"r  c #046A3C",
"t  c #504B3C",
"y  c #774D28",
"u  c #193E45",
"i  c #262843",
"p  c #293944",
"a  c #373849",
"s  c #323454",
"d  c #343A5C",
"f  c #383A5E",
"g  c #363A57",
"h  c #2F3857",
"j  c #3A3B60",
"k  c #363D60",
"l  c #443E4A",
"z  c #653449",
"x  c #1D4342",
"c  c #1A4B45",
"v  c #105446",
"b  c #214445",
"n  c #2B4146",
"m  c #28484B",
"M  c #33444C",
"N  c #374946",
"B  c #264351",
"V  c #2B4453",
"C  c #2C4C54",
"Z  c #2D4C59",
"A  c #324B54",
"S  c #394B54",
"D  c #334C5B",
"F  c #3A4956",
"G  c #2D545B",
"H  c #2A5355",
"J  c #34545D",
"K  c #3B525E",
"L  c #375658",
"P  c #315249",
"I  c #106857",
"U  c #3B5563",
"Y  c #355B63",
"T  c #3B5A65",
"R  c #3D5C69",
"E  c #365562",
"W  c #2C5961",
"Q  c #13786C",
"!  c #3C636C",
"~  c #376067",
"^  c #3E6B73",
"/  c #3F6670",
"(  c #23776D",
")  c #434947",
"_  c #46534A",
"`  c #55564D",
"'  c #484854",
"]  c #544B5A",
"[  c #495755",
"{  c #525B54",
"}  c #534F4B",
"|  c #635C58",
" . c #65584A",
".. c #5A655B",
"X. c #4E755B",
"o. c #6F665B",
"O. c #415B66",
"+. c #435D6B",
"@. c #475568",
"#. c #56597A",
"$. c #514E64",
"%. c #625968",
"&. c #675B72",
"*. c #44626E",
"=. c #4C636E",
"-. c #596863",
";. c #446572",
":. c #4A6573",
">. c #436A75",
",. c #486875",
"<. c #4D6B7A",
"1. c #456E78",
"2. c #4E7179",
"3. c #656967",
"4. c #736865",
"5. c #697369",
"6. c #787668",
"7. c #6A7672",
"8. c #767B76",
"9. c #74657E",
"0. c #A37A38",
"q. c #8D5F2F",
"w. c #C27A39",
"e. c #813B59",
"r. c #94704C",
"t. c #867871",
"y. c #AE4674",
"u. c #17897B",
"i. c #268178",
"p. c #75827B",
"a. c #498061",
"s. c #AC853A",
"d. c #C48D3D",
"f. c #9D8773",
"g. c #8B877E",
"h. c #A6947A",
"j. c #D2AF4C",
"k. c #F5BA4F",
"l. c #E9AF4A",
"z. c #CE9F4E",
"x. c #F5D852",
"c. c #FBE776",
"v. c #E9CA71",
"b. c #655F89",
"n. c #625D85",
"m. c #5D6289",
"M. c #547384",
"N. c #5B7C8C",
"B. c #547B86",
"V. c #507B85",
"C. c #626189",
"Z. c #6B628C",
"A. c #716F8F",
"S. c #797CB4",
"D. c #7877AF",
"F. c #5D5C82",
"G. c #9B7C88",
"H. c #977E88",
"J. c #8B7594",
"K. c #A17988",
"L. c #957EA3",
"P. c #1A9283",
"I. c #29968B",
"U. c #2E8C85",
"Y. c #2AA598",
"T. c #32A69B",
"R. c #31A89C",
"E. c #5E8391",
"W. c #7A8684",
"Q. c #638394",
"!. c #6C8D9D",
"~. c #658897",
"^. c #7293A3",
"/. c #6E90A1",
"(. c #888887",
"). c #96838C",
"_. c #988888",
"`. c #968990",
"'. c #8B9696",
"]. c #919893",
"[. c #AF988A",
"{. c #BAA99D",
"}. c #B2AA94",
"|. c #989EA6",
" X c #A785AC",
".X c #AB8AB3",
"XX c #B88DB9",
"oX c #B48DB7",
"OX c #AE94BA",
"+X c #B192BA",
"@X c #9DA6A5",
"#X c #9EA5BC",
"$X c #A6ACAA",
"%X c #B5B8B6",
"&X c #B0B4AE",
"*X c #99A29D",
"=X c #C7AA94",
"-X c #CCB4AA",
";X c #B9C0BF",
":X c #CCC4B5",
">X c #D4D0B6",
",X c #FFEFB9",
"<X c #E8D698",
"1X c #AFAEC4",
"2X c #E191CC",
"3X c #E49ACE",
"4X c #EBB4D3",
"5X c #BCC2C3",
"6X c #C7CAC8",
"7X c #DCDDDD",
"8X c #D5D5D4",
"9X c #D5D1CB",
"0X c #EDCBC2",
"qX c #E5CEC4",
"wX c #E6DBCB",
"eX c #F6DDD2",
"rX c #F4D3D8",
"tX c #E5D2D5",
"yX c #ECE4D6",
"uX c #F5E3D5",
"iX c #F8E7D8",
"pX c #F6ECDB",
"aX c #F9EBDB",
"sX c #F7E6D7",
"dX c #FEFDCB",
"fX c #D8DDE5",
"gX c #DEE1E1",
"hX c #E3E5E4",
"jX c #EBEBEB",
"kX c #E8E9E8",
"lX c #F4EBE5",
"zX c #F4F4F5",
"xX c #FFFFFF",
"cX c #FFFDFE",
"vX c #FEFEFE",
"bX c #FEFCF7",
"nX c #F3F1F0",
"mX c #DEE0DF",
/* pixels */
"                                                                                                                        ",
"                                                                                                                        ",
"                                                                                                                        ",
"                                                        vXvXvXvXvX                                                      ",
"                                                  vXvXkX$Xp.7.W.*X7XvXvXvX                                              ",
"                                                vX-.0 ! ^ 1.^ ^ ^ / H - %XvX                                            ",
"                                              bX# 1./ ^ 1.V.E.E.E.^ ^ ^ ^ # jXvX                                        ",
"                                            cX- 1.>.1.V.~.L w X.8.X.e ~ V.1.H 6XvX                                      ",
"                                          vXp.^ 1.1.B.V.p.vXvXvXvXvXvXvX6X1 V.H bX                                      ",
"                                          vX& >.>.2.E.$XvX              vXvX8XL e vX                                    ",
"                                          vXb ,.>.V.& vX                    vXvXw bX                                    ",
"                                          vX= ! ! <.'.vX                        vXvX                                    ",
"                                          vX# Y E Y 9XvXvXvXvXvX                  vX                                    ",
"                                    vXvXkXW.% Z Z Z p - - # e '.hXvXvXvX                                                ",
"                                  vX&X$ V C V V B B C V B B B B p ; 2 %XvXvXvX                                          ",
"                                vXX G Z Z - u x c x - u B h B B B B B V - @ 6XcXvX                                      ",
"                          vXvX7X= J x B Z C V V V B V h n 0 B B B B B B h Z Z = e 7XvXvX                vX              ",
"                        vX%Xw - - B K x D J D x V V V V Z D Z B B B B V V V Z E Y J % $XvXvX          vX%XvX            ",
"                      vX# T E U E E E U U U E U D b D D E R / / V V h V V Z D J E U R R # 8.vXvXvXvXvX&XP vX            ",
"                    vX& ! T Y T T T T O.U O.O.U U K B K R *.F.V.,.D Z D Z D Z K E T R R ;.>.L % -...# ^ 0 vX            ",
"                  vXN / ! m R R R R R R +.+.+.O.U +.Z T :.<.M.N.Q.0 D D D J K V U U +.+.*.;.>.^ ^ ^ ^ ^ p.vX            ",
"                vXyX! / G ! *.! +.+.+.R +.+.+.+.@.<.M.C M.N.N.!.!.E.K U K U U U x T R +.,.>.,.;.^ ^ ^ # vX              ",
"                vX# >./ G >.*.*.R v G I v R +.:.<.M.Q.m N.!./.!.^.M.B U U U U U U x +.;.*.:.>.>.1.>.- vX                ",
"                vXY >.c *.>.! *.v I ; q X 4.*.M.N.Q.!.N.^.^.N./.~.:.b O.@.+.+.+.+.+.J ;.,.*.,.;.H [ vX    bXvX          ",
"              vX%X>.>.J ;.;.;.m -.:XyXpXaXaX4 N.Q./.^././.N.N.M.<.+.J +.+.+.+.+.+.:.A 0 0 0 % $XvXvX  vXvX& vX          ",
"              vXN >.~ >.>.;.;.t pXpXpXaXaXaX8.~.^.^.!.!.N.N.M.M.:.:.+.T +.:.=.=.*.*.:.0 B B B e 7XzXnX$X3 ^ jXvX        ",
"              vX& >.H >.,.,.>.yXpXpXrXaXpXaXeXE.^.^.E.,.N.2.<.:.:.*.=.A :.*.*.=.+.:.:.H V V D E Y J Y >.>.^ 7XvX        ",
"              vXw 1.c >.>.>.n pXpXaX3X4XpXpXpXS E.N.:.L 2.<.:.:.:.:.=.u :.*.=.:.:.*.:.,.u A D D Y ! ^ ^ 1.^ vX          ",
"              vXG 1.c >.,.,.@ pXpX4X2X2XsXlXaX: :.=.,.= :.:.:.:.:.:.:.x +.:.@.:.*.:.:.:.B Z E E R R / ^ >.x vXvX        ",
"              vXY 1.c >.>.,.) pXpX2X2X2X4XiXiX2 :.=.,.> *.:.:.:.:.:.:.D :.:.:.:.:.:.:.:.,.x E Y R ! / >.>.+ H vX        ",
"              vX~ >.H >.,.,.6.pXrX2X2X2X2XaXaXe :.:.:.{.n :.=.:.:.:.:.=.:.+.:.:.:.:.:.:.;.Y Y R R / ;.>.1.^ / jX        ",
"              vX! 1.~ ;.,.,.5.pXsX2X2X2XrXiXiX) :.:.[ aX` <.=.<.:.:.:.=.B :.:.:.:.:.*.:.:.:.m R ;./ ;.^ ^ 1.~ vX        ",
"              bX*.>.;.- ;.,.: iXaX4X2X3XaXaXiXe :.:.> iXwX+.=.:.:.:.:.=.L :.:.:.=.,.:.,.:.,.:.H H >.>.>.>.H > vXvX      ",
"              kX! >.>.}.*.>.w aXaXaX2XaXaXaXaX> =.=.wXaXiX> :.:.:.:.:.:.:.C :.:.:.,.,.=.,.:.,.,.>.Y H b G # N & 8XvX    ",
"            vX6X>.>.*.wX{.L ,.p.aXaXaXaXiXaXpX1 :.t iXpXiXiX) :.:.:.<.:.:.O.+.:.:.:.,.=.:.,.,.*.,.! ! L - & * * e vX    ",
"            vX*X>.>.L 9 9 8 o 4.aXaXaXaXaXpXyXa X . . . . O 8 @.:.:.:.:.:.:.L *.=.3 e w M *.*.O.H 0 = 3 4 1 3 3 @ vX    ",
"            vX..>.>.. : t z.s.. O >XpXpXaXaX6 &X%X%X%X1X0.q.. O @ ,.:.:.<.:.<.O.A n aXaXpX@ p M M a p n p 3 w n & vX    ",
"            vX= ^ >.H jXq.k.x.y l.` aXaXaXaXiXjXkXkXjXyXl.k.q.0.8 o :.:.:.=.:.=.:.1 _ qXwX{.4 F M M M n n n M m $XvX    ",
"        vXvXp.^ ^ H P vXs.x.d.q.dXvXaXaXaXaXaXvXvXvXvXlXx.l.q.dXdX=X` L +.+.:.:.=.*.*.O.n 6.{ F M M M M M m A - bX      ",
"      vX-.w ~ ~ p.^ x vX0.x.z.q.j.lXaXaXaXaXaXvXvXvXvXyXx.l.y d.c.iXg.D S b 0 0 0 & 8.:XaXaX}.A A M M A A A A p.vX      ",
"      vXjXw { vXvX! m vXr.<XdXc.r.aXaXaXaXaXaXaXvXvXvXzXc.<Xw.c.l.uX4 U U U Y ( Q X aXaXpXpX:XA S M A A A H 2 vX        ",
"        vXvXvXvXvX~ H yXbXj.v.r.aXaXaXaXaXaXaXaXaXvXvXvXv.,Xc.c.0.% +.b +.T u.u.Y X pXaXpXpX}.F S S M A n 8.vX          ",
"                vXY L wXpXuXuXuXsXiXaXaXaXaXaXaXiXiXbXvXpX<Xj.0.uX[.| b +./ I.I.K @ pXpXpXpXt F S M # 3.zXvX            ",
"                vX~ G >XuXuXuXpXuXiXaXaXaXaXaXaXiXeXeXuXaXsXeXeXeXeXwXO.:.I.I.I.K e pXpXpXyXp F F L K H ].vX            ",
"              vX].W C %XyXuXuXuXsXsXaXaXaXaXaXaXsXeXeXeXeXeXeXeXeXeXe =.,.T.Y.i.O.g.pXpXwX1 D K S 3 3 { vX              ",
"              vX3 W B 5.yXyXeXuXeXiXiXaXaXaXaXaXsXsXuXeXeXeXeXeXeXqXO.:.T.T.R.*.*.9XpX:Xw L [ K K 7.vXvX                ",
"      vXvXvXvX{ Y G 0 @ uXyXuXeXsXsX-Xf.f.eXaXaXsXeXeXeXeXeXeXeXeX% :.J T.T.Y.*.3 5.@ T T K Y Y J J @ vXvX              ",
"      vX$X& x ^ ^ c - + wXuXuXeXsXsXiXaXpXaXaXaXsXeXeXeXeXrXeX0X% ,.+.Y.T.R.! *.0 *.*.L ! T T L Y J J C nX              ",
"        vX@X- m & w u I 7.yXyXpXpXpXpXpXpXpXaXaXiXiXuXeXeXeXeXg.4 $ 0 R.R.i.>.T ! *.*.! ! T T Y ~ L Y m vX              ",
"          vXvXvXvX- C Q Q w yXpXpXpXpXpXaXpXaXpXiXiXiXuXeXeXuXeXuXg.R.R.R.L >.b *.*.m ! ! ! ~ ! ~ Y H &XvX              ",
"              vXe W G I u.u.q p.wXpXaXaXaXpXaXpXaXaXiXiXuXuXeXqX` i.R.R.c >.% >.>.% ;.N = L Y J P N zXvX                ",
"              yX~ ~ ~ v P.u.G x 6X..{ (.:XuXpXpXaXeXiXiXuX-X(.9X& T.R.( >.% vX_ 7.vXw %XvXbXhXbXvXvX                    ",
"            vXw ^ ~ ~ P.P.P.G - vXvXvXvXbX6.6.z | :Xt.6.| 9XlX2 T.T.I.*.- vX  vXvX  vXvX                                ",
"            vXY ^ ! u.P.P.~ Y '.vX        hXz e.fX3.y.>XlX3.6.I.T.i.O.n vX                                              ",
"            vXL ^ ; Y.Y.^ Y p.vX        vXgXv % ' w 7 7X&X&XU.T.c +.[ 7X                                                ",
"            vX- ^ ; Y.1.~ &XvX          vXw v @XA.q I zXa I.( } 2 :.5.vX                                                ",
"              zXH 7.Y.^ w vXvX        vXkX` 0X% N 2 {.4.hX(.6.>X{ A p.bX                                                ",
"                zX8Xc U.;.P N vX    vX..-XqX2 C.) 3.0X-XzXzXe >X6.2 -XkX                                                ",
"                    vX8X'.9XvX      zX-X0X-X|.A.6 ) 0X0X%XzX8.lXpX:XwXe vX                                              ",
"                      vXvXvX        jXqX0Xe F #.X 0X0X-XkXnX{ 3.N.[ >X> $ vX                                            ",
"                                    vX..-.W.4 _ t.0X0X) lX7X8X}  .S [ e C.4 vX                                          ",
"                                    vXvX-.zXzXzXp.{.0XlXzX6 e M.=.: N...C.C.1 vX                                        ",
"                                    7Xi kXzXzXzX9XnX8XnXhX> l 1 E.X [ n C.m.m._ vX                                      ",
"                                  vXm.d s 7.-XkXlXmXnXtX6Xr.7 o X =. .% C.C.m.J.6X                                      ",
"                                vX'.S.#.h k d %X7X(.&.} < < o t 7 *.o.$ C.C.C.L.K cX                                    ",
"                                vX% D S.S.i k 8.] XXXXL.5 o o 8 %.> yXzXn.C.C.A.OX8XvX                                  ",
"                                gX* h i m.S.#.i $.$.#.S., o : < 7XvXvXvX4 n.C.L.OXw vX                                  ",
"                              vX6.X.u h d s s 5 A.S.D.b., [ O.7 vX      jXF.C..XOX9.vX                                  ",
"                              nXh.P w g g g d o.} &.XXL.oX) Q.A vX      vXh m.+XOXOXvX                                  ",
"                            vX6.[.6.X.o...{ j s ] XX] XXJ.Z.' $XvX      vX' b.+XOXOXjXvX                                ",
"                          vX@Xh.o.h.h.}.h. .F j a XXXXz XXXXoXa bX      vX-..X+XOXOX1XvX                                ",
"                          vXyX[.| }.t o.h.h.j j j , XXXX%.L.XX%.A.vX    vXS +X+XoXOX5XvX                                ",
"                            vX4 |  .K.] =X4.* f j j s $.L.XX&.J.M vX    zXJ.OX+X+XOXzXvX                                ",
"                            vX[ ).K.K.[.t.j j % j j j j j l s L..XvXvXkX$..X1X+XOX#XvX                                  ",
"                      vXvXzX1 G.K.K.K.-X: f f (.j j j j j j j J.XXa vX X1XoXOX+XOXM vX                                  ",
"                    vX%XN H.).G.K.K.K.=X: f f @Xi j j j j j j <  XoX(.a +X1X+X+XOX$XvX                                  ",
"                  cXS G.G.G.).K.G.G.[.{.s f j |.l j j j s j j i XXJ.L.9X[ OXOXOXM vX                                    ",
"                vXn H.G.G.G.K.G.K.K.[.i j j j , tXj j s e.i j j < .XXXL.nX@X&.4 vX                                      ",
"              vXS H.H.H.G.G.G.' 7., j j d j j f fXf j s t.4.i f f XX&..XL.'.kXvX                                        ",
"              bXt.H.H.G.G._.6 vXvXp k 6.4.s j f a s s l %.%.l a j b.XXa 1XoX&.W.vXvXvX                                  ",
"            vX@XH.).`.`.`.}.gXvXvXN i 5.t.i d d p s g ] | 4.i z , b.Z.XXa .XoXOX X= vX                                  ",
"            vXW.'.`.).).)._.vX  vX' a 4.] l h d $X, j a i * * , #.b.b.b.XXL.' +XOXW.vX                                  ",
"            vX@X'.`.).G.G._.vX    vX# * * g * : cXzXp < < r r p i b.b.b.b.J.+XZ.3 vX                                    ",
"              zXt.`.'.*X`.{.hXvX  vX% r r 5 5 5 cXcX3.< < r r P $ b.b.b.b.C.C.A.OX[ vX                                  ",
"              vXS H.).'.).{.N vX  vX$ r P 5 5 5 6XcXnX< < N r N , b.b.n.C.C.C.m.m.5XvX                                  ",
"              vXW.`.).H.H.{._.vX  vX$ 6 5 5 5 5 $XvXvX, < 5 P < < [ b.b.C.C.C.m.@.vX                                    ",
"                vXzXW.= - [ jXvX  vX$ 3., a 5 5 W.cXvX1 < $ 8.t.3.% 3 n.C.m.m.C.A.vX                                    ",
"                    vXvXvXvX    vXS $ p.3.4 5 5 W.vXvXgX< < { 4 _ 5 , p.@.m.m.p bX                                      ",
"                                  mX3 $ 4 * $ -.cX    vX[ % * 4 4 , %XvXvX8X'.vX                                        ",
"                                    vXvXvXvXvXvX        cXvXvXvXvXvXvX    vXvX                                          ",
"                                                                                                                        ",
"                                                                                                                        ",
"                                                                                                                        "
};
